<?xml version="1.0" encoding="UTF-8" standalone="no" ?>
<!DOCTYPE svg PUBLIC "-//W3C//DTD SVG 1.1//EN" "http://www.w3.org/Graphics/SVG/1.1/DTD/svg11.dtd">
<svg xmlns="http://www.w3.org/2000/svg" xmlns:xlink="http://www.w3.org/1999/xlink" version="1.1" width="1080" height="1080" viewBox="0 0 1080 1080" xml:space="preserve">
<desc>Created with Fabric.js 5.2.4</desc>
<defs>
</defs>
<rect x="0" y="0" width="100%" height="100%" fill="transparent"></rect>
<g transform="matrix(1 0 0 1 540 540)" id="33e1b846-c3d1-4144-8e33-21412a32a2d8"  >
<rect style="stroke: none; stroke-width: 1; stroke-dasharray: none; stroke-linecap: butt; stroke-dashoffset: 0; stroke-linejoin: miter; stroke-miterlimit: 4; fill: rgb(255,255,255); fill-rule: nonzero; opacity: 1; visibility: hidden;" vector-effect="non-scaling-stroke"  x="-540" y="-540" rx="0" ry="0" width="1080" height="1080" />
</g>
<g transform="matrix(1 0 0 1 540 540)" id="39220f51-c862-4742-8f38-4e8790076123"  >
</g>
<g transform="matrix(2.83 0 0 2.83 558.58 527.79)"  >
<path style="stroke: none; stroke-width: 1; stroke-dasharray: none; stroke-linecap: butt; stroke-dashoffset: 0; stroke-linejoin: miter; stroke-miterlimit: 4; fill: rgb(255,255,255); fill-rule: evenodd; opacity: 1;" vector-effect="non-scaling-stroke"  transform=" translate(-141.74, -46.51)" d="M 161.44 78.6 C 160.56 78.6 160.13 78.14999999999999 160.13 77.24 L 160.13 23.19 C 160.13 21.34 159.72 20.11 158.92 19.490000000000002 C 158.11999999999998 18.89 157.08999999999997 18.590000000000003 155.79999999999998 18.590000000000003 C 155.07 18.590000000000003 154.26999999999998 18.650000000000002 153.39 18.760000000000005 L 153.07 15.810000000000006 C 157.16 15.120000000000006 161.29 14.560000000000006 165.45999999999998 14.130000000000006 C 169.64999999999998 13.720000000000006 173.82999999999998 13.510000000000007 178.04 13.510000000000007 C 181.53 13.510000000000007 184.95 13.700000000000006 188.29999999999998 14.110000000000007 C 191.64999999999998 14.500000000000007 194.77999999999997 15.180000000000007 197.71999999999997 16.130000000000006 C 200.64999999999998 17.080000000000005 203.34999999999997 18.340000000000007 205.78999999999996 19.910000000000007 C 208.23999999999995 21.480000000000008 210.34999999999997 23.44000000000001 212.10999999999996 25.78000000000001 C 213.87999999999997 28.120000000000008 215.26999999999995 30.860000000000007 216.25999999999996 34.040000000000006 C 217.22999999999996 37.220000000000006 217.73999999999995 40.88000000000001 217.73999999999995 45.050000000000004 C 217.73999999999995 50.56 216.76999999999995 55.46000000000001 214.79999999999995 59.760000000000005 C 212.85999999999996 64.04 210.12999999999997 67.67 206.65999999999997 70.62 C 203.15999999999997 73.57000000000001 199.01999999999998 75.83 194.20999999999998 77.37 C 189.42999999999998 78.9 184.18999999999997 79.67 178.52999999999997 79.67 C 176.87999999999997 79.67 175.44999999999996 79.61 174.16999999999996 79.5 C 172.91999999999996 79.39 171.66999999999996 79.28 170.42999999999995 79.15 C 169.17999999999995 79.02000000000001 167.84999999999994 78.91000000000001 166.44999999999996 78.79 C 165.04999999999995 78.68 163.38999999999996 78.62 161.43999999999997 78.62 L 161.43999999999997 78.62 Z M 170.32 74.22999999999999 C 171.7 74.54999999999998 173.1 74.77 174.51999999999998 74.89999999999999 C 175.93999999999997 75.02999999999999 177.43999999999997 75.08999999999999 178.96999999999997 75.08999999999999 C 183.33999999999997 75.08999999999999 187.24999999999997 74.43999999999998 190.68999999999997 73.10999999999999 C 194.10999999999996 71.76999999999998 196.98999999999998 69.85999999999999 199.31999999999996 67.36999999999999 C 201.65999999999997 64.89999999999999 203.44999999999996 61.87999999999999 204.66999999999996 58.33999999999999 C 205.87999999999997 54.80999999999999 206.49999999999997 50.82999999999999 206.49999999999997 46.39999999999999 C 206.49999999999997 42.209999999999994 205.87999999999997 38.379999999999995 204.60999999999999 34.90999999999999 C 203.35999999999999 31.44999999999999 201.52999999999997 28.45999999999999 199.11999999999998 25.95999999999999 C 196.70999999999998 23.44999999999999 193.75999999999996 21.52999999999999 190.23999999999998 20.16999999999999 C 186.74999999999997 18.789999999999992 182.74999999999997 18.109999999999992 178.23999999999998 18.109999999999992 L 175.45 18.109999999999992 C 173.81 18.109999999999992 172.54 18.23999999999999 171.64 18.519999999999992 C 170.76 18.779999999999994 170.30999999999997 19.529999999999994 170.30999999999997 20.729999999999993 L 170.30999999999997 74.22999999999999 L 170.30999999999997 74.22999999999999 Z M 283.47 74.49 C 281.59000000000003 75.55 279.51000000000005 76.44999999999999 277.25 77.17999999999999 C 274.97 77.91 272.76 78.49 270.6 78.94 C 268.42 79.37 266.40000000000003 79.69 264.51000000000005 79.89 C 262.64000000000004 80.1 261.11000000000007 80.19 259.95000000000005 80.19 C 254.90000000000003 80.19 250.31000000000006 79.35 246.14000000000004 77.64999999999999 C 241.99000000000004 75.94999999999999 238.42000000000004 73.6 235.45000000000005 70.60999999999999 C 232.46000000000004 67.61999999999999 230.16000000000005 64.06999999999998 228.52000000000004 59.93999999999998 C 226.88000000000005 55.80999999999998 226.05000000000004 51.30999999999998 226.05000000000004 46.40999999999998 C 226.05000000000004 41.11999999999998 226.99000000000004 36.42999999999998 228.86000000000004 32.33999999999998 C 230.71000000000004 28.269999999999982 233.29000000000005 24.829999999999984 236.58000000000004 22.02999999999998 C 239.87000000000003 19.23999999999998 243.76000000000005 17.11999999999998 248.24000000000004 15.67999999999998 C 252.73000000000005 14.23999999999998 257.61 13.52999999999998 262.86 13.52999999999998 C 265.81 13.52999999999998 268.65000000000003 13.71999999999998 271.34000000000003 14.08999999999998 C 274.05 14.47999999999998 276.67 14.94999999999998 279.23 15.48999999999998 C 279.57 15.56999999999998 279.83000000000004 15.709999999999981 280.01 15.959999999999981 C 280.21999999999997 16.19999999999998 280.34999999999997 16.44999999999998 280.36 16.70999999999998 C 280.40000000000003 17.20999999999998 280.45 17.86999999999998 280.51 18.66999999999998 C 280.57 19.46999999999998 280.59999999999997 20.32999999999998 280.64 21.269999999999982 C 280.68 22.19999999999998 280.72999999999996 23.159999999999982 280.77 24.10999999999998 C 280.83 25.07999999999998 280.88 25.979999999999983 280.91999999999996 26.799999999999983 C 280.96 27.619999999999983 280.97999999999996 28.329999999999984 280.98999999999995 28.909999999999982 C 281.00999999999993 29.48999999999998 281.03 29.85999999999998 281.03 29.98999999999998 L 278.28999999999996 30.269999999999982 C 278.06999999999994 28.009999999999984 277.40999999999997 26.07999999999998 276.28999999999996 24.509999999999984 C 275.18999999999994 22.939999999999984 273.80999999999995 21.689999999999984 272.15999999999997 20.719999999999985 C 270.51 19.749999999999986 268.7 19.039999999999985 266.71999999999997 18.609999999999985 C 264.71999999999997 18.179999999999986 262.73999999999995 17.959999999999987 260.78 17.959999999999987 C 256.79999999999995 17.959999999999987 253.33999999999997 18.609999999999985 250.39 19.919999999999987 C 247.45999999999998 21.249999999999986 245.01 23.059999999999988 243.05999999999997 25.37999999999999 C 241.09999999999997 27.69999999999999 239.64 30.42999999999999 238.68999999999997 33.579999999999984 C 237.71999999999997 36.73999999999998 237.22999999999996 40.179999999999986 237.22999999999996 43.90999999999998 C 237.22999999999996 48.249999999999986 237.82999999999996 52.27999999999998 239.00999999999996 56.01999999999998 C 240.19999999999996 59.77999999999998 241.97999999999996 63.009999999999984 244.35999999999996 65.75999999999998 C 246.72999999999996 68.48999999999998 249.68999999999997 70.63999999999997 253.21999999999997 72.20999999999998 C 256.77 73.77999999999997 260.91999999999996 74.55999999999997 265.65 74.55999999999997 C 268.51 74.55999999999997 271.26 74.25999999999998 273.92999999999995 73.62999999999997 C 276.59 73.00999999999996 279.28999999999996 72.16999999999997 282.0199999999999 71.12999999999997 L 283.48999999999995 74.50999999999996 L 283.48999999999995 74.50999999999996 Z M 15.38 55.65 L 6.950000000000001 78.37 C 6.800000000000001 78.78 6.480000000000001 79.01 5.960000000000001 79.08 C 5.3100000000000005 79.14999999999999 4.5600000000000005 79.21 3.7200000000000006 79.25 C 2.880000000000001 79.29 1.9200000000000006 79.31 0.8800000000000008 79.31 C 0.3000000000000008 79.31 7.771561172376096e-16 79.12 7.771561172376096e-16 78.77 C 7.771561172376096e-16 78.66 0.020000000000000778 78.56 0.060000000000000775 78.49 L 25.13 18.37 L 23.97 15.190000000000001 C 23.89 14.910000000000002 23.86 14.700000000000001 23.86 14.590000000000002 C 23.86 14.05 24.21 13.71 24.9 13.600000000000001 C 25.479999999999997 13.510000000000002 26.169999999999998 13.39 26.959999999999997 13.3 C 27.74 13.21 28.49 13.13 29.22 13.06 C 29.95 12.98 30.64 12.93 31.259999999999998 12.89 C 31.88 12.850000000000001 32.32 12.83 32.62 12.83 C 33.349999999999994 12.83 33.87 13.26 34.21 14.1 L 58.63 76.95 C 58.74 77.25 58.78 77.44 58.78 77.55 C 58.78 78.17999999999999 58.42 78.53999999999999 57.69 78.64999999999999 C 57.04 78.75999999999999 56.29 78.85999999999999 55.47 78.94999999999999 C 54.65 79.03999999999999 53.839999999999996 79.11999999999999 53.06 79.16999999999999 C 52.28 79.22999999999999 51.56 79.25999999999999 50.910000000000004 79.27999999999999 C 50.24 79.29999999999998 49.77 79.29999999999998 49.470000000000006 79.29999999999998 C 48.85000000000001 79.29999999999998 48.440000000000005 79.01999999999998 48.220000000000006 78.47999999999999 L 39.290000000000006 55.26999999999999 L 15.370000000000005 55.639999999999986 L 15.370000000000005 55.639999999999986 Z M 17.14 51 L 37.68 51 C 37.68 51 27.27 23.85 27.27 23.85 L 17.14 51 Z" stroke-linecap="round" />
</g>
<g transform="matrix(2.83 0 0 2.83 452.91 436.33)"  >
<path style="stroke: none; stroke-width: 1; stroke-dasharray: none; stroke-linecap: butt; stroke-dashoffset: 0; stroke-linejoin: miter; stroke-miterlimit: 4; fill: rgb(227,6,19); fill-rule: evenodd; opacity: 1;" vector-effect="non-scaling-stroke"  transform=" translate(-104.41, -14.19)" d="M 135.19 17.73 L 73.62 17.73 C 72.42 17.73 71.73 16.34 72.48 15.41 C 72.81 15 73.15 14.59 73.5 14.19 C 74.44 13.08 75.45 12.04 76.5 11.04 C 76.77 10.79 77.13 10.649999999999999 77.5 10.649999999999999 L 131.32999999999998 10.649999999999999 C 131.7 10.649999999999999 132.05999999999997 10.79 132.32999999999998 11.04 C 133.38 12.03 134.39 13.079999999999998 135.32999999999998 14.19 C 135.67999999999998 14.59 136.01999999999998 14.99 136.35 15.41 C 137.1 16.35 136.4 17.73 135.21 17.73 Z" stroke-linecap="round" />
</g>
<g transform="matrix(2.83 0 0 2.83 452.89 406.2)"  >
<path style="stroke: none; stroke-width: 1; stroke-dasharray: none; stroke-linecap: butt; stroke-dashoffset: 0; stroke-linejoin: miter; stroke-miterlimit: 4; fill: rgb(227,6,19); fill-rule: evenodd; opacity: 1;" vector-effect="non-scaling-stroke"  transform=" translate(-104.41, -3.54)" d="M 122.13 7.09 L 86.69 7.09 C 85.19 7.09 84.67 5.05 86.00999999999999 4.369999999999999 C 86.57999999999998 4.079999999999999 87.16 3.809999999999999 87.74 3.5499999999999994 C 92.82 1.2599999999999993 98.46 -4.440892098500626e-16 104.39999999999999 -4.440892098500626e-16 C 110.33999999999999 -4.440892098500626e-16 115.97 1.2699999999999996 121.04999999999998 3.5499999999999994 C 121.63999999999999 3.8099999999999996 122.21999999999998 4.079999999999999 122.79999999999998 4.369999999999999 C 124.13999999999999 5.039999999999999 123.62999999999998 7.09 122.11999999999998 7.09 Z" stroke-linecap="round" />
</g>
<g transform="matrix(2.83 0 0 2.83 452.84 466.45)"  >
<path style="stroke: none; stroke-width: 1; stroke-dasharray: none; stroke-linecap: butt; stroke-dashoffset: 0; stroke-linejoin: miter; stroke-miterlimit: 4; fill: rgb(227,6,19); fill-rule: evenodd; opacity: 1;" vector-effect="non-scaling-stroke"  transform=" translate(-104.39, -24.84)" d="M 141.24 28.38 L 67.57 28.38 C 66.55999999999999 28.38 65.86 27.369999999999997 66.21 26.43 C 66.41999999999999 25.89 66.63 25.35 66.86 24.82 C 67.25 23.88 67.69 22.96 68.15 22.060000000000002 C 68.4 21.580000000000002 68.89 21.290000000000003 69.43 21.290000000000003 L 139.35000000000002 21.290000000000003 C 139.89000000000001 21.290000000000003 140.39000000000001 21.590000000000003 140.63000000000002 22.060000000000002 C 141.09000000000003 22.96 141.53000000000003 23.89 141.92000000000002 24.82 C 142.15 25.35 142.37 25.88 142.57000000000002 26.43 C 142.93000000000004 27.37 142.22000000000003 28.38 141.21 28.38 Z" stroke-linecap="round" />
</g>
<g transform="matrix(2.83 0 0 2.83 452.88 496.54)"  >
<path style="stroke: none; stroke-width: 1; stroke-dasharray: none; stroke-linecap: butt; stroke-dashoffset: 0; stroke-linejoin: miter; stroke-miterlimit: 4; fill: rgb(227,6,19); fill-rule: evenodd; opacity: 1;" vector-effect="non-scaling-stroke"  transform=" translate(-104.4, -35.47)" d="M 143.61 39.01 L 65.19 39.01 C 64.36 39.01 63.68 38.309999999999995 63.75 37.48 C 63.8 36.809999999999995 63.88 36.13999999999999 63.98 35.47 C 64.08 34.65 64.2 33.85 64.35 33.06 C 64.47999999999999 32.39 65.08 31.92 65.75999999999999 31.92 L 143.04 31.92 C 143.72 31.92 144.32 32.39 144.45 33.06 C 144.6 33.85 144.73 34.660000000000004 144.82 35.47 C 144.92 36.129999999999995 144.98999999999998 36.8 145.04999999999998 37.48 C 145.11999999999998 38.309999999999995 144.43999999999997 39.01 143.60999999999999 39.01 Z" stroke-linecap="round" />
</g>
<g transform="matrix(2.83 0 0 2.83 452.88 526.65)"  >
<path style="stroke: none; stroke-width: 1; stroke-dasharray: none; stroke-linecap: butt; stroke-dashoffset: 0; stroke-linejoin: miter; stroke-miterlimit: 4; fill: rgb(227,6,19); fill-rule: evenodd; opacity: 1;" vector-effect="non-scaling-stroke"  transform=" translate(-104.4, -46.11)" d="M 143.61 42.56 C 144.44000000000003 42.56 145.12 43.260000000000005 145.05 44.09 C 145 44.760000000000005 144.92000000000002 45.43000000000001 144.82000000000002 46.1 C 144.72000000000003 46.92 144.60000000000002 47.72 144.45000000000002 48.510000000000005 C 144.32000000000002 49.18000000000001 143.72000000000003 49.650000000000006 143.04000000000002 49.650000000000006 L 65.76 49.650000000000006 C 65.08 49.650000000000006 64.48 49.18000000000001 64.35000000000001 48.510000000000005 C 64.2 47.720000000000006 64.07000000000001 46.910000000000004 63.98000000000001 46.10000000000001 C 63.88000000000001 45.44000000000001 63.81000000000001 44.77000000000001 63.750000000000014 44.09000000000001 C 63.680000000000014 43.26000000000001 64.36000000000001 42.56000000000001 65.19000000000001 42.56000000000001 L 143.61 42.56000000000001 Z" stroke-linecap="round" />
</g>
<g transform="matrix(2.83 0 0 2.83 452.84 586.84)"  >
<path style="stroke: none; stroke-width: 1; stroke-dasharray: none; stroke-linecap: butt; stroke-dashoffset: 0; stroke-linejoin: miter; stroke-miterlimit: 4; fill: rgb(227,6,19); fill-rule: evenodd; opacity: 1;" vector-effect="non-scaling-stroke"  transform=" translate(-104.39, -67.38)" d="M 135.19 63.84 C 136.39 63.84 137.07999999999998 65.23 136.32999999999998 66.16 C 135.99999999999997 66.57 135.66 66.97999999999999 135.30999999999997 67.38 C 134.36999999999998 68.49 133.34999999999997 69.55 132.28999999999996 70.53999999999999 C 132.01999999999995 70.78999999999999 131.65999999999997 70.92999999999999 131.28999999999996 70.92999999999999 L 77.48999999999997 70.92999999999999 C 77.11999999999996 70.92999999999999 76.75999999999996 70.78999999999999 76.48999999999997 70.53999999999999 C 75.43999999999997 69.53999999999999 74.42999999999996 68.47999999999999 73.46999999999997 67.38 C 73.11999999999998 66.97999999999999 72.77999999999997 66.58 72.44999999999997 66.16 C 71.69999999999997 65.22 72.39999999999998 63.839999999999996 73.58999999999997 63.839999999999996 L 135.15999999999997 63.839999999999996 Z" stroke-linecap="round" />
</g>
<g transform="matrix(2.83 0 0 2.83 452.89 556.76)"  >
<path style="stroke: none; stroke-width: 1; stroke-dasharray: none; stroke-linecap: butt; stroke-dashoffset: 0; stroke-linejoin: miter; stroke-miterlimit: 4; fill: rgb(227,6,19); fill-rule: evenodd; opacity: 1;" vector-effect="non-scaling-stroke"  transform=" translate(-104.4, -56.75)" d="M 141.23 53.2 C 142.23999999999998 53.2 142.94 54.21 142.59 55.150000000000006 C 142.39000000000001 55.690000000000005 142.17000000000002 56.220000000000006 141.94 56.760000000000005 C 141.55 57.7 141.10999999999999 58.620000000000005 140.65 59.52 C 140.4 60 139.91 60.290000000000006 139.37 60.290000000000006 L 69.44 60.290000000000006 C 68.89999999999999 60.290000000000006 68.39999999999999 59.99000000000001 68.16 59.52 C 67.7 58.620000000000005 67.25999999999999 57.690000000000005 66.86999999999999 56.760000000000005 C 66.63999999999999 56.230000000000004 66.41999999999999 55.690000000000005 66.21999999999998 55.150000000000006 C 65.85999999999999 54.21000000000001 66.56999999999998 53.2 67.57999999999998 53.2 L 141.23999999999998 53.2 Z" stroke-linecap="round" />
</g>
<g transform="matrix(2.83 0 0 2.83 452.89 616.97)"  >
<path style="stroke: none; stroke-width: 1; stroke-dasharray: none; stroke-linecap: butt; stroke-dashoffset: 0; stroke-linejoin: miter; stroke-miterlimit: 4; fill: rgb(227,6,19); fill-rule: evenodd; opacity: 1;" vector-effect="non-scaling-stroke"  transform=" translate(-104.4, -78.03)" d="M 122.12 74.48 C 123.62 74.48 124.14 76.52000000000001 122.80000000000001 77.2 C 122.22000000000001 77.49000000000001 121.63000000000001 77.77 121.03000000000002 78.04 C 115.97000000000001 80.31 110.34000000000002 81.58000000000001 104.41000000000001 81.58000000000001 C 98.48 81.58000000000001 92.87 80.31000000000002 87.79 78.04 C 87.19000000000001 77.78 86.59 77.5 86.01 77.21000000000001 C 84.66000000000001 76.54 85.18 74.49000000000001 86.68 74.49000000000001 L 122.12 74.49000000000001 Z" stroke-linecap="round" />
</g>
<g transform="matrix(2.83 0 0 2.83 558.55 676.55)"  >
<rect style="stroke: none; stroke-width: 1; stroke-dasharray: none; stroke-linecap: butt; stroke-dashoffset: 0; stroke-linejoin: miter; stroke-miterlimit: 4; fill: rgb(255,255,255); fill-rule: nonzero; opacity: 1;" vector-effect="non-scaling-stroke"  x="-101.475" y="-1.415" rx="0" ry="0" width="202.95" height="2.83" />
</g>
<g transform="matrix(1 0 0 1 575.2 745.27)" style="" id="59ae2432-7f84-4235-b7f9-0d4e2b3b172a"  >
		<text xml:space="preserve" font-family="Alegreya" font-size="80" font-style="normal" font-weight="800" style="stroke: none; stroke-width: 1; stroke-dasharray: none; stroke-linecap: butt; stroke-dashoffset: 0; stroke-linejoin: miter; stroke-miterlimit: 4; fill: rgb(255,255,255); fill-rule: nonzero; opacity: 1; white-space: pre;" ><tspan x="-154.22" y="25.13" >SERWIS</tspan></text>
</g>
</svg>