<?xml version="1.0" encoding="UTF-8"?><svg id="Warstwa_1" xmlns="http://www.w3.org/2000/svg" viewBox="0 0 283.46 114.59"><defs><style>.cls-1,.cls-2{fill:#fff;}.cls-2,.cls-3{fill-rule:evenodd;}.cls-3{fill:#e30613;}</style></defs><path class="cls-2" d="M161.44,78.6c-.88,0-1.31-.45-1.31-1.36V23.19c0-1.85-.41-3.08-1.21-3.7-.8-.6-1.83-.9-3.12-.9-.73,0-1.53,.06-2.41,.17l-.32-2.95c4.09-.69,8.22-1.25,12.39-1.68,4.19-.41,8.37-.62,12.58-.62,3.49,0,6.91,.19,10.26,.6,3.35,.39,6.48,1.07,9.42,2.02,2.93,.95,5.63,2.21,8.07,3.78,2.45,1.57,4.56,3.53,6.32,5.87,1.77,2.34,3.16,5.08,4.15,8.26,.97,3.18,1.48,6.84,1.48,11.01,0,5.51-.97,10.41-2.94,14.71-1.94,4.28-4.67,7.91-8.14,10.86-3.5,2.95-7.64,5.21-12.45,6.75-4.78,1.53-10.02,2.3-15.68,2.3-1.65,0-3.08-.06-4.36-.17-1.25-.11-2.5-.22-3.74-.35-1.25-.13-2.58-.24-3.98-.36-1.4-.11-3.06-.17-5.01-.17h0Zm8.88-4.37c1.38,.32,2.78,.54,4.2,.67,1.42,.13,2.92,.19,4.45,.19,4.37,0,8.28-.65,11.72-1.98,3.42-1.34,6.3-3.25,8.63-5.74,2.34-2.47,4.13-5.49,5.35-9.03,1.21-3.53,1.83-7.51,1.83-11.94,0-4.19-.62-8.02-1.89-11.49-1.25-3.46-3.08-6.45-5.49-8.95-2.41-2.51-5.36-4.43-8.88-5.79-3.49-1.38-7.49-2.06-12-2.06h-2.79c-1.64,0-2.91,.13-3.81,.41-.88,.26-1.33,1.01-1.33,2.21v53.5h0Zm113.15,.26c-1.88,1.06-3.96,1.96-6.22,2.69-2.28,.73-4.49,1.31-6.65,1.76-2.18,.43-4.2,.75-6.09,.95-1.87,.21-3.4,.3-4.56,.3-5.05,0-9.64-.84-13.81-2.54-4.15-1.7-7.72-4.05-10.69-7.04-2.99-2.99-5.29-6.54-6.93-10.67-1.64-4.13-2.47-8.63-2.47-13.53,0-5.29,.94-9.98,2.81-14.07,1.85-4.07,4.43-7.51,7.72-10.31,3.29-2.79,7.18-4.91,11.66-6.35,4.49-1.44,9.37-2.15,14.62-2.15,2.95,0,5.79,.19,8.48,.56,2.71,.39,5.33,.86,7.89,1.4,.34,.08,.6,.22,.78,.47,.21,.24,.34,.49,.35,.75,.04,.5,.09,1.16,.15,1.96,.06,.8,.09,1.66,.13,2.6,.04,.93,.09,1.89,.13,2.84,.06,.97,.11,1.87,.15,2.69,.04,.82,.06,1.53,.07,2.11,.02,.58,.04,.95,.04,1.08l-2.74,.28c-.22-2.26-.88-4.19-2-5.76-1.1-1.57-2.48-2.82-4.13-3.79-1.65-.97-3.46-1.68-5.44-2.11-2-.43-3.98-.65-5.94-.65-3.98,0-7.44,.65-10.39,1.96-2.93,1.33-5.38,3.14-7.33,5.46-1.96,2.32-3.42,5.05-4.37,8.2-.97,3.16-1.46,6.6-1.46,10.33,0,4.34,.6,8.37,1.78,12.11,1.19,3.76,2.97,6.99,5.35,9.74,2.37,2.73,5.33,4.88,8.86,6.45,3.55,1.57,7.7,2.35,12.43,2.35,2.86,0,5.61-.3,8.28-.93,2.66-.62,5.36-1.46,8.09-2.5l1.47,3.38h0ZM15.38,55.65l-8.43,22.72c-.15,.41-.47,.64-.99,.71-.65,.07-1.4,.13-2.24,.17-.84,.04-1.8,.06-2.84,.06-.58,0-.88-.19-.88-.54,0-.11,.02-.21,.06-.28L25.13,18.37l-1.16-3.18c-.08-.28-.11-.49-.11-.6,0-.54,.35-.88,1.04-.99,.58-.09,1.27-.21,2.06-.3,.78-.09,1.53-.17,2.26-.24,.73-.08,1.42-.13,2.04-.17,.62-.04,1.06-.06,1.36-.06,.73,0,1.25,.43,1.59,1.27l24.42,62.85c.11,.3,.15,.49,.15,.6,0,.63-.36,.99-1.09,1.1-.65,.11-1.4,.21-2.22,.3-.82,.09-1.63,.17-2.41,.22-.78,.06-1.5,.09-2.15,.11-.67,.02-1.14,.02-1.44,.02-.62,0-1.03-.28-1.25-.82l-8.93-23.21-23.92,.37h0Zm1.76-4.65h20.54s-10.41-27.15-10.41-27.15l-10.13,27.15Z"/><path class="cls-3" d="M135.19,17.73h-61.57c-1.2,0-1.89-1.39-1.14-2.32,.33-.41,.67-.82,1.02-1.22,.94-1.11,1.95-2.15,3-3.15,.27-.25,.63-.39,1-.39h53.83c.37,0,.73,.14,1,.39,1.05,.99,2.06,2.04,3,3.15,.35,.4,.69,.8,1.02,1.22,.75,.94,.05,2.32-1.14,2.32Z"/><path class="cls-3" d="M122.13,7.09h-35.44c-1.5,0-2.02-2.04-.68-2.72,.57-.29,1.15-.56,1.73-.82,5.08-2.29,10.72-3.55,16.66-3.55s11.57,1.27,16.65,3.55c.59,.26,1.17,.53,1.75,.82,1.34,.67,.83,2.72-.68,2.72Z"/><path class="cls-3" d="M141.24,28.38H67.57c-1.01,0-1.71-1.01-1.36-1.95,.21-.54,.42-1.08,.65-1.61,.39-.94,.83-1.86,1.29-2.76,.25-.48,.74-.77,1.28-.77h69.92c.54,0,1.04,.3,1.28,.77,.46,.9,.9,1.83,1.29,2.76,.23,.53,.45,1.06,.65,1.61,.36,.94-.35,1.95-1.36,1.95Z"/><path class="cls-3" d="M143.61,39.01H65.19c-.83,0-1.51-.7-1.44-1.53,.05-.67,.13-1.34,.23-2.01,.1-.82,.22-1.62,.37-2.41,.13-.67,.73-1.14,1.41-1.14h77.28c.68,0,1.28,.47,1.41,1.14,.15,.79,.28,1.6,.37,2.41,.1,.66,.17,1.33,.23,2.01,.07,.83-.61,1.53-1.44,1.53Z"/><path class="cls-3" d="M143.61,42.56c.83,0,1.51,.7,1.44,1.53-.05,.67-.13,1.34-.23,2.01-.1,.82-.22,1.62-.37,2.41-.13,.67-.73,1.14-1.41,1.14H65.76c-.68,0-1.28-.47-1.41-1.14-.15-.79-.28-1.6-.37-2.41-.1-.66-.17-1.33-.23-2.01-.07-.83,.61-1.53,1.44-1.53h78.42Z"/><path class="cls-3" d="M135.19,63.84c1.2,0,1.89,1.39,1.14,2.32-.33,.41-.67,.82-1.02,1.22-.94,1.11-1.96,2.17-3.02,3.16-.27,.25-.63,.39-1,.39h-53.8c-.37,0-.73-.14-1-.39-1.05-1-2.06-2.06-3.02-3.16-.35-.4-.69-.8-1.02-1.22-.75-.94-.05-2.32,1.14-2.32h61.57Z"/><path class="cls-3" d="M141.23,53.2c1.01,0,1.71,1.01,1.36,1.95-.2,.54-.42,1.07-.65,1.61-.39,.94-.83,1.86-1.29,2.76-.25,.48-.74,.77-1.28,.77H69.44c-.54,0-1.04-.3-1.28-.77-.46-.9-.9-1.83-1.29-2.76-.23-.53-.45-1.07-.65-1.61-.36-.94,.35-1.95,1.36-1.95h73.66Z"/><path class="cls-3" d="M122.12,74.48c1.5,0,2.02,2.04,.68,2.72-.58,.29-1.17,.57-1.77,.84-5.06,2.27-10.69,3.54-16.62,3.54s-11.54-1.27-16.62-3.54c-.6-.26-1.2-.54-1.78-.83-1.35-.67-.83-2.72,.67-2.72h35.44Z"/><g><path class="cls-1" d="M97.98,112.02c0,1.56-.73,2.57-3.08,2.57-.86,0-1.71-.08-2.43-.36-.16-.06-.28-.19-.28-.4,0-.19,.07-.43,.14-.66,.06-.21,.16-.3,.37-.3,.09,0,.31,.06,.42,.09,.63,.2,1.16,.26,1.84,.26,1.21,0,1.36-.49,1.36-.99,0-.55-.14-.82-1.1-1.06l-1-.23c-1.24-.29-1.87-1-1.87-2.36,0-1.5,.75-2.5,2.99-2.5,.6,0,1.51,.06,2.09,.26,.15,.05,.27,.17,.27,.4,0,.13-.05,.43-.1,.67-.05,.16-.14,.27-.3,.27-.1,0-.3-.04-.4-.06-.65-.13-1.24-.16-1.67-.16-.99,0-1.22,.4-1.22,.98,0,.45,.12,.79,1,1.02l1.02,.26c1.5,.42,1.96,.89,1.96,2.31Z"/><path class="cls-1" d="M111.47,114.43c-.17,0-.31-.08-.31-.34v-7.49c0-.22,.07-.37,.3-.37h4.43c.22,0,.33,.07,.33,.31v.84c0,.2-.1,.28-.33,.28h-3.12v1.81h2.83c.21,0,.33,.07,.33,.31v.84c0,.2-.12,.28-.33,.28h-2.83v2.1h3.32c.21,0,.33,.07,.33,.33v.82c0,.2-.11,.28-.33,.28h-4.61Z"/><path class="cls-1" d="M130.8,114.45h-.96c-.19,0-.3-.1-.3-.35v-7.5c0-.2,.05-.36,.36-.36h1.81c1.14,0,1.9,.1,2.35,.28,.88,.36,1.17,1.13,1.17,2.13s-.33,1.84-1.32,2.24l1.64,2.93c.07,.13,.13,.26,.13,.4s-.12,.24-.27,.24h-1.08c-.21,0-.31-.1-.41-.27l-1.57-3.02h-1.21v2.94c0,.23-.14,.35-.34,.35Zm1.07-4.59c.5,0,.86-.05,1.13-.14,.37-.14,.58-.45,.58-.98,0-.64-.2-.88-.57-1.02-.22-.08-.63-.12-1.16-.12h-.71v2.25h.73Z"/><path class="cls-1" d="M151.59,114.11c-.06,.21-.21,.34-.43,.34h-.95c-.23,0-.38-.17-.43-.36l-1.86-7.23c-.04-.15-.05-.26-.05-.36,0-.13,.07-.28,.27-.28h1.09c.19,0,.31,.13,.36,.35,.82,3.38,1.09,4.52,1.29,5.49,.21-1.03,.43-1.89,1.31-5.22,.07-.24,.14-.41,.41-.41h.92c.21,0,.34,.12,.41,.37,.93,3.39,1.16,4.33,1.35,5.25,.19-.93,.42-2.03,1.21-5.46,.06-.24,.17-.38,.37-.38h.96c.2,0,.28,.14,.28,.26,0,.13-.03,.29-.07,.43l-1.85,7.2c-.06,.21-.2,.34-.42,.34h-.94c-.26,0-.4-.16-.44-.35-.88-3.42-1.13-4.47-1.34-5.27-.22,.82-.49,1.92-1.45,5.28Z"/><path class="cls-1" d="M172.13,114.45h-.98c-.19,0-.3-.1-.3-.35v-7.53c0-.21,.09-.35,.31-.35h1c.22,0,.29,.13,.29,.34v7.54c0,.22-.13,.35-.32,.35Z"/><path class="cls-1" d="M191.27,112.02c0,1.56-.73,2.57-3.08,2.57-.86,0-1.71-.08-2.43-.36-.16-.06-.28-.19-.28-.4,0-.19,.07-.43,.14-.66,.06-.21,.16-.3,.37-.3,.09,0,.31,.06,.42,.09,.63,.2,1.16,.26,1.84,.26,1.21,0,1.36-.49,1.36-.99,0-.55-.14-.82-1.1-1.06l-1-.23c-1.24-.29-1.87-1-1.87-2.36,0-1.5,.76-2.5,2.99-2.5,.6,0,1.51,.06,2.09,.26,.15,.05,.27,.17,.27,.4,0,.13-.05,.43-.1,.67-.05,.16-.14,.27-.3,.27-.1,0-.3-.04-.4-.06-.65-.13-1.24-.16-1.67-.16-.99,0-1.22,.4-1.22,.98,0,.45,.12,.79,1,1.02l1.02,.26c1.5,.42,1.96,.89,1.96,2.31Z"/></g><rect class="cls-1" x="40.26" y="97.66" width="202.95" height="2.83"/></svg>