<?xml version="1.0" encoding="UTF-8"?><svg id="Warstwa_2" xmlns="http://www.w3.org/2000/svg" viewBox="0 0 1649.42 583.63"><defs><style>.cls-1{fill:#fff;}.cls-2{fill:#38c4c0;}.cls-3{isolation:isolate;}</style></defs><g id="Warstwa_1-2"><path class="cls-2" d="m713.76,448.26c1.26,1.29,2.54,2.59,3.82,3.86,41.67,41.02,99.24,66.4,162.82,66.4s121.14-25.38,162.81-66.4c22.1-21.76,39.71-47.92,51.4-77.02h-86.39c-31.28,66.37-98.78,112.33-177.03,112.33-44.06,0-84.72-14.58-117.43-39.16m329.44-316.75c-41.67-41.03-99.24-66.4-162.81-66.4s-121.15,25.37-162.82,66.4c-1.29,1.27-2.56,2.55-3.83,3.86,32.71-24.59,73.38-39.16,117.44-39.16,59.95,0,113.6,26.98,149.49,69.45h91.04c-8.37-12.29-17.93-23.73-28.52-34.14m58.83,243.59c-12.02,30.98-30.55,58.8-53.94,81.83-42.91,42.26-102.21,68.4-167.69,68.4s-124.79-26.13-167.7-68.4c-13.41-13.2-25.22-27.98-35.13-44.02-9.16-11.62-17.03-24.29-23.4-37.81h-35.27c35.02,99.44,131,170.84,243.91,170.84,106.36,0,197.69-63.35,237.2-153.82,2.05-5.59,3.94-11.27,5.64-17.02h-3.62ZM880.4,58.29c65.49,0,124.78,26.14,167.69,68.4,11.99,11.81,22.7,24.87,31.92,38.97h6.87c-44.49-76.46-128.17-127.98-224.08-127.98s-179.61,51.52-224.1,127.98h42.07c9.21-14.1,19.93-27.16,31.92-38.97,42.91-42.25,102.21-68.4,167.7-68.4m-279.24,316.81c35.8,104.28,135.99,179.36,253.98,179.36,97.02,0,181.99-50.76,229.05-126.77-48.88,92.72-146.19,155.94-258.29,155.94-132.22,0-243.89-87.95-279.73-208.53h55ZM825.89,0c104.71,0,196.52,55.16,248.01,138-48.55-67.4-128.43-111.38-218.76-111.38-102.15,0-190.94,56.26-236.18,139.03h-56.26C609.75,67.65,709.91,0,825.89,0"/><path class="cls-1" d="m1600.54,194.1c12.38,0,23.38,4.73,32.98,14.19,9.6,9.46,14.41,20.38,14.41,32.77,0,5.26-.65,10.02-1.93,14.3-.71,1.99-1.59,4.08-2.66,6.3-1.08,2.2-2.46,4.66-4.17,7.35,6.83,8.54,10.24,17.22,10.24,26.05v52.92h-39.91v-58.48h-139.37v58.48h-39.92v-153.88h170.32Zm-130.4,56.98h138.52v-18.56h-138.52v18.56Z"/><path class="cls-1" d="m1211.24,337.74c-6.4-5.27-11.13-11.07-14.19-17.4-3.05-6.32-4.59-13.76-4.59-22.3v-58.26c0-2.28.29-4.91.85-7.9.57-2.98,1.5-6.11,2.78-9.39,2.56-6.83,8.83-13.27,18.78-19.31,9.96-6.05,20.99-9.08,33.09-9.08h114.83c11.94,0,20.73,2.53,26.35,7.58,5.63,5.05,9.5,9.07,11.64,12.06,1.99,2.28,4.05,5.19,6.19,8.74,3.13,5.98,4.69,12.89,4.69,20.71v57.2c0,6.69-1.08,12.53-3.21,17.5-1.14,2.42-2.6,4.87-4.37,7.37-1.78,2.49-4.1,5.16-6.93,8.01-4.98,4.97-10.4,8.74-16.23,11.31-2.84,1.14-5.72,2-8.63,2.56-2.92.57-6.3.85-10.14.85h-119.95c-6.97,0-12.77-.78-17.39-2.35-4.62-1.56-9.14-4.19-13.56-7.89m21.14-28.18h139.37v-77.06h-139.37v77.06Z"/><path class="cls-1" d="m310.34,347.98c-14.37,0-25.22-2.99-32.55-8.96-7.33-5.98-12.84-12.17-16.54-18.58s-5.55-13.52-5.55-21.34v-55.7c0-14.52,3.9-25.33,11.74-32.44,7.82-7.11,14.83-11.71,21.02-13.77,6.19-2.06,13.77-3.09,22.73-3.09h163.07v38.42h-178.65v18.78h178.65v39.7l-178.65.85v17.71h178.65v38.42h-163.92Z"/><path class="cls-1" d="m53.01,290.35c-14.41,0-26.83-4.69-37.32-14.08-10.46-9.39-15.69-20.78-15.69-34.16s5.62-24.72,16.86-34.04c11.25-9.32,25.11-13.98,41.62-13.98h169.9v38.41H42.68v18.14h143.22c14.65,0,27.17,4.77,37.56,14.3,10.4,9.53,15.58,21.14,15.58,34.79s-5.15,24.59-15.47,34.05c-10.31,9.46-22.66,14.19-37.03,14.19H9.82v-38.42h189.32v-19.21H53.01Z"/><polygon class="cls-1" points="854.18 410.96 854.18 266.68 915.08 266.57 942.22 239.43 942.22 192.59 915.2 165.18 751.11 165.18 723.76 192.49 724.05 239.43 751.05 266.86 812.51 266.75 812.51 410.96 812.48 410.96 806.16 454.58 860.89 454.58 854.18 410.96"/><g class="cls-3"><path class="cls-1" d="m543.83,347.98c-6.68,0-12.31-.63-16.86-1.92s-11.41-5.41-20.6-12.38c-9.17-6.97-13.76-17.43-13.76-31.38v-51.86c0-11.68,1.32-20.89,3.94-27.64,2.63-6.77,7.44-12.78,14.41-18.04,3.14-2.42,6.44-4.44,9.93-6.08s6.79-2.74,9.93-3.31c6.41-.86,13.38-1.28,20.91-1.28h162.64v38.42h-181.85v77.04h181.85v38.42h-170.53Z"/></g><polygon class="cls-1" points="951.28 194.1 991.2 194.1 991.2 250.23 1133.98 250.23 1133.98 194.1 1173.9 194.1 1173.9 347.98 1133.98 347.98 1133.98 288.65 991.2 288.65 991.2 347.98 951.28 347.98 951.28 194.1"/></g></svg>