<svg xmlns="http://www.w3.org/2000/svg" viewBox="0 8.859999656677246 594.3599853515625 46.93000030517578" data-asc="0.9052734375"><g fill="#ffffff"><g fill="#ffffff" transform="translate(0, 0)"><path d="M0 45.26L0 9.47L13.50 9.47Q17.07 9.47 18.95 9.81Q21.58 10.25 23.36 11.49Q25.15 12.72 26.23 14.94Q27.32 17.16 27.32 19.82Q27.32 24.39 24.41 27.55Q21.51 30.71 13.92 30.71L4.74 30.71L4.74 45.26L0 45.26M4.74 26.49L13.99 26.49Q18.58 26.49 20.51 24.78Q22.44 23.07 22.44 19.97Q22.44 17.72 21.30 16.13Q20.17 14.53 18.31 14.01Q17.11 13.70 13.89 13.70L4.74 13.70L4.74 26.49ZM32.74 45.26L32.74 19.34L36.69 19.34L36.69 23.27Q38.21 20.51 39.49 19.63Q40.77 18.75 42.31 18.75Q44.53 18.75 46.83 20.17L45.31 24.24Q43.70 23.29 42.09 23.29Q40.65 23.29 39.50 24.16Q38.35 25.02 37.87 26.56Q37.13 28.91 37.13 31.69L37.13 45.26L32.74 45.26ZM47.80 32.30Q47.80 25.10 51.81 21.63Q55.15 18.75 59.96 18.75Q65.31 18.75 68.70 22.25Q72.09 25.76 72.09 31.93Q72.09 36.94 70.59 39.81Q69.09 42.68 66.22 44.26Q63.35 45.85 59.96 45.85Q54.52 45.85 51.16 42.36Q47.80 38.87 47.80 32.30M52.32 32.30Q52.32 37.28 54.49 39.76Q56.67 42.24 59.96 42.24Q63.23 42.24 65.41 39.75Q67.58 37.26 67.58 32.15Q67.58 27.34 65.39 24.87Q63.21 22.39 59.96 22.39Q56.67 22.39 54.49 24.85Q52.32 27.32 52.32 32.30ZM77.22 14.58L77.22 9.47L81.62 9.47L81.62 14.58L77.22 14.58M71.66 55.32L72.49 51.59Q73.80 51.93 74.56 51.93Q75.90 51.93 76.56 51.04Q77.22 50.15 77.22 46.58L77.22 19.34L81.62 19.34L81.62 46.68Q81.62 51.46 80.37 53.34Q78.78 55.79 75.10 55.79Q73.32 55.79 71.66 55.32ZM106.10 36.91L110.64 37.48Q109.57 41.46 106.67 43.65Q103.76 45.85 99.24 45.85Q93.55 45.85 90.22 42.35Q86.89 38.84 86.89 32.52Q86.89 25.98 90.26 22.36Q93.63 18.75 99.00 18.75Q104.20 18.75 107.50 22.29Q110.79 25.83 110.79 32.25Q110.79 32.64 110.77 33.42L91.43 33.42Q91.67 37.70 93.85 39.97Q96.02 42.24 99.27 42.24Q101.68 42.24 103.39 40.97Q105.10 39.70 106.10 36.91M91.67 29.81L106.15 29.81Q105.86 26.54 104.49 24.90Q102.39 22.36 99.05 22.36Q96.02 22.36 93.96 24.39Q91.89 26.42 91.67 29.81ZM116.19 45.26L116.19 9.47L120.58 9.47L120.58 29.88L130.98 19.34L136.67 19.34L126.76 28.96L137.67 45.26L132.25 45.26L123.68 32.01L120.58 34.99L120.58 45.26L116.19 45.26ZM150.76 41.33L151.39 45.21Q149.54 45.61 148.07 45.61Q145.68 45.61 144.36 44.85Q143.04 44.09 142.50 42.86Q141.97 41.63 141.97 37.67L141.97 22.75L138.75 22.75L138.75 19.34L141.97 19.34L141.97 12.92L146.34 10.28L146.34 19.34L150.76 19.34L150.76 22.75L146.34 22.75L146.34 37.92Q146.34 39.79 146.57 40.33Q146.80 40.87 147.33 41.19Q147.85 41.50 148.83 41.50Q149.56 41.50 150.76 41.33ZM153.42 32.30Q153.42 25.10 157.42 21.63Q160.77 18.75 165.58 18.75Q170.92 18.75 174.32 22.25Q177.71 25.76 177.71 31.93Q177.71 36.94 176.21 39.81Q174.71 42.68 171.84 44.26Q168.97 45.85 165.58 45.85Q160.13 45.85 156.77 42.36Q153.42 38.87 153.42 32.30M157.93 32.30Q157.93 37.28 160.11 39.76Q162.28 42.24 165.58 42.24Q168.85 42.24 171.02 39.75Q173.19 37.26 173.19 32.15Q173.19 27.34 171.01 24.87Q168.82 22.39 165.58 22.39Q162.28 22.39 160.11 24.85Q157.93 27.32 157.93 32.30ZM187.65 45.26L179.71 19.34L184.25 19.34L188.38 34.30L189.92 39.87Q190.01 39.45 191.26 34.52L195.39 19.34L199.90 19.34L203.78 34.38L205.08 39.33L206.57 34.33L211.01 19.34L215.28 19.34L207.18 45.26L202.61 45.26L198.49 29.74L197.49 25.32L192.24 45.26L187.65 45.26ZM235.89 42.07Q233.45 44.14 231.19 45.00Q228.93 45.85 226.34 45.85Q222.07 45.85 219.78 43.76Q217.48 41.67 217.48 38.43Q217.48 36.52 218.35 34.95Q219.21 33.37 220.62 32.42Q222.02 31.47 223.78 30.98Q225.07 30.64 227.69 30.32Q233.01 29.69 235.52 28.81Q235.55 27.91 235.55 27.66Q235.55 24.98 234.30 23.88Q232.62 22.39 229.30 22.39Q226.20 22.39 224.72 23.47Q223.24 24.56 222.53 27.32L218.24 26.73Q218.82 23.97 220.17 22.28Q221.51 20.58 224.05 19.67Q226.59 18.75 229.93 18.75Q233.25 18.75 235.33 19.53Q237.40 20.31 238.38 21.50Q239.36 22.68 239.75 24.49Q239.97 25.61 239.97 28.54L239.97 34.40Q239.97 40.53 240.25 42.15Q240.53 43.77 241.36 45.26L236.77 45.26Q236.08 43.90 235.89 42.07M235.52 32.25Q233.13 33.23 228.34 33.91Q225.63 34.30 224.51 34.79Q223.39 35.28 222.78 36.22Q222.17 37.16 222.17 38.31Q222.17 40.06 223.50 41.24Q224.83 42.41 227.39 42.41Q229.93 42.41 231.91 41.30Q233.89 40.19 234.81 38.26Q235.52 36.77 235.52 33.86L235.52 32.25ZM246.78 45.26L246.78 19.34L250.73 19.34L250.73 23.02Q253.59 18.75 258.98 18.75Q261.33 18.75 263.29 19.59Q265.26 20.43 266.24 21.80Q267.21 23.17 267.60 25.05Q267.85 26.27 267.85 29.32L267.85 45.26L263.45 45.26L263.45 29.49Q263.45 26.81 262.94 25.48Q262.43 24.15 261.12 23.35Q259.81 22.56 258.06 22.56Q255.25 22.56 253.21 24.34Q251.17 26.12 251.17 31.10L251.17 45.26L246.78 45.26ZM274.61 14.53L274.61 9.47L279.00 9.47L279.00 14.53L274.61 14.53M274.61 45.26L274.61 19.34L279.00 19.34L279.00 45.26L274.61 45.26ZM303.44 36.91L307.98 37.48Q306.91 41.46 304.00 43.65Q301.10 45.85 296.58 45.85Q290.89 45.85 287.56 42.35Q284.23 38.84 284.23 32.52Q284.23 25.98 287.60 22.36Q290.97 18.75 296.34 18.75Q301.54 18.75 304.83 22.29Q308.13 25.83 308.13 32.25Q308.13 32.64 308.11 33.42L288.77 33.42Q289.01 37.70 291.19 39.97Q293.36 42.24 296.61 42.24Q299.02 42.24 300.73 40.97Q302.44 39.70 303.44 36.91M289.01 29.81L303.49 29.81Q303.20 26.54 301.83 24.90Q299.73 22.36 296.39 22.36Q293.36 22.36 291.30 24.39Q289.23 26.42 289.01 29.81ZM327.95 45.26L327.95 9.47L340.28 9.47Q344.46 9.47 346.66 9.99Q349.73 10.69 351.90 12.55Q354.74 14.94 356.14 18.66Q357.54 22.39 357.54 27.17Q357.54 31.25 356.59 34.40Q355.64 37.55 354.15 39.61Q352.66 41.67 350.89 42.86Q349.12 44.04 346.62 44.65Q344.12 45.26 340.87 45.26L327.95 45.26M332.69 41.04L340.33 41.04Q343.87 41.04 345.89 40.38Q347.90 39.72 349.10 38.53Q350.78 36.84 351.72 34.00Q352.66 31.15 352.66 27.10Q352.66 21.48 350.82 18.47Q348.97 15.45 346.34 14.43Q344.43 13.70 340.21 13.70L332.69 13.70L332.69 41.04ZM380.42 42.07Q377.98 44.14 375.72 45.00Q373.46 45.85 370.87 45.85Q366.60 45.85 364.31 43.76Q362.01 41.67 362.01 38.43Q362.01 36.52 362.88 34.95Q363.75 33.37 365.15 32.42Q366.55 31.47 368.31 30.98Q369.60 30.64 372.22 30.32Q377.54 29.69 380.05 28.81Q380.08 27.91 380.08 27.66Q380.08 24.98 378.83 23.88Q377.15 22.39 373.83 22.39Q370.73 22.39 369.25 23.47Q367.77 24.56 367.07 27.32L362.77 26.73Q363.35 23.97 364.70 22.28Q366.04 20.58 368.58 19.67Q371.12 18.75 374.46 18.75Q377.78 18.75 379.86 19.53Q381.93 20.31 382.91 21.50Q383.89 22.68 384.28 24.49Q384.50 25.61 384.50 28.54L384.50 34.40Q384.50 40.53 384.78 42.15Q385.06 43.77 385.89 45.26L381.30 45.26Q380.62 43.90 380.42 42.07M380.05 32.25Q377.66 33.23 372.88 33.91Q370.17 34.30 369.04 34.79Q367.92 35.28 367.31 36.22Q366.70 37.16 366.70 38.31Q366.70 40.06 368.03 41.24Q369.36 42.41 371.92 42.41Q374.46 42.41 376.44 41.30Q378.42 40.19 379.35 38.26Q380.05 36.77 380.05 33.86L380.05 32.25ZM400.90 41.33L401.54 45.21Q399.68 45.61 398.22 45.61Q395.83 45.61 394.51 44.85Q393.19 44.09 392.65 42.86Q392.11 41.63 392.11 37.67L392.11 22.75L388.89 22.75L388.89 19.34L392.11 19.34L392.11 12.92L396.48 10.28L396.48 19.34L400.90 19.34L400.90 22.75L396.48 22.75L396.48 37.92Q396.48 39.79 396.72 40.33Q396.95 40.87 397.47 41.19Q398.00 41.50 398.97 41.50Q399.71 41.50 400.90 41.33ZM422.12 42.07Q419.68 44.14 417.42 45.00Q415.16 45.85 412.57 45.85Q408.30 45.85 406.01 43.76Q403.71 41.67 403.71 38.43Q403.71 36.52 404.58 34.95Q405.44 33.37 406.85 32.42Q408.25 31.47 410.01 30.98Q411.30 30.64 413.92 30.32Q419.24 29.69 421.75 28.81Q421.78 27.91 421.78 27.66Q421.78 24.98 420.53 23.88Q418.85 22.39 415.53 22.39Q412.43 22.39 410.95 23.47Q409.47 24.56 408.76 27.32L404.47 26.73Q405.05 23.97 406.40 22.28Q407.74 20.58 410.28 19.67Q412.82 18.75 416.16 18.75Q419.48 18.75 421.56 19.53Q423.63 20.31 424.61 21.50Q425.59 22.68 425.98 24.49Q426.20 25.61 426.20 28.54L426.20 34.40Q426.20 40.53 426.48 42.15Q426.76 43.77 427.59 45.26L423.00 45.26Q422.31 43.90 422.12 42.07M421.75 32.25Q419.36 33.23 414.58 33.91Q411.87 34.30 410.74 34.79Q409.62 35.28 409.01 36.22Q408.40 37.16 408.40 38.31Q408.40 40.06 409.73 41.24Q411.06 42.41 413.62 42.41Q416.16 42.41 418.14 41.30Q420.12 40.19 421.04 38.26Q421.75 36.77 421.75 33.86L421.75 32.25ZM473.00 32.71L477.73 33.91Q476.25 39.75 472.38 42.81Q468.51 45.87 462.92 45.87Q457.13 45.87 453.50 43.52Q449.88 41.16 447.99 36.69Q446.09 32.23 446.09 27.10Q446.09 21.51 448.23 17.35Q450.37 13.18 454.31 11.02Q458.25 8.86 462.99 8.86Q468.36 8.86 472.02 11.60Q475.68 14.33 477.12 19.29L472.46 20.39Q471.22 16.48 468.85 14.70Q466.48 12.92 462.89 12.92Q458.76 12.92 455.99 14.89Q453.22 16.87 452.10 20.20Q450.98 23.54 450.98 27.08Q450.98 31.64 452.31 35.05Q453.64 38.45 456.45 40.14Q459.25 41.82 462.52 41.82Q466.50 41.82 469.26 39.53Q472.02 37.23 473.00 32.71ZM500.76 36.91L505.30 37.48Q504.22 41.46 501.32 43.65Q498.41 45.85 493.90 45.85Q488.21 45.85 484.88 42.35Q481.54 38.84 481.54 32.52Q481.54 25.98 484.91 22.36Q488.28 18.75 493.65 18.75Q498.85 18.75 502.15 22.29Q505.44 25.83 505.44 32.25Q505.44 32.64 505.42 33.42L486.08 33.42Q486.33 37.70 488.50 39.97Q490.67 42.24 493.92 42.24Q496.34 42.24 498.05 40.97Q499.76 39.70 500.76 36.91M486.33 29.81L500.81 29.81Q500.51 26.54 499.15 24.90Q497.05 22.36 493.70 22.36Q490.67 22.36 488.61 24.39Q486.55 26.42 486.33 29.81ZM510.82 45.26L510.82 19.34L514.77 19.34L514.77 23.02Q517.63 18.75 523.02 18.75Q525.37 18.75 527.33 19.59Q529.30 20.43 530.27 21.80Q531.25 23.17 531.64 25.05Q531.88 26.27 531.88 29.32L531.88 45.26L527.49 45.26L527.49 29.49Q527.49 26.81 526.98 25.48Q526.46 24.15 525.16 23.35Q523.85 22.56 522.09 22.56Q519.29 22.56 517.25 24.34Q515.21 26.12 515.21 31.10L515.21 45.26L510.82 45.26ZM548.22 41.33L548.85 45.21Q547.00 45.61 545.53 45.61Q543.14 45.61 541.82 44.85Q540.50 44.09 539.97 42.86Q539.43 41.63 539.43 37.67L539.43 22.75L536.21 22.75L536.21 19.34L539.43 19.34L539.43 12.92L543.80 10.28L543.80 19.34L548.22 19.34L548.22 22.75L543.80 22.75L543.80 37.92Q543.80 39.79 544.03 40.33Q544.26 40.87 544.79 41.19Q545.31 41.50 546.29 41.50Q547.02 41.50 548.22 41.33ZM570.26 36.91L574.80 37.48Q573.73 41.46 570.83 43.65Q567.92 45.85 563.40 45.85Q557.71 45.85 554.38 42.35Q551.05 38.84 551.05 32.52Q551.05 25.98 554.42 22.36Q557.79 18.75 563.16 18.75Q568.36 18.75 571.66 22.29Q574.95 25.83 574.95 32.25Q574.95 32.64 574.93 33.42L555.59 33.42Q555.83 37.70 558.01 39.97Q560.18 42.24 563.43 42.24Q565.84 42.24 567.55 40.97Q569.26 39.70 570.26 36.91M555.83 29.81L570.31 29.81Q570.02 26.54 568.65 24.90Q566.55 22.36 563.21 22.36Q560.18 22.36 558.12 24.39Q556.05 26.42 555.83 29.81ZM580.27 45.26L580.27 19.34L584.23 19.34L584.23 23.27Q585.74 20.51 587.02 19.63Q588.31 18.75 589.84 18.75Q592.07 18.75 594.36 20.17L592.85 24.24Q591.24 23.29 589.62 23.29Q588.18 23.29 587.04 24.16Q585.89 25.02 585.40 26.56Q584.67 28.91 584.67 31.69L584.67 45.26L580.27 45.26Z"/></g></g></svg>