<svg xmlns="http://www.w3.org/2000/svg" xmlns:xlink="http://www.w3.org/1999/xlink" width="715" height="349" viewBox="0 0 156.92 153.418">
  <defs>
    <clipPath id="clip-path">
      <rect id="Rectangle_3481" data-name="Rectangle 3481" width="156.92" height="153.418" fill="none"/>
    </clipPath>
    <clipPath id="clip-path-3">
      <rect id="Rectangle_3464" data-name="Rectangle 3464" width="79.121" height="10.932" fill="none"/>
    </clipPath>
    <clipPath id="clip-path-4">
      <path id="Path_13248" data-name="Path 13248" d="M216.607,411.562l-.352.043a.089.089,0,0,0,.01.177h.01c.231-.027.354-.043.354-.043a.089.089,0,0,0-.012-.177h-.011" transform="translate(-216.176 -411.561)" fill="none"/>
    </clipPath>
    <linearGradient id="linear-gradient" x1="-125.164" y1="109.483" x2="-124.585" y2="109.483" gradientUnits="objectBoundingBox">
      <stop offset="0" stop-color="#dae3fe"/>
      <stop offset="1" stop-color="#e9effd"/>
    </linearGradient>
    <clipPath id="clip-path-6">
      <rect id="Rectangle_3467" data-name="Rectangle 3467" width="22.961" height="7.271" fill="none"/>
    </clipPath>
    <clipPath id="clip-path-7">
      <path id="Path_13267" data-name="Path 13267" d="M380.692,124.3c-.147.225-.289.455-.423.683a.2.2,0,1,0,.343.2c.131-.223.27-.447.414-.668a.2.2,0,0,0-.333-.217" transform="translate(-380.242 -124.207)" fill="none"/>
    </clipPath>
    <linearGradient id="linear-gradient-2" x1="-136.992" y1="106.683" x2="-136.632" y2="106.683" xlink:href="#linear-gradient"/>
    <clipPath id="clip-path-9">
      <rect id="Rectangle_3470" data-name="Rectangle 3470" width="64.896" height="9.749" fill="none"/>
    </clipPath>
    <clipPath id="clip-path-10">
      <path id="Path_13296" data-name="Path 13296" d="M86.865,261.839a25.165,25.165,0,0,1,4.043-5.214l1.854-2.163,5.407-.824a5.169,5.169,0,0,1,.638,1.855,4.6,4.6,0,0,0,.421,1.375l.01.018.019.008c.579.234,1.158.481,1.721.733.529.237,1.029.462,1.66.786.491.253.979.523,1.45.8a4.02,4.02,0,0,0-1.14.609,5.475,5.475,0,0,0-1.252,1.521l-.157.246c-.222.343-.447.72-.689,1.151-.047.084-.085.164-.119.235-.138.288-.207.433-.546.332-.62-.184-1.244-.421-1.847-.649-.314-.119-.64-.243-.96-.356l-.059-.022A5.088,5.088,0,0,0,95.7,261.9a1.548,1.548,0,0,0-.746.171,7.61,7.61,0,0,0-.975.676c-.183.141-.355.274-.529.395-.7.489-1.422.992-2.133,1.495-.616-1.695-2.111-2.637-4.448-2.8m11.324-8.318-5.485.836-1.878,2.191a25.353,25.353,0,0,0-4.1,5.312l-.047.08.092.006c2.372.145,3.874,1.088,4.466,2.8l.024.071.061-.043c.731-.517,1.469-1.034,2.194-1.537.176-.122.358-.262.533-.4a7.5,7.5,0,0,1,.959-.666,3.027,3.027,0,0,1,2.275.217l.06.021c.319.114.643.237.957.356.6.229,1.23.467,1.854.652.432.128.542-.1.681-.391.035-.073.071-.149.116-.228.241-.43.465-.8.686-1.146.054-.083.106-.165.158-.246a5.323,5.323,0,0,1,1.226-1.492,3.94,3.94,0,0,1,1.223-.629l.119-.038-.107-.064c-.506-.306-1.031-.6-1.562-.872-.634-.326-1.135-.551-1.665-.789-.558-.25-1.132-.495-1.706-.727a4.534,4.534,0,0,1-.4-1.326,5.235,5.235,0,0,0-.672-1.925l-.02-.032Z" transform="translate(-86.673 -253.515)" fill="none"/>
    </clipPath>
    <clipPath id="clip-path-12">
      <path id="Path_13346" data-name="Path 13346" d="M89.728,227.478c-1.628-6.428-5.882-7.785-6.445-7.937a15.556,15.556,0,0,1,3.168-4.9,3.86,3.86,0,0,1,4.039-1.078,7.347,7.347,0,0,1,3.866,2.817c.926,1.476,1.751,9.683,1.665,10.124-.036.044-1.07,1.268-3.79,1.267a11.618,11.618,0,0,1-2.5-.3m-3.361-12.91a15.568,15.568,0,0,0-3.211,4.994l-.02.06.062.013c.047.01,4.718,1.089,6.429,7.9l.008.034.034.008a11.81,11.81,0,0,0,2.574.307,6.85,6.85,0,0,0,2.442-.4,3.518,3.518,0,0,0,1.408-.889H96.1l.021-.033c.144-.258-.76-8.792-1.669-10.243a7.468,7.468,0,0,0-3.927-2.864,3.972,3.972,0,0,0-4.158,1.109" transform="translate(-83.135 -213.267)" fill="none"/>
    </clipPath>
    <clipPath id="clip-path-14">
      <rect id="Rectangle_3479" data-name="Rectangle 3479" width="8.781" height="8.786" fill="none"/>
    </clipPath>
  </defs>
  <g id="Group_6929" data-name="Group 6929" transform="translate(0 0)">
    <g id="Group_6928" data-name="Group 6928" transform="translate(0 0)" clip-path="url(#clip-path)">
      <g id="Group_6902" data-name="Group 6902">
        <g id="Group_6901" data-name="Group 6901" clip-path="url(#clip-path)">
          <g id="Group_6900" data-name="Group 6900" transform="translate(51.082 135.35)" opacity="0.15">
            <g id="Group_6899" data-name="Group 6899">
              <g id="Group_6898" data-name="Group 6898" clip-path="url(#clip-path-3)">
                <path id="Path_13228" data-name="Path 13228" d="M241.815,436.556c0-3.019-17.712-5.466-39.56-5.466s-39.56,2.447-39.56,5.466,17.712,5.466,39.56,5.466,39.56-2.447,39.56-5.466" transform="translate(-162.694 -431.09)"/>
              </g>
            </g>
          </g>
          <path id="Path_13229" data-name="Path 13229" d="M288.391,393.805a35.912,35.912,0,0,0,3.855.555c3.533.3,8.459,1.079,11.622-.929,2.263-1.437,2.245-3.489,1.372-5.669a16.734,16.734,0,0,0-1.225-2.9q-.957-1.5-2.035-2.927a62.111,62.111,0,0,0-4.528-5.094c-2.868-3.029-8.889-5.219-12.453-6.958-2.823-1.377-12.445-5.326-12.681-4.814-.674,1.464-.144,2.817-.439,4.4q-.967,5.193-1.934,10.387a20.8,20.8,0,0,0-.253,8.672c.56,2.422,3.867,1.7,5.808,1.973a30.711,30.711,0,0,1,4.324,1.066c2.769.8,5.647,1.668,8.567,2.24" transform="translate(-184.77 -250.415)" fill="#41efde"/>
          <path id="Path_13230" data-name="Path 13230" d="M201.363,367.224c-6.163,3.488-16.179,8.665-21.354,13.438-2.006,1.851-4,3.4-3.659,6.454a6.665,6.665,0,0,0,3.911,5.228,15.108,15.108,0,0,0,5.86.974,48.959,48.959,0,0,0,12.676-1.663c1.05-.268,11.818-1.881,11.783-1.318.542-8.489-.487-16.907-.3-25.38a17.77,17.77,0,0,0-8.915,2.268" transform="translate(-120.955 -250.368)" fill="#41efde"/>
          <path id="Path_13231" data-name="Path 13231" d="M285.661,410.464a3.489,3.489,0,0,0,1.329-.591c.488-.377.821-.925,1.309-1.3,1.817-1.4,3.284.4,4.656,1.413,1.316.975,2.89,1.565,4.178,2.577s2.291,2.691,1.791,4.251c-.447,1.395-2.641-.241-3.252-.664a8.161,8.161,0,0,0-4.98-1.6,20.291,20.291,0,0,0-2.035.294c-1.955.306-4.651.625-6.5-.191-1.318-.581-5.485-2.759-1.864-3.322l4.362-.678c.335-.052.676-.107,1.007-.188" transform="translate(-191.297 -279.938)" fill="#f9c59b"/>
          <path id="Path_13232" data-name="Path 13232" d="M246.65,415.156a9.928,9.928,0,0,0,3.927,1.007c.125.7-1,1.479-1.375,2.075a3.583,3.583,0,0,0-.568,2.9c-3.788-.691-6.983-3.317-10.885-3.88a19.318,19.318,0,0,0-5.274-.038c-1.353.178-3.446,1.25-4.708.386a1.426,1.426,0,0,1-.5-1.818,1.67,1.67,0,0,1,1.081-.69,30.234,30.234,0,0,0,10.681-4.628c.976-.678,2.919-.733,3.75.264.486.583.6,1.389,1.067,2.019a8.312,8.312,0,0,0,1.824,1.791,8.419,8.419,0,0,0,.981.609" transform="translate(-155.803 -281.255)" fill="#ffd6b8"/>
          <path id="Path_13233" data-name="Path 13233" d="M237.311,272.019c.9,11.511,6.882,23.811,5.9,29.055,6.576,3.332,15.391.84,15.391.84-1.575-.52,5.05-17.426,5.909-29.434-8.48-4.737-16.409-5.606-27.2-.462" transform="translate(-162.802 -184.217)" fill="#66126c"/>
          <path id="Path_13234" data-name="Path 13234" d="M180.623,400.238l3.016-2.565c-.838-.589-4.109.435-5.4,1.068a.206.206,0,0,0,.083.389c1.256.069,2.3-.019,2.305,1.108" transform="translate(-122.197 -272.694)" fill="#ffd6b8"/>
          <path id="Path_13235" data-name="Path 13235" d="M178.36,403.972l-.489.706-1.5,2.208c-1.327-.7-2.322-2.605-1.486-3.79a.229.229,0,0,1,.415.122c.057,1.731,1.012,2.9,3.064.754" transform="translate(-119.763 -276.469)" fill="#ffd6b8"/>
          <path id="Path_13236" data-name="Path 13236" d="M177.612,400.014a27.34,27.34,0,0,1-5.251,5.4c-3.122,2.128-5,.551-4.456-.13s2.932-1.095,4.32-3.006,4.889-7.184,5.387-2.268" transform="translate(-115.123 -273.023)" fill="#ffd6b8"/>
          <path id="Path_13237" data-name="Path 13237" d="M193.314,317.71c2.805-4.744,7.58-11.176,9.839-13,1.208-14.808.722-22.031,4.06-25.065,2.052,4.358,2.648,5.674,2.933,10.273a49.118,49.118,0,0,1-2.933,17.635c-3.979,4.944-8.228,9.078-12.788,11.685Z" transform="translate(-132.619 -191.847)" fill="#ffd6b8"/>
          <path id="Path_13238" data-name="Path 13238" d="M369.338,402.071l-2.791-2.375c.839-.589,3.884.244,5.179.878a.206.206,0,0,1-.083.389c-1.256.069-2.3-.019-2.305,1.108" transform="translate(-251.462 -274.066)" fill="#ffd6b8"/>
          <path id="Path_13239" data-name="Path 13239" d="M374.519,405.442l.489.706,1.5,2.208c1.327-.7,2.321-2.605,1.486-3.79a.229.229,0,0,0-.415.122c-.057,1.731-1.012,2.9-3.064.754" transform="translate(-256.931 -277.477)" fill="#ffd6b8"/>
          <path id="Path_13240" data-name="Path 13240" d="M363.669,402.381a23.027,23.027,0,0,0,4.883,5.072c3.121,2.127,5,.55,4.456-.13s-2.933-1.095-4.32-3.006-4.521-6.851-5.019-1.935" transform="translate(-249.487 -274.595)" fill="#ffd6b8"/>
          <path id="Path_13241" data-name="Path 13241" d="M331.007,318.729c-2.805-4.744-7.268-10.046-9.527-11.867-1.208-14.808-.657-22.709-3.995-25.744-2.052,4.358-3.076,5.761-2.933,10.273a49.122,49.122,0,0,0,2.933,17.635c3.979,4.944,8.421,9.512,12.981,12.119Z" transform="translate(-215.778 -192.855)" fill="#ffd6b8"/>
          <path id="Path_13242" data-name="Path 13242" d="M270.122,244.475l-1.255,9.1a.214.214,0,0,1-.023.061c-.165.356,4.448,3.156,7.672-.619l-1.82-8.76Z" transform="translate(-184.432 -167.567)" fill="#ffd6b8"/>
          <path id="Path_13243" data-name="Path 13243" d="M261.731,231.586s.387-3.249-.883-3.733-2.815.27-1.959,2.365c1.065,2.605,2.842,1.369,2.842,1.369" transform="translate(-177.436 -156.217)" fill="#ffd6b8"/>
          <path id="Path_13244" data-name="Path 13244" d="M290.231,231.586s-.387-3.249.883-3.733,2.815.27,1.96,2.365c-1.065,2.605-2.842,1.369-2.842,1.369" transform="translate(-199.069 -156.217)" fill="#ffd6b8"/>
          <path id="Path_13245" data-name="Path 13245" d="M261.8,215.618c3.76-3.346,7.345-3.774,10.678,0-.213,6.816-.566,13.364-4.927,12.906-4.518.828-5.078-6.317-5.752-12.906" transform="translate(-179.603 -146.087)" fill="#ffd6b8"/>
          <path id="Path_13246" data-name="Path 13246" d="M271.452,220.263c-.007-.323-.006-.648.013-.975a.327.327,0,0,1,.05-.186,6.032,6.032,0,0,1,1.418-.069,105.909,105.909,0,0,1-1.723,12.853,1.6,1.6,0,0,1-1.043.785,6.713,6.713,0,0,1-2.223.352,6.322,6.322,0,0,1-3.681-.923c-1.364-.967-2.018-8.572-2.243-9.551a17.437,17.437,0,0,1-.3-3.48.184.184,0,0,1,.019-.108.179.179,0,0,1,.113-.062c.754-.185,1.114-.121,1.075.594a17.073,17.073,0,0,0,.019,2.251,29.949,29.949,0,0,0,.588,4.046c.229,1.058.486,1.935,1.606,2.328a2.779,2.779,0,0,0,1.766-.245c1.062-.321,1.894.525,2.966.263,2.012-.493,1.528-3.679,1.62-5.227.053-.893-.024-1.766-.043-2.646" transform="translate(-179.55 -150.111)"/>
          <path id="Path_13247" data-name="Path 13247" d="M267.809,196.989A2.979,2.979,0,0,1,270,199.183c.348.976,1.422,1.67,1.619,2.7a1.558,1.558,0,0,1,.014.353,15.319,15.319,0,0,1-.587,3.134c-.093.367-.125.517-.6.426a.664.664,0,0,1-.572-.529c-.136-.431-.087-.911-.419-1.265a2.085,2.085,0,0,0-1.79-.633c-.242.036-.475.116-.713.169-1.356.3-2.836-.276-4.133.221a2.7,2.7,0,0,0-1.606,1.8c-.036.143-.4,1.927-.872,1.034a12.386,12.386,0,0,1-1.064-4.132c-.132-1.123-.051-2.438.849-3.123,1.043-.794,2.584-.3,3.8-.782.844-.332,1.454-1.1,2.285-1.457a2.506,2.506,0,0,1,1.591-.111" transform="translate(-177.839 -135.086)"/>
        </g>
      </g>
      <g id="Group_6904" data-name="Group 6904" transform="translate(67.873 129.218)">
        <g id="Group_6903" data-name="Group 6903" clip-path="url(#clip-path-4)">
          <rect id="Rectangle_3466" data-name="Rectangle 3466" width="0.542" height="0.221" transform="translate(-0.005)" fill="url(#linear-gradient)"/>
        </g>
      </g>
      <g id="Group_6909" data-name="Group 6909">
        <g id="Group_6908" data-name="Group 6908" clip-path="url(#clip-path)">
          <g id="Group_6907" data-name="Group 6907" transform="translate(125.452 98.509)" opacity="0.15">
            <g id="Group_6906" data-name="Group 6906">
              <g id="Group_6905" data-name="Group 6905" clip-path="url(#clip-path-6)">
                <path id="Path_13249" data-name="Path 13249" d="M422.524,317.387c0-2.008-5.14-3.635-11.48-3.635s-11.481,1.628-11.481,3.635,5.14,3.635,11.481,3.635,11.48-1.628,11.48-3.635" transform="translate(-399.563 -313.751)"/>
              </g>
            </g>
          </g>
          <path id="Path_13250" data-name="Path 13250" d="M434.19,71.689l.038,0a.7.7,0,0,0,.423-.261c.984-1.073.858-2.6.841-3.956a19.348,19.348,0,0,1,.091-2.137c.014-.144-.011-.509-.254-.406-.13.056-.271.475-.342.6a10.3,10.3,0,0,0-.7,1.342,11.846,11.846,0,0,0-.333,1.775c-.185.852-.882,1.9-.3,2.692a.743.743,0,0,0,.536.356" transform="translate(-297.342 -44.53)" fill="#f9c59b"/>
          <path id="Path_13251" data-name="Path 13251" d="M406.578,105.078c-2.605-4.87-4.311-8.061-5.344-13.553,2.4-4.07,5.86-7.381,10.413-10.507l.877,1.373c-3,3.125-5.128,6.371-7.957,9.133,1.868,1.536,3.049,4.154,4.151,5.99Z" transform="translate(-275.258 -55.581)" fill="#f9c59b"/>
          <path id="Path_13252" data-name="Path 13252" d="M440.651,71.76l-.038,0a.7.7,0,0,1-.424-.261,2.159,2.159,0,0,1-.664-1.371c.019-.6-.128-1.188-.147-1.788-.009-.284,0-.568.01-.852q.034-1.036.068-2.071c.01-.3.185-.57.435-.269a1.791,1.791,0,0,1,.305.759c.148.751.221,1.516.371,2.267a6.334,6.334,0,0,0,.559,1.692,1.6,1.6,0,0,1,.287.745,1.237,1.237,0,0,1-.229.8.743.743,0,0,1-.536.356" transform="translate(-301.425 -44.601)" fill="#f9c59b"/>
          <path id="Path_13253" data-name="Path 13253" d="M449.289,103.753c2.605-4.87,3.8-7.621,4.835-13.113-2.4-4.07-5.888-7.053-10.44-10.179L443.1,82.2c3,3.125,4.862,5.679,7.691,8.442-1.868,1.536-2.646,3.523-3.756,5.566Z" transform="translate(-303.98 -55.199)" fill="#f9c59b"/>
          <path id="Path_13254" data-name="Path 13254" d="M429.964,310.291l.243,3.748,2.185.179-.071-4.641Z" transform="translate(-294.967 -212.379)" fill="#f9c59b"/>
          <path id="Path_13255" data-name="Path 13255" d="M429.7,321.557c.778-.449.371-1.641.059-2.249-.441-.861-1.155-1.628-2.216-1.368-.843.207-4.177,2.986-2.37,3.644a2.128,2.128,0,0,0,.715.088l3.165.029a1.26,1.26,0,0,0,.647-.144" transform="translate(-291.316 -218.081)" fill="#f9c59b"/>
          <path id="Path_13256" data-name="Path 13256" d="M447.2,252.541l-3.47,1.432-.981-1.631,4.21-1.953Z" transform="translate(-303.74 -171.774)" fill="#f9c59b"/>
          <path id="Path_13257" data-name="Path 13257" d="M445.5,210c-1.33-1.976-5.041-4.279-9.089-6.629a14.723,14.723,0,0,1-4.3-3.78l-1.857-2.415-4.074.483-3.168-1.178a7.717,7.717,0,0,0-1.133,1.559,8.983,8.983,0,0,0-1.156,5.363l.289,2.991q.439,4.544.879,9.088.157,1.624.314,3.248c.2,2.073-.089,4.23-.038,6.317q.053,2.182.26,4.356c.1,1.056-.042,3.129.791,3.943.163.159,4.048,2.069,3.613-3.646-.171-2.241-.218-4.993-.312-7.239a8.6,8.6,0,0,0-.34-2.736c-.086-.231-.243-.51-.375-.792.9-5.655.724-11.582,2.432-12.014,1.631-.659,5.778,1.815,9.481,2.795-4.5,1.484-8.531,3.1-7.864,5.228l.76,1.732c5.33-.221,15.414-4.6,14.885-6.675" transform="translate(-288.601 -134.794)" fill="#66126c"/>
          <path id="Path_13258" data-name="Path 13258" d="M439.124,256.038a2.713,2.713,0,0,1-.083.6,5.413,5.413,0,0,1-.407,1.006,31.309,31.309,0,0,0-1.507,3.54,1.965,1.965,0,0,1-.37.74c-.254.268-.712.345-.847-.073a1.442,1.442,0,0,1-.032-.523q.1-1.726.206-3.452c.035-.592.069-1.183.106-1.775a6.409,6.409,0,0,1,.1-1.461c.246-.787.914-.565,1.468-.47a1.352,1.352,0,0,1,1.188.824,2.718,2.718,0,0,1,.177,1.047" transform="translate(-299.019 -174.295)" fill="#f9c59b"/>
          <path id="Path_13259" data-name="Path 13259" d="M414.694,131.979c.692,8.661,3.62,16.254,3.129,20.29a11.92,11.92,0,0,0,9.371.5c-.332-6.834,4.462-13.8,2.354-21.814a24.111,24.111,0,0,0-5.454-.308l-4.231.532a30.438,30.438,0,0,0-5.169.8" transform="translate(-284.492 -89.601)" fill="#f9c84e"/>
          <path id="Path_13260" data-name="Path 13260" d="M457.323,131.974c-.947-2.889-1.849-4.547-2.464-7.916a17.86,17.86,0,0,1,1.722-3.076.064.064,0,0,1,.11.014,15.577,15.577,0,0,0,3.435,4.969.1.1,0,0,1,.024.1,31.986,31.986,0,0,1-2.826,5.913" transform="translate(-312.046 -82.98)" fill="#f9c84e"/>
          <path id="Path_13261" data-name="Path 13261" d="M411.021,133.029c.845-2.921,1.693-4.354,2.189-7.742a22.605,22.605,0,0,0-2.222-3.525,15.068,15.068,0,0,1-3.278,5.143c.863,2.444,2.017,3.853,3.31,6.125" transform="translate(-279.702 -83.532)" fill="#f9c84e"/>
          <path id="Path_13262" data-name="Path 13262" d="M432.507,118.516l-.666,4.829c-.2.133,2.3,1.72,4.044-.316l-.961-4.628Z" transform="translate(-296.248 -81.226)" fill="#f9c59b"/>
          <path id="Path_13263" data-name="Path 13263" d="M428.075,111.707s.2-1.716-.466-1.972-1.487.143-1.035,1.249c.562,1.376,1.5.723,1.5.723" transform="translate(-292.552 -75.23)" fill="#f9c59b"/>
          <path id="Path_13264" data-name="Path 13264" d="M443.131,111.707s-.2-1.716.466-1.972,1.487.143,1.035,1.249c-.562,1.376-1.5.723-1.5.723" transform="translate(-303.98 -75.23)" fill="#f9c59b"/>
          <path id="Path_13265" data-name="Path 13265" d="M428.112,103.272c1.986-1.767,3.88-1.993,5.641,0-.112,3.6-.23,6.83-2.6,6.818-2.244.035-2.683-3.338-3.039-6.818" transform="translate(-293.697 -69.879)" fill="#f9c59b"/>
          <path id="Path_13266" data-name="Path 13266" d="M431.02,94.912a1.607,1.607,0,0,1,.7.27,1.192,1.192,0,0,1,.52,1c-.009.172-.057.388.072.528.109.118.344.174.474.29a1.04,1.04,0,0,1,.268.936,2.233,2.233,0,0,1-.332.892,1.354,1.354,0,0,0-.246.8c-.02.36-.063.715-.1,1.073-.023.239.054.553-.122.755a.116.116,0,0,1-.155.024.171.171,0,0,1-.042-.128,18.61,18.61,0,0,0-.115-2.732.3.3,0,0,0-.074-.163.317.317,0,0,0-.117-.064,4.044,4.044,0,0,1-.724-.223c-.163-.093-.2-.216-.392-.109a1.429,1.429,0,0,1-.832.17.829.829,0,0,0-.518.027.969.969,0,0,0-.251.321,2.12,2.12,0,0,1-1.555.656.087.087,0,0,0-.09.1c-.016.128-.027.257-.038.385q-.047.558-.094,1.116c-.012.144.007.277.006.415a.19.19,0,0,1-.051.143c-.014.013-.147.063-.15.036l-.19-1.6c-.07-.591-.568-1.041-.716-1.613a1.036,1.036,0,0,1,.3-1.1c.157-.111.362-.163.477-.317a1.116,1.116,0,0,0,.141-.417,1.549,1.549,0,0,1,1.345-1.141c.389-.03.625.233,1.014.021A2.706,2.706,0,0,1,430.6,94.9a2.03,2.03,0,0,1,.416.017" transform="translate(-292.329 -65.098)"/>
        </g>
      </g>
      <g id="Group_6911" data-name="Group 6911" transform="translate(119.385 38.997)">
        <g id="Group_6910" data-name="Group 6910" clip-path="url(#clip-path-7)">
          <rect id="Rectangle_3469" data-name="Rectangle 3469" width="0.871" height="1.073" transform="translate(-0.028)" fill="url(#linear-gradient-2)"/>
        </g>
      </g>
      <g id="Group_6916" data-name="Group 6916">
        <g id="Group_6915" data-name="Group 6915" clip-path="url(#clip-path)">
          <g id="Group_6914" data-name="Group 6914" transform="translate(0 103.88)" opacity="0.15">
            <g id="Group_6913" data-name="Group 6913">
              <g id="Group_6912" data-name="Group 6912" clip-path="url(#clip-path-9)">
                <path id="Path_13268" data-name="Path 13268" d="M0,335.733c0-2.692,14.527-4.875,32.448-4.875S64.9,333.04,64.9,335.733s-14.528,4.875-32.448,4.875S0,338.425,0,335.733" transform="translate(0 -330.858)"/>
              </g>
            </g>
          </g>
          <path id="Path_13269" data-name="Path 13269" d="M160.337,286.019c-.092.991-.707,11.143-.869,15.327-.027.69.981.77,1.626,1.215a25.737,25.737,0,0,0,3,1.5c.066.031.141.072.153.144.021.126-.151.183-.279.189a26.354,26.354,0,0,1-3.965-.4l-2.635-.293a.579.579,0,0,1-.32-.319,1.566,1.566,0,0,1,.295-1.1c.052-.089.1-.178.149-.271a2.561,2.561,0,0,0,.147-1.478l-.158-1.785-.4-4.5q-.167-1.88-.333-3.759-.044-.5-.088-.995a3.535,3.535,0,0,1,.392-1.957l.4-.761c1.057-.424,1.338-1.1,2.346-1.691,0,0,.543.886.538.938" transform="translate(-107.464 -195.574)" fill="#ffd6b8"/>
          <path id="Path_13270" data-name="Path 13270" d="M115.419,269.3l3.552-4.746a98.729,98.729,0,0,1,12.04,6.065,1.4,1.4,0,0,1,.78.9l.03.1a22.624,22.624,0,0,1-2.922,1.832l.121-.3a95.95,95.95,0,0,1-13.6-3.853" transform="translate(-79.181 -181.49)" fill="#ffd6b8"/>
          <path id="Path_13271" data-name="Path 13271" d="M22.7,290.164a.347.347,0,0,1-.008-.187c.211-1.276,1.851-2.162,2.745-2.927.635-.544,1.275-1.086,1.874-1.67.995-.969,4.379-5.86,5.759-7.469a11.114,11.114,0,0,1,5.1-3.819,69.943,69.943,0,0,1,9.979-12.009l2.5,5.983-8.909,6.944q-2.262,1.892-4.505,3.8c-1.968,1.675-3.943,3.342-5.9,5.032a16.635,16.635,0,0,0-2.5,2.148c-.373.481-.224.813-.419,1.311-.164.42-.577.467-.958.581a1.324,1.324,0,0,0-.97.785,2.745,2.745,0,0,1-1.278,1.551,2.631,2.631,0,0,1-1.452.265c-.247-.028-.951-.061-1.057-.323" transform="translate(-15.564 -179.797)" fill="#ffd6b8"/>
          <path id="Path_13272" data-name="Path 13272" d="M104.43,259.368a3.97,3.97,0,0,0-1.24.638,6.314,6.314,0,0,0-1.4,1.753c-.242.375-.469.759-.688,1.148-.231.412-.251.736-.731.593-.947-.281-1.878-.675-2.809-1.007a3.165,3.165,0,0,0-2.381-.235,17.545,17.545,0,0,0-1.5,1.067q-1.1.763-2.194,1.537c-.615-1.785-2.157-2.7-4.515-2.84a25.16,25.16,0,0,1,4.1-5.3l1.864-2.176,5.465-.833c.789,1.3.534,2.237,1.08,3.266.694.28,1.277.534,1.723.734.542.243,1.031.462,1.663.788s1.175.638,1.559.87" transform="translate(-59.669 -174.053)"/>
          <path id="Path_13273" data-name="Path 13273" d="M91.231,264.747c-.591-1.714-2.094-2.657-4.466-2.8l-.092-.006.047-.08a25.353,25.353,0,0,1,4.105-5.312l1.877-2.192,5.486-.835.037-.006.019.032a5.237,5.237,0,0,1,.672,1.925,4.547,4.547,0,0,0,.4,1.326c.574.232,1.148.477,1.706.727.53.238,1.031.462,1.665.789.531.273,1.057.566,1.562.872l.107.064-.119.038a3.935,3.935,0,0,0-1.223.63,5.313,5.313,0,0,0-1.226,1.492c-.052.081-.1.163-.158.246-.22.341-.445.716-.686,1.146-.045.08-.081.155-.116.228-.139.29-.249.519-.68.391-.624-.185-1.25-.422-1.855-.652-.314-.119-.639-.242-.957-.356l-.06-.021A3.029,3.029,0,0,0,95,262.174a7.548,7.548,0,0,0-.959.666c-.176.136-.357.276-.533.4-.725.5-1.463,1.02-2.193,1.537l-.062.043Zm6.085-2.462.06.021c.32.114.645.237.959.357.6.229,1.226.465,1.847.649.339.1.408-.044.546-.332.034-.071.073-.152.119-.235.242-.432.468-.809.689-1.152l.157-.245a5.481,5.481,0,0,1,1.252-1.522,4.027,4.027,0,0,1,1.14-.608c-.471-.281-.958-.551-1.45-.8-.632-.325-1.131-.549-1.66-.787-.563-.252-1.142-.5-1.721-.733l-.019-.008-.009-.018a4.587,4.587,0,0,1-.421-1.376,5.162,5.162,0,0,0-.638-1.855l-5.407.824-1.854,2.164a25.181,25.181,0,0,0-4.043,5.213c2.337.164,3.832,1.107,4.448,2.8.711-.5,1.428-1.005,2.133-1.494.174-.121.346-.254.529-.395a7.582,7.582,0,0,1,.975-.676,1.548,1.548,0,0,1,.746-.171,5.088,5.088,0,0,1,1.621.381" transform="translate(-59.46 -173.918)"/>
        </g>
      </g>
      <g id="Group_6918" data-name="Group 6918" transform="translate(27.213 79.596)">
        <g id="Group_6917" data-name="Group 6917" clip-path="url(#clip-path-10)">
          <rect id="Rectangle_3472" data-name="Rectangle 3472" width="48.004" height="76.709" transform="translate(-4.904 -2.887)"/>
          <path id="Path_13274" data-name="Path 13274" d="M155.362,250.158a7.442,7.442,0,0,0-.235-1.417,3.634,3.634,0,0,1-.261-1.576,1.814,1.814,0,0,1,.758-1.36l.2,1.271a.914.914,0,0,0,.152.441.315.315,0,0,0,.416.086.455.455,0,0,0,.122-.188l.935-2.168c.166-.385.379-.813.782-.928a19.133,19.133,0,0,1,.012,2.984,6.5,6.5,0,0,1-.71,1.9,9.964,9.964,0,0,0-.924,4.345q-.167,2.437-.362,4.873c-.243,3.018-.524,6.034-.869,9.043q-.227,1.98-.5,3.956l-3.475-.883a156.477,156.477,0,0,0,3.951-20.379" transform="translate(-131.085 -247.206)"/>
          <path id="Path_13275" data-name="Path 13275" d="M168.512,414.017c.2-.579.793-2.125,1.164-1.982-5.379-2.079-10.9-3.513-16.045-6.217l5.223-4.783a119.135,119.135,0,0,1,11.432,5.407c1.143.613,3.724,1.382,3.957,2.831.19,1.185-.611,2.389-.894,3.5-.432,1.689-.883,3.374-1.315,5.063-.13.507-1.914,6.917-1.294,7.039a8.31,8.31,0,0,1,4.516,2.478c1.11,1.222-.039,1.314-1.167,1.095a11.492,11.492,0,0,1-3.328-1.3,9.294,9.294,0,0,1-1.6-1.073c-.795-.688-.272-2.8-.362-3.738-.247-2.561-1.03-5.589-.343-8.123.009-.033.03-.1.061-.191" transform="translate(-132.608 -354.718)"/>
          <path id="Path_13276" data-name="Path 13276" d="M71.079,430.319c.668-2.428,2.841-3.453,4.658-4.869.4-.309.711-1.1,1.079-1.527l1.384-1.61,1.679-1.953,3.584-3.072c1.937-4.867,4.944-8.5,8.4-12L96,408.528a27.154,27.154,0,0,1-10.6,10.4c-.795,1.321-1.461,2.852-2.333,4.086a8.1,8.1,0,0,1-3.217,2.535c-1.233.564-2.7.758-3.592,1.885-.309.389-.51.854-.8,1.255a4.932,4.932,0,0,1-1.5,1.222,5.046,5.046,0,0,1-2.634.809.324.324,0,0,1-.207-.051c-.1-.078-.079-.23-.046-.35" transform="translate(-75.957 -357.636)"/>
          <path id="Path_13277" data-name="Path 13277" d="M134.124,394.926l-7.948.544-1.6,3.63a21.394,21.394,0,0,0-4.541,5.509c.821,1.679,3.023,2.6,5.737,2.359l5.8-4.693,6.165,2.619c2.667-.69,4.005-2.628,4.939-4.947-1.94-1.358-5.688-4.048-8.545-5.021" transform="translate(-109.558 -350.527)"/>
          <path id="Path_13278" data-name="Path 13278" d="M118.187,367.887a19.7,19.7,0,0,1-1.07,6.216c-.389,1.106-1.425,2.756-1.18,3.951a4.065,4.065,0,0,0,.241.685,3.633,3.633,0,0,1,.312,1.567,1.815,1.815,0,0,1-.713,1.384l-.245-1.263a.913.913,0,0,0-.166-.436.315.315,0,0,0-.419-.073.457.457,0,0,0-.115.192l-.864,2.2c-.153.39-.352.825-.751.953a6.965,6.965,0,0,1,.686-5.131,11.627,11.627,0,0,0,1.228-3.777,25.424,25.424,0,0,0,.537-4.875,12.211,12.211,0,0,0,.082-2.271,10.848,10.848,0,0,0-.8-2.986,25.134,25.134,0,0,1-1.272-4.681c-.216-1.073-.488-2.371.751-3.149,1.364-.857,2.138,1.4,2.4,2.3a31.521,31.521,0,0,1,1.358,9.2" transform="translate(-104.757 -323.959)"/>
          <path id="Path_13279" data-name="Path 13279" d="M121.13,328.889c1.3-.921,3.96-1.348,4.265-3.272a10.3,10.3,0,0,0,4.069.2,11.183,11.183,0,0,0,.5,5.255c.445,1.213,1.615,2.116,1.841,3.414a6.842,6.842,0,0,1-.1,1.871c-.255,2.46-.162,5.107-.229,7.6-.043,1.615.213,2.12.17,3.735.516,1.915-10.022,2.853-10.422,1.368-.38-1.409-.1-1.807-.252-3.258-.17-1.667.152-5-1.285-6.142-.593-.472-1.088-.925-1.645-1.46a1.081,1.081,0,0,0-.656-.379,20.064,20.064,0,0,1-3.7-.534,12.077,12.077,0,0,1,.819-3.373,10.9,10.9,0,0,1,1.748-1.417c.571-.5,1.169-.957,1.785-1.41l3.1-2.2" transform="translate(-105.201 -302.979)"/>
          <path id="Path_13280" data-name="Path 13280" d="M125.132,320.815l.927,2.523.771,2.1c.174.474.237.844.7,1.1a2.2,2.2,0,0,0,1.443.274,2.133,2.133,0,0,0,1.425-.953,1.221,1.221,0,0,0-.005-1.332l-2.139-4.614a.9.9,0,0,0-.96-.514l-1.45.225a.905.905,0,0,0-.716,1.191" transform="translate(-113.022 -298.706)"/>
          <path id="Path_13281" data-name="Path 13281" d="M95.708,317.162a1.819,1.819,0,0,0-.012.776,4.029,4.029,0,0,0,1.288,2.218c.559.478,1.254.782,1.784,1.291a1.662,1.662,0,0,1,.47,1.979c-.253.4-.769.651-.827,1.119a1.475,1.475,0,0,0,.208.761,3.4,3.4,0,0,1,.326,1.949,1.93,1.93,0,0,1-1.175,1.509c-.708.25-1.673.044-2.077.677a4.5,4.5,0,0,0-.272.766,2.126,2.126,0,0,1-2.073,1.03,5.6,5.6,0,0,1-5.192-7.191,3.88,3.88,0,0,1,.537-1.237,19.985,19.985,0,0,1,1.487-1.549c1.2-1.392,1.673-3.209,2.841-4.567a4.259,4.259,0,0,1,2.386-1.389c.323-.068.593.3.582.631a5.429,5.429,0,0,1-.281,1.227" transform="translate(-87.558 -295.898)"/>
          <path id="Path_13282" data-name="Path 13282" d="M120.537,303.651a7.167,7.167,0,0,1,4.177,2.388c2.1,2.22,1.581,3.739.476,4.289a5.719,5.719,0,0,1-5.244,0c-2.4-1.092-2.074-6.811.591-6.681" transform="translate(-108.389 -287.908)"/>
          <path id="Path_13283" data-name="Path 13283" d="M115.931,303.443s-2.641-3.393.753-4.564l.987.3s.547-2.545-1.842-2.885-4.515,1.294-4.476,4.349.5,4.956,2.392,5.8,1.994-.855,1.994-.855-1.2-.977-1.1-1.745,1.111-.215,1.111-.215Z" transform="translate(-103.604 -282.83)"/>
          <path id="Path_13284" data-name="Path 13284" d="M120.48,318.712s-1.348-1.752-2.013-.657,1.356,1.582,2.124,1.7Z" transform="translate(-108.394 -297.544)"/>
          <rect id="Rectangle_3473" data-name="Rectangle 3473" width="48.004" height="76.709" transform="translate(-4.904 -2.887)"/>
          <path id="Path_13285" data-name="Path 13285" d="M155.362,250.158a7.442,7.442,0,0,0-.235-1.417,3.634,3.634,0,0,1-.261-1.576,1.814,1.814,0,0,1,.758-1.36l.2,1.271a.914.914,0,0,0,.152.441.315.315,0,0,0,.416.086.455.455,0,0,0,.122-.188l.935-2.168c.166-.385.379-.813.782-.928a19.133,19.133,0,0,1,.012,2.984,6.5,6.5,0,0,1-.71,1.9,9.964,9.964,0,0,0-.924,4.345q-.167,2.437-.362,4.873c-.243,3.018-.524,6.034-.869,9.043q-.227,1.98-.5,3.956l-3.475-.883a156.477,156.477,0,0,0,3.951-20.379" transform="translate(-131.085 -247.206)"/>
          <path id="Path_13286" data-name="Path 13286" d="M168.512,414.017c.2-.579.793-2.125,1.164-1.982-5.379-2.079-10.9-3.513-16.045-6.217l5.223-4.783a119.135,119.135,0,0,1,11.432,5.407c1.143.613,3.724,1.382,3.957,2.831.19,1.185-.611,2.389-.894,3.5-.432,1.689-.883,3.374-1.315,5.063-.13.507-1.914,6.917-1.294,7.039a8.31,8.31,0,0,1,4.516,2.478c1.11,1.222-.039,1.314-1.167,1.095a11.492,11.492,0,0,1-3.328-1.3,9.294,9.294,0,0,1-1.6-1.073c-.795-.688-.272-2.8-.362-3.738-.247-2.561-1.03-5.589-.343-8.123.009-.033.03-.1.061-.191" transform="translate(-132.608 -354.718)"/>
          <path id="Path_13287" data-name="Path 13287" d="M71.079,430.319c.668-2.428,2.841-3.453,4.658-4.869.4-.309.711-1.1,1.079-1.527l1.384-1.61,1.679-1.953,3.584-3.072c1.937-4.867,4.944-8.5,8.4-12L96,408.528a27.154,27.154,0,0,1-10.6,10.4c-.795,1.321-1.461,2.852-2.333,4.086a8.1,8.1,0,0,1-3.217,2.535c-1.233.564-2.7.758-3.592,1.885-.309.389-.51.854-.8,1.255a4.932,4.932,0,0,1-1.5,1.222,5.046,5.046,0,0,1-2.634.809.324.324,0,0,1-.207-.051c-.1-.078-.079-.23-.046-.35" transform="translate(-75.957 -357.636)"/>
          <path id="Path_13288" data-name="Path 13288" d="M134.124,394.926l-7.948.544-1.6,3.63a21.394,21.394,0,0,0-4.541,5.509c.821,1.679,3.023,2.6,5.737,2.359l5.8-4.693,6.165,2.619c2.667-.69,4.005-2.628,4.939-4.947-1.94-1.358-5.688-4.048-8.545-5.021" transform="translate(-109.558 -350.527)"/>
          <path id="Path_13289" data-name="Path 13289" d="M118.187,367.887a19.7,19.7,0,0,1-1.07,6.216c-.389,1.106-1.425,2.756-1.18,3.951a4.065,4.065,0,0,0,.241.685,3.633,3.633,0,0,1,.312,1.567,1.815,1.815,0,0,1-.713,1.384l-.245-1.263a.913.913,0,0,0-.166-.436.315.315,0,0,0-.419-.073.457.457,0,0,0-.115.192l-.864,2.2c-.153.39-.352.825-.751.953a6.965,6.965,0,0,1,.686-5.131,11.627,11.627,0,0,0,1.228-3.777,25.424,25.424,0,0,0,.537-4.875,12.211,12.211,0,0,0,.082-2.271,10.848,10.848,0,0,0-.8-2.986,25.134,25.134,0,0,1-1.272-4.681c-.216-1.073-.488-2.371.751-3.149,1.364-.857,2.138,1.4,2.4,2.3a31.521,31.521,0,0,1,1.358,9.2" transform="translate(-104.757 -323.959)"/>
          <path id="Path_13290" data-name="Path 13290" d="M121.13,328.889c1.3-.921,3.96-1.348,4.265-3.272a10.3,10.3,0,0,0,4.069.2,11.183,11.183,0,0,0,.5,5.255c.445,1.213,1.615,2.116,1.841,3.414a6.842,6.842,0,0,1-.1,1.871c-.255,2.46-.162,5.107-.229,7.6-.043,1.615.213,2.12.17,3.735.516,1.915-10.022,2.853-10.422,1.368-.38-1.409-.1-1.807-.252-3.258-.17-1.667.152-5-1.285-6.142-.593-.472-1.088-.925-1.645-1.46a1.081,1.081,0,0,0-.656-.379,20.064,20.064,0,0,1-3.7-.534,12.077,12.077,0,0,1,.819-3.373,10.9,10.9,0,0,1,1.748-1.417c.571-.5,1.169-.957,1.785-1.41l3.1-2.2" transform="translate(-105.201 -302.979)"/>
          <path id="Path_13291" data-name="Path 13291" d="M125.132,320.815l.927,2.523.771,2.1c.174.474.237.844.7,1.1a2.2,2.2,0,0,0,1.443.274,2.133,2.133,0,0,0,1.425-.953,1.221,1.221,0,0,0-.005-1.332l-2.139-4.614a.9.9,0,0,0-.96-.514l-1.45.225a.905.905,0,0,0-.716,1.191" transform="translate(-113.022 -298.706)"/>
          <path id="Path_13292" data-name="Path 13292" d="M95.708,317.162a1.819,1.819,0,0,0-.012.776,4.029,4.029,0,0,0,1.288,2.218c.559.478,1.254.782,1.784,1.291a1.662,1.662,0,0,1,.47,1.979c-.253.4-.769.651-.827,1.119a1.475,1.475,0,0,0,.208.761,3.4,3.4,0,0,1,.326,1.949,1.93,1.93,0,0,1-1.175,1.509c-.708.25-1.673.044-2.077.677a4.5,4.5,0,0,0-.272.766,2.126,2.126,0,0,1-2.073,1.03,5.6,5.6,0,0,1-5.192-7.191,3.88,3.88,0,0,1,.537-1.237,19.985,19.985,0,0,1,1.487-1.549c1.2-1.392,1.673-3.209,2.841-4.567a4.259,4.259,0,0,1,2.386-1.389c.323-.068.593.3.582.631a5.429,5.429,0,0,1-.281,1.227" transform="translate(-87.558 -295.898)"/>
          <path id="Path_13293" data-name="Path 13293" d="M120.537,303.651a7.167,7.167,0,0,1,4.177,2.388c2.1,2.22,1.581,3.739.476,4.289a5.719,5.719,0,0,1-5.244,0c-2.4-1.092-2.074-6.811.591-6.681" transform="translate(-108.389 -287.908)"/>
          <path id="Path_13294" data-name="Path 13294" d="M115.931,303.443s-2.641-3.393.753-4.564l.987.3s.547-2.545-1.842-2.885-4.515,1.294-4.476,4.349.5,4.956,2.392,5.8,1.994-.855,1.994-.855-1.2-.977-1.1-1.745,1.111-.215,1.111-.215Z" transform="translate(-103.604 -282.83)"/>
          <path id="Path_13295" data-name="Path 13295" d="M120.48,318.712s-1.348-1.752-2.013-.657,1.356,1.582,2.124,1.7Z" transform="translate(-108.394 -297.544)"/>
        </g>
      </g>
      <g id="Group_6920" data-name="Group 6920">
        <g id="Group_6919" data-name="Group 6919" clip-path="url(#clip-path)">
          <path id="Path_13297" data-name="Path 13297" d="M108.035,177.926c.756-4.737.478-11.726,0-19.259h-.923c-.6,7.1-1.231,13.975-2.649,17.7Z" transform="translate(-71.665 -108.85)" fill="#ffd6b8"/>
          <path id="Path_13298" data-name="Path 13298" d="M112.6,145.458l.742-3.405a.843.843,0,0,0-.064-.544l-1.219-2.538a.107.107,0,0,0-.2.056,5.64,5.64,0,0,1-.635,3.83.723.723,0,0,0-.116.582l.5,2.312Z" transform="translate(-76.206 -95.296)" fill="#ffd6b8"/>
          <path id="Path_13299" data-name="Path 13299" d="M76.323,241.623a16.9,16.9,0,0,1-2.025,5.014c-.527.856-1.695,2.05-1.706,3.1a3.515,3.515,0,0,0,.077.618,3.113,3.113,0,0,1-.023,1.369,1.555,1.555,0,0,1-.849,1.029q.012-.551.024-1.1a.784.784,0,0,0-.06-.4.27.27,0,0,0-.338-.137.391.391,0,0,0-.132.14l-1.123,1.684c-.2.3-.445.627-.8.662a5.971,5.971,0,0,1,1.506-4.174,9.963,9.963,0,0,0,1.715-2.942,21.791,21.791,0,0,0,1.335-3.987,10.45,10.45,0,0,0,.481-1.889,9.3,9.3,0,0,0-.127-2.646,43.892,43.892,0,0,1-.514-5.91c.014-.938.223-1.1,1.4-1.528,1.3-.471,1.714,1.568,1.767,2.372a32.494,32.494,0,0,1-.61,8.726" transform="translate(-47.588 -158.099)" fill="#ffd6b8"/>
          <path id="Path_13300" data-name="Path 13300" d="M89.843,227.648c-1.74-6.932-6.473-7.945-6.473-7.945a15.445,15.445,0,0,1,3.2-4.975,3.913,3.913,0,0,1,4.1-1.094,7.4,7.4,0,0,1,3.9,2.84c.946,1.51,1.8,10.19,1.662,10.188,0,0-1.608,2.053-6.385.984" transform="translate(-57.194 -146.43)" fill="#41efde"/>
          <path id="Path_13301" data-name="Path 13301" d="M89.668,227.581l-.034-.008-.008-.034c-1.711-6.814-6.382-7.894-6.43-7.9l-.062-.013.021-.06a15.561,15.561,0,0,1,3.211-4.994,3.975,3.975,0,0,1,4.158-1.11,7.466,7.466,0,0,1,3.927,2.864c.909,1.45,1.813,9.985,1.669,10.242l-.021.033h-.007a3.52,3.52,0,0,1-1.408.889,6.851,6.851,0,0,1-2.443.4,11.808,11.808,0,0,1-2.573-.307m4.687-11.2a7.347,7.347,0,0,0-3.866-2.817,3.861,3.861,0,0,0-4.039,1.078,15.562,15.562,0,0,0-3.168,4.9c.563.153,4.818,1.509,6.445,7.937,4.61,1.02,6.247-.915,6.293-.971.086-.441-.74-8.648-1.665-10.124" transform="translate(-57.032 -146.308)" fill="#41efde"/>
        </g>
      </g>
      <g id="Group_6922" data-name="Group 6922" transform="translate(26.102 66.96)">
        <g id="Group_6921" data-name="Group 6921" clip-path="url(#clip-path-12)">
          <rect id="Rectangle_3475" data-name="Rectangle 3475" width="48.004" height="76.709" transform="translate(-3.794 -66.96)" fill="#41efde"/>
          <path id="Path_13302" data-name="Path 13302" d="M155.362,5.839a7.443,7.443,0,0,0-.235-1.417,3.634,3.634,0,0,1-.261-1.576,1.814,1.814,0,0,1,.758-1.36l.2,1.271a.914.914,0,0,0,.152.441.315.315,0,0,0,.416.086.455.455,0,0,0,.122-.188l.935-2.168c.166-.385.379-.813.782-.928a19.133,19.133,0,0,1,.012,2.984,6.5,6.5,0,0,1-.71,1.9,9.964,9.964,0,0,0-.924,4.345q-.167,2.437-.362,4.873c-.243,3.018-.524,6.034-.869,9.043q-.227,1.98-.5,3.956l-3.475-.884a156.477,156.477,0,0,0,3.951-20.379" transform="translate(-129.974 -66.96)" fill="#41efde"/>
          <path id="Path_13303" data-name="Path 13303" d="M168.512,169.7c.2-.579.793-2.125,1.164-1.982-5.379-2.079-10.9-3.513-16.045-6.217l5.223-4.783a119.132,119.132,0,0,1,11.432,5.407c1.143.613,3.724,1.382,3.957,2.831.19,1.185-.611,2.389-.894,3.5-.432,1.689-.883,3.374-1.315,5.063-.13.507-1.914,6.917-1.294,7.039a8.31,8.31,0,0,1,4.516,2.479c1.11,1.222-.039,1.314-1.167,1.094a11.49,11.49,0,0,1-3.328-1.3,9.3,9.3,0,0,1-1.6-1.073c-.795-.688-.272-2.8-.362-3.738-.247-2.561-1.03-5.589-.343-8.123.009-.033.03-.1.061-.191" transform="translate(-131.497 -174.471)" fill="#41efde"/>
          <path id="Path_13304" data-name="Path 13304" d="M71.079,186c.668-2.428,2.841-3.453,4.658-4.869.4-.309.711-1.1,1.079-1.527l1.384-1.61,1.679-1.953,3.584-3.072c1.937-4.867,4.944-8.5,8.4-12L96,164.209a27.154,27.154,0,0,1-10.6,10.4c-.795,1.321-1.461,2.852-2.333,4.086a8.1,8.1,0,0,1-3.217,2.535c-1.233.564-2.7.758-3.592,1.885-.309.389-.51.854-.8,1.255a4.931,4.931,0,0,1-1.5,1.222,5.046,5.046,0,0,1-2.634.809.325.325,0,0,1-.207-.051c-.1-.078-.079-.229-.046-.35" transform="translate(-74.846 -177.39)" fill="#41efde"/>
          <path id="Path_13305" data-name="Path 13305" d="M134.124,150.607l-7.948.544-1.6,3.63a21.4,21.4,0,0,0-4.541,5.509c.821,1.679,3.023,2.6,5.737,2.359l5.8-4.693,6.165,2.619c2.667-.69,4.005-2.628,4.939-4.947-1.94-1.358-5.688-4.048-8.545-5.021" transform="translate(-108.447 -170.28)" fill="#41efde"/>
          <path id="Path_13306" data-name="Path 13306" d="M118.187,123.568a19.7,19.7,0,0,1-1.07,6.216c-.389,1.106-1.425,2.756-1.18,3.951a4.064,4.064,0,0,0,.241.685,3.634,3.634,0,0,1,.312,1.567,1.815,1.815,0,0,1-.713,1.384l-.245-1.263a.914.914,0,0,0-.166-.436.315.315,0,0,0-.419-.073.457.457,0,0,0-.115.192l-.864,2.2c-.153.39-.352.824-.751.953a6.965,6.965,0,0,1,.686-5.131,11.627,11.627,0,0,0,1.228-3.777,25.424,25.424,0,0,0,.537-4.875,12.211,12.211,0,0,0,.082-2.271,10.849,10.849,0,0,0-.8-2.986,25.134,25.134,0,0,1-1.272-4.681c-.216-1.073-.488-2.37.751-3.149,1.364-.857,2.138,1.4,2.4,2.3a31.521,31.521,0,0,1,1.358,9.2" transform="translate(-103.646 -143.712)" fill="#41efde"/>
          <path id="Path_13307" data-name="Path 13307" d="M121.13,84.57c1.3-.921,3.96-1.348,4.265-3.272a10.3,10.3,0,0,0,4.069.2,11.183,11.183,0,0,0,.5,5.255c.445,1.213,1.615,2.116,1.841,3.414a6.843,6.843,0,0,1-.1,1.871c-.255,2.46-.162,5.107-.229,7.6-.043,1.615.213,2.12.17,3.735.516,1.915-10.022,2.853-10.422,1.368-.38-1.409-.1-1.807-.252-3.258-.17-1.668.152-5-1.285-6.142-.593-.472-1.088-.925-1.645-1.46a1.081,1.081,0,0,0-.656-.379,20.091,20.091,0,0,1-3.7-.534A12.077,12.077,0,0,1,114.5,89.6a10.9,10.9,0,0,1,1.748-1.417c.571-.5,1.169-.957,1.785-1.41l3.1-2.2" transform="translate(-104.09 -122.732)" fill="#41efde"/>
          <path id="Path_13308" data-name="Path 13308" d="M125.132,76.5l.927,2.523.771,2.1c.174.474.237.844.7,1.1a2.2,2.2,0,0,0,1.443.274,2.131,2.131,0,0,0,1.425-.953,1.221,1.221,0,0,0-.005-1.332l-2.139-4.614a.9.9,0,0,0-.96-.514l-1.45.225a.905.905,0,0,0-.716,1.191" transform="translate(-111.912 -118.46)" fill="#41efde"/>
          <path id="Path_13309" data-name="Path 13309" d="M95.708,72.843a1.819,1.819,0,0,0-.012.776,4.029,4.029,0,0,0,1.288,2.218c.559.478,1.254.782,1.784,1.291a1.662,1.662,0,0,1,.47,1.979c-.253.4-.769.651-.827,1.119a1.475,1.475,0,0,0,.208.761,3.4,3.4,0,0,1,.326,1.949,1.93,1.93,0,0,1-1.175,1.509c-.708.25-1.673.044-2.077.677a4.5,4.5,0,0,0-.272.766,2.126,2.126,0,0,1-2.073,1.03,5.6,5.6,0,0,1-5.192-7.191,3.88,3.88,0,0,1,.537-1.237A19.976,19.976,0,0,1,90.18,76.94c1.2-1.392,1.673-3.209,2.841-4.567a4.26,4.26,0,0,1,2.386-1.389c.323-.068.593.3.582.631a5.429,5.429,0,0,1-.281,1.227" transform="translate(-86.447 -115.652)" fill="#41efde"/>
          <path id="Path_13310" data-name="Path 13310" d="M120.537,59.332a7.167,7.167,0,0,1,4.177,2.388c2.1,2.22,1.581,3.739.476,4.289a5.719,5.719,0,0,1-5.244,0c-2.4-1.092-2.074-6.811.591-6.681" transform="translate(-107.279 -107.662)" fill="#41efde"/>
          <path id="Path_13311" data-name="Path 13311" d="M115.931,59.124s-2.641-3.393.753-4.564l.987.3s.547-2.545-1.842-2.885-4.515,1.294-4.476,4.348.5,4.956,2.392,5.8,1.994-.855,1.994-.855-1.2-.977-1.1-1.745,1.111-.215,1.111-.215Z" transform="translate(-102.494 -102.583)" fill="#41efde"/>
          <path id="Path_13312" data-name="Path 13312" d="M120.48,74.393s-1.348-1.752-2.013-.657,1.356,1.581,2.124,1.7Z" transform="translate(-107.283 -117.298)" fill="#41efde"/>
          <rect id="Rectangle_3476" data-name="Rectangle 3476" width="48.004" height="76.709" transform="translate(-3.794 9.749)" fill="#41efde"/>
          <path id="Path_13313" data-name="Path 13313" d="M155.362,250.158a7.442,7.442,0,0,0-.235-1.417,3.634,3.634,0,0,1-.261-1.576,1.814,1.814,0,0,1,.758-1.36l.2,1.271a.914.914,0,0,0,.152.441.315.315,0,0,0,.416.086.455.455,0,0,0,.122-.188l.935-2.168c.166-.385.379-.813.782-.928a19.133,19.133,0,0,1,.012,2.984,6.5,6.5,0,0,1-.71,1.9,9.964,9.964,0,0,0-.924,4.345q-.167,2.437-.362,4.873c-.243,3.018-.524,6.034-.869,9.043q-.227,1.98-.5,3.956l-3.475-.883a156.477,156.477,0,0,0,3.951-20.379" transform="translate(-129.974 -234.57)" fill="#41efde"/>
          <path id="Path_13314" data-name="Path 13314" d="M168.512,414.017c.2-.579.793-2.125,1.164-1.982-5.379-2.079-10.9-3.513-16.045-6.217l5.223-4.783a119.135,119.135,0,0,1,11.432,5.407c1.143.613,3.724,1.382,3.957,2.831.19,1.185-.611,2.389-.894,3.5-.432,1.689-.883,3.374-1.315,5.063-.13.507-1.914,6.917-1.294,7.039a8.31,8.31,0,0,1,4.516,2.478c1.11,1.222-.039,1.314-1.167,1.095a11.492,11.492,0,0,1-3.328-1.3,9.294,9.294,0,0,1-1.6-1.073c-.795-.688-.272-2.8-.362-3.738-.247-2.561-1.03-5.589-.343-8.123.009-.033.03-.1.061-.191" transform="translate(-131.497 -342.081)" fill="#41efde"/>
          <path id="Path_13315" data-name="Path 13315" d="M71.079,430.319c.668-2.428,2.841-3.453,4.658-4.869.4-.309.711-1.1,1.079-1.527l1.384-1.61,1.679-1.953,3.584-3.072c1.937-4.867,4.944-8.5,8.4-12L96,408.528a27.154,27.154,0,0,1-10.6,10.4c-.795,1.321-1.461,2.852-2.333,4.086a8.1,8.1,0,0,1-3.217,2.535c-1.233.564-2.7.758-3.592,1.885-.309.389-.51.854-.8,1.255a4.932,4.932,0,0,1-1.5,1.222,5.046,5.046,0,0,1-2.634.809.324.324,0,0,1-.207-.051c-.1-.078-.079-.23-.046-.35" transform="translate(-74.846 -345)" fill="#41efde"/>
          <path id="Path_13316" data-name="Path 13316" d="M134.124,394.926l-7.948.544-1.6,3.63a21.394,21.394,0,0,0-4.541,5.509c.821,1.679,3.023,2.6,5.737,2.359l5.8-4.693,6.165,2.619c2.667-.69,4.005-2.628,4.939-4.947-1.94-1.358-5.688-4.048-8.545-5.021" transform="translate(-108.447 -337.89)" fill="#41efde"/>
          <path id="Path_13317" data-name="Path 13317" d="M118.187,367.887a19.7,19.7,0,0,1-1.07,6.216c-.389,1.106-1.425,2.756-1.18,3.951a4.065,4.065,0,0,0,.241.685,3.633,3.633,0,0,1,.312,1.567,1.815,1.815,0,0,1-.713,1.384l-.245-1.263a.913.913,0,0,0-.166-.436.315.315,0,0,0-.419-.073.457.457,0,0,0-.115.192l-.864,2.2c-.153.39-.352.825-.751.953a6.965,6.965,0,0,1,.686-5.131,11.627,11.627,0,0,0,1.228-3.777,25.424,25.424,0,0,0,.537-4.875,12.211,12.211,0,0,0,.082-2.271,10.848,10.848,0,0,0-.8-2.986,25.134,25.134,0,0,1-1.272-4.681c-.216-1.073-.488-2.371.751-3.149,1.364-.857,2.138,1.4,2.4,2.3a31.521,31.521,0,0,1,1.358,9.2" transform="translate(-103.646 -311.322)" fill="#41efde"/>
          <path id="Path_13318" data-name="Path 13318" d="M121.13,328.889c1.3-.921,3.96-1.348,4.265-3.272a10.3,10.3,0,0,0,4.069.2,11.183,11.183,0,0,0,.5,5.255c.445,1.213,1.615,2.116,1.841,3.414a6.842,6.842,0,0,1-.1,1.871c-.255,2.46-.162,5.107-.229,7.6-.043,1.615.213,2.12.17,3.735.516,1.915-10.022,2.853-10.422,1.368-.38-1.409-.1-1.807-.252-3.258-.17-1.667.152-5-1.285-6.142-.593-.472-1.088-.925-1.645-1.46a1.081,1.081,0,0,0-.656-.379,20.064,20.064,0,0,1-3.7-.534,12.077,12.077,0,0,1,.819-3.373,10.9,10.9,0,0,1,1.748-1.417c.571-.5,1.169-.957,1.785-1.41l3.1-2.2" transform="translate(-104.09 -290.342)" fill="#41efde"/>
          <path id="Path_13319" data-name="Path 13319" d="M125.132,320.815l.927,2.523.771,2.1c.174.474.237.844.7,1.1a2.2,2.2,0,0,0,1.443.274,2.133,2.133,0,0,0,1.425-.953,1.221,1.221,0,0,0-.005-1.332l-2.139-4.614a.9.9,0,0,0-.96-.514l-1.45.225a.905.905,0,0,0-.716,1.191" transform="translate(-111.912 -286.07)" fill="#41efde"/>
          <path id="Path_13320" data-name="Path 13320" d="M95.708,317.162a1.819,1.819,0,0,0-.012.776,4.029,4.029,0,0,0,1.288,2.218c.559.478,1.254.782,1.784,1.291a1.662,1.662,0,0,1,.47,1.979c-.253.4-.769.651-.827,1.119a1.475,1.475,0,0,0,.208.761,3.4,3.4,0,0,1,.326,1.949,1.93,1.93,0,0,1-1.175,1.509c-.708.25-1.673.044-2.077.677a4.5,4.5,0,0,0-.272.766,2.126,2.126,0,0,1-2.073,1.03,5.6,5.6,0,0,1-5.192-7.191,3.88,3.88,0,0,1,.537-1.237,19.985,19.985,0,0,1,1.487-1.549c1.2-1.392,1.673-3.209,2.841-4.567a4.259,4.259,0,0,1,2.386-1.389c.323-.068.593.3.582.631a5.429,5.429,0,0,1-.281,1.227" transform="translate(-86.447 -283.262)" fill="#41efde"/>
          <path id="Path_13321" data-name="Path 13321" d="M120.537,303.651a7.167,7.167,0,0,1,4.177,2.388c2.1,2.22,1.581,3.739.476,4.289a5.719,5.719,0,0,1-5.244,0c-2.4-1.092-2.074-6.811.591-6.681" transform="translate(-107.279 -275.272)" fill="#41efde"/>
          <path id="Path_13322" data-name="Path 13322" d="M115.931,303.443s-2.641-3.393.753-4.564l.987.3s.547-2.545-1.842-2.885-4.515,1.294-4.476,4.349.5,4.956,2.392,5.8,1.994-.855,1.994-.855-1.2-.977-1.1-1.745,1.111-.215,1.111-.215Z" transform="translate(-102.494 -270.193)" fill="#41efde"/>
          <path id="Path_13323" data-name="Path 13323" d="M120.48,318.712s-1.348-1.752-2.013-.657,1.356,1.582,2.124,1.7Z" transform="translate(-107.283 -284.908)" fill="#41efde"/>
          <rect id="Rectangle_3477" data-name="Rectangle 3477" width="48.004" height="76.709" transform="translate(-3.794 -66.96)" fill="#41efde"/>
          <path id="Path_13324" data-name="Path 13324" d="M155.362,5.839a7.443,7.443,0,0,0-.235-1.417,3.634,3.634,0,0,1-.261-1.576,1.814,1.814,0,0,1,.758-1.36l.2,1.271a.914.914,0,0,0,.152.441.315.315,0,0,0,.416.086.455.455,0,0,0,.122-.188l.935-2.168c.166-.385.379-.813.782-.928a19.133,19.133,0,0,1,.012,2.984,6.5,6.5,0,0,1-.71,1.9,9.964,9.964,0,0,0-.924,4.345q-.167,2.437-.362,4.873c-.243,3.018-.524,6.034-.869,9.043q-.227,1.98-.5,3.956l-3.475-.884a156.477,156.477,0,0,0,3.951-20.379" transform="translate(-129.974 -66.96)" fill="#41efde"/>
          <path id="Path_13325" data-name="Path 13325" d="M168.512,169.7c.2-.579.793-2.125,1.164-1.982-5.379-2.079-10.9-3.513-16.045-6.217l5.223-4.783a119.132,119.132,0,0,1,11.432,5.407c1.143.613,3.724,1.382,3.957,2.831.19,1.185-.611,2.389-.894,3.5-.432,1.689-.883,3.374-1.315,5.063-.13.507-1.914,6.917-1.294,7.039a8.31,8.31,0,0,1,4.516,2.479c1.11,1.222-.039,1.314-1.167,1.094a11.49,11.49,0,0,1-3.328-1.3,9.3,9.3,0,0,1-1.6-1.073c-.795-.688-.272-2.8-.362-3.738-.247-2.561-1.03-5.589-.343-8.123.009-.033.03-.1.061-.191" transform="translate(-131.497 -174.471)" fill="#41efde"/>
          <path id="Path_13326" data-name="Path 13326" d="M71.079,186c.668-2.428,2.841-3.453,4.658-4.869.4-.309.711-1.1,1.079-1.527l1.384-1.61,1.679-1.953,3.584-3.072c1.937-4.867,4.944-8.5,8.4-12L96,164.209a27.154,27.154,0,0,1-10.6,10.4c-.795,1.321-1.461,2.852-2.333,4.086a8.1,8.1,0,0,1-3.217,2.535c-1.233.564-2.7.758-3.592,1.885-.309.389-.51.854-.8,1.255a4.931,4.931,0,0,1-1.5,1.222,5.046,5.046,0,0,1-2.634.809.325.325,0,0,1-.207-.051c-.1-.078-.079-.229-.046-.35" transform="translate(-74.846 -177.39)" fill="#41efde"/>
          <path id="Path_13327" data-name="Path 13327" d="M134.124,150.607l-7.948.544-1.6,3.63a21.4,21.4,0,0,0-4.541,5.509c.821,1.679,3.023,2.6,5.737,2.359l5.8-4.693,6.165,2.619c2.667-.69,4.005-2.628,4.939-4.947-1.94-1.358-5.688-4.048-8.545-5.021" transform="translate(-108.447 -170.28)" fill="#41efde"/>
          <path id="Path_13328" data-name="Path 13328" d="M118.187,123.568a19.7,19.7,0,0,1-1.07,6.216c-.389,1.106-1.425,2.756-1.18,3.951a4.064,4.064,0,0,0,.241.685,3.634,3.634,0,0,1,.312,1.567,1.815,1.815,0,0,1-.713,1.384l-.245-1.263a.914.914,0,0,0-.166-.436.315.315,0,0,0-.419-.073.457.457,0,0,0-.115.192l-.864,2.2c-.153.39-.352.824-.751.953a6.965,6.965,0,0,1,.686-5.131,11.627,11.627,0,0,0,1.228-3.777,25.424,25.424,0,0,0,.537-4.875,12.211,12.211,0,0,0,.082-2.271,10.849,10.849,0,0,0-.8-2.986,25.134,25.134,0,0,1-1.272-4.681c-.216-1.073-.488-2.37.751-3.149,1.364-.857,2.138,1.4,2.4,2.3a31.521,31.521,0,0,1,1.358,9.2" transform="translate(-103.646 -143.712)" fill="#41efde"/>
          <path id="Path_13329" data-name="Path 13329" d="M121.13,84.57c1.3-.921,3.96-1.348,4.265-3.272a10.3,10.3,0,0,0,4.069.2,11.183,11.183,0,0,0,.5,5.255c.445,1.213,1.615,2.116,1.841,3.414a6.843,6.843,0,0,1-.1,1.871c-.255,2.46-.162,5.107-.229,7.6-.043,1.615.213,2.12.17,3.735.516,1.915-10.022,2.853-10.422,1.368-.38-1.409-.1-1.807-.252-3.258-.17-1.668.152-5-1.285-6.142-.593-.472-1.088-.925-1.645-1.46a1.081,1.081,0,0,0-.656-.379,20.091,20.091,0,0,1-3.7-.534A12.077,12.077,0,0,1,114.5,89.6a10.9,10.9,0,0,1,1.748-1.417c.571-.5,1.169-.957,1.785-1.41l3.1-2.2" transform="translate(-104.09 -122.732)" fill="#41efde"/>
          <path id="Path_13330" data-name="Path 13330" d="M125.132,76.5l.927,2.523.771,2.1c.174.474.237.844.7,1.1a2.2,2.2,0,0,0,1.443.274,2.131,2.131,0,0,0,1.425-.953,1.221,1.221,0,0,0-.005-1.332l-2.139-4.614a.9.9,0,0,0-.96-.514l-1.45.225a.905.905,0,0,0-.716,1.191" transform="translate(-111.912 -118.46)" fill="#41efde"/>
          <path id="Path_13331" data-name="Path 13331" d="M95.708,72.843a1.819,1.819,0,0,0-.012.776,4.029,4.029,0,0,0,1.288,2.218c.559.478,1.254.782,1.784,1.291a1.662,1.662,0,0,1,.47,1.979c-.253.4-.769.651-.827,1.119a1.475,1.475,0,0,0,.208.761,3.4,3.4,0,0,1,.326,1.949,1.93,1.93,0,0,1-1.175,1.509c-.708.25-1.673.044-2.077.677a4.5,4.5,0,0,0-.272.766,2.126,2.126,0,0,1-2.073,1.03,5.6,5.6,0,0,1-5.192-7.191,3.88,3.88,0,0,1,.537-1.237A19.976,19.976,0,0,1,90.18,76.94c1.2-1.392,1.673-3.209,2.841-4.567a4.26,4.26,0,0,1,2.386-1.389c.323-.068.593.3.582.631a5.429,5.429,0,0,1-.281,1.227" transform="translate(-86.447 -115.652)" fill="#41efde"/>
          <path id="Path_13332" data-name="Path 13332" d="M120.537,59.332a7.167,7.167,0,0,1,4.177,2.388c2.1,2.22,1.581,3.739.476,4.289a5.719,5.719,0,0,1-5.244,0c-2.4-1.092-2.074-6.811.591-6.681" transform="translate(-107.279 -107.662)" fill="#41efde"/>
          <path id="Path_13333" data-name="Path 13333" d="M115.931,59.124s-2.641-3.393.753-4.564l.987.3s.547-2.545-1.842-2.885-4.515,1.294-4.476,4.348.5,4.956,2.392,5.8,1.994-.855,1.994-.855-1.2-.977-1.1-1.745,1.111-.215,1.111-.215Z" transform="translate(-102.494 -102.583)" fill="#41efde"/>
          <path id="Path_13334" data-name="Path 13334" d="M120.48,74.393s-1.348-1.752-2.013-.657,1.356,1.581,2.124,1.7Z" transform="translate(-107.283 -117.298)" fill="#41efde"/>
          <rect id="Rectangle_3478" data-name="Rectangle 3478" width="48.004" height="76.709" transform="translate(-3.794 9.749)" fill="#41efde"/>
          <path id="Path_13335" data-name="Path 13335" d="M155.362,250.158a7.442,7.442,0,0,0-.235-1.417,3.634,3.634,0,0,1-.261-1.576,1.814,1.814,0,0,1,.758-1.36l.2,1.271a.914.914,0,0,0,.152.441.315.315,0,0,0,.416.086.455.455,0,0,0,.122-.188l.935-2.168c.166-.385.379-.813.782-.928a19.133,19.133,0,0,1,.012,2.984,6.5,6.5,0,0,1-.71,1.9,9.964,9.964,0,0,0-.924,4.345q-.167,2.437-.362,4.873c-.243,3.018-.524,6.034-.869,9.043q-.227,1.98-.5,3.956l-3.475-.883a156.477,156.477,0,0,0,3.951-20.379" transform="translate(-129.974 -234.57)" fill="#41efde"/>
          <path id="Path_13336" data-name="Path 13336" d="M168.512,414.017c.2-.579.793-2.125,1.164-1.982-5.379-2.079-10.9-3.513-16.045-6.217l5.223-4.783a119.135,119.135,0,0,1,11.432,5.407c1.143.613,3.724,1.382,3.957,2.831.19,1.185-.611,2.389-.894,3.5-.432,1.689-.883,3.374-1.315,5.063-.13.507-1.914,6.917-1.294,7.039a8.31,8.31,0,0,1,4.516,2.478c1.11,1.222-.039,1.314-1.167,1.095a11.492,11.492,0,0,1-3.328-1.3,9.294,9.294,0,0,1-1.6-1.073c-.795-.688-.272-2.8-.362-3.738-.247-2.561-1.03-5.589-.343-8.123.009-.033.03-.1.061-.191" transform="translate(-131.497 -342.081)" fill="#41efde"/>
          <path id="Path_13337" data-name="Path 13337" d="M71.079,430.319c.668-2.428,2.841-3.453,4.658-4.869.4-.309.711-1.1,1.079-1.527l1.384-1.61,1.679-1.953,3.584-3.072c1.937-4.867,4.944-8.5,8.4-12L96,408.528a27.154,27.154,0,0,1-10.6,10.4c-.795,1.321-1.461,2.852-2.333,4.086a8.1,8.1,0,0,1-3.217,2.535c-1.233.564-2.7.758-3.592,1.885-.309.389-.51.854-.8,1.255a4.932,4.932,0,0,1-1.5,1.222,5.046,5.046,0,0,1-2.634.809.324.324,0,0,1-.207-.051c-.1-.078-.079-.23-.046-.35" transform="translate(-74.846 -345)" fill="#41efde"/>
          <path id="Path_13338" data-name="Path 13338" d="M134.124,394.926l-7.948.544-1.6,3.63a21.394,21.394,0,0,0-4.541,5.509c.821,1.679,3.023,2.6,5.737,2.359l5.8-4.693,6.165,2.619c2.667-.69,4.005-2.628,4.939-4.947-1.94-1.358-5.688-4.048-8.545-5.021" transform="translate(-108.447 -337.89)" fill="#41efde"/>
          <path id="Path_13339" data-name="Path 13339" d="M118.187,367.887a19.7,19.7,0,0,1-1.07,6.216c-.389,1.106-1.425,2.756-1.18,3.951a4.065,4.065,0,0,0,.241.685,3.633,3.633,0,0,1,.312,1.567,1.815,1.815,0,0,1-.713,1.384l-.245-1.263a.913.913,0,0,0-.166-.436.315.315,0,0,0-.419-.073.457.457,0,0,0-.115.192l-.864,2.2c-.153.39-.352.825-.751.953a6.965,6.965,0,0,1,.686-5.131,11.627,11.627,0,0,0,1.228-3.777,25.424,25.424,0,0,0,.537-4.875,12.211,12.211,0,0,0,.082-2.271,10.848,10.848,0,0,0-.8-2.986,25.134,25.134,0,0,1-1.272-4.681c-.216-1.073-.488-2.371.751-3.149,1.364-.857,2.138,1.4,2.4,2.3a31.521,31.521,0,0,1,1.358,9.2" transform="translate(-103.646 -311.322)" fill="#41efde"/>
          <path id="Path_13340" data-name="Path 13340" d="M121.13,328.889c1.3-.921,3.96-1.348,4.265-3.272a10.3,10.3,0,0,0,4.069.2,11.183,11.183,0,0,0,.5,5.255c.445,1.213,1.615,2.116,1.841,3.414a6.842,6.842,0,0,1-.1,1.871c-.255,2.46-.162,5.107-.229,7.6-.043,1.615.213,2.12.17,3.735.516,1.915-10.022,2.853-10.422,1.368-.38-1.409-.1-1.807-.252-3.258-.17-1.667.152-5-1.285-6.142-.593-.472-1.088-.925-1.645-1.46a1.081,1.081,0,0,0-.656-.379,20.064,20.064,0,0,1-3.7-.534,12.077,12.077,0,0,1,.819-3.373,10.9,10.9,0,0,1,1.748-1.417c.571-.5,1.169-.957,1.785-1.41l3.1-2.2" transform="translate(-104.09 -290.342)" fill="#41efde"/>
          <path id="Path_13341" data-name="Path 13341" d="M125.132,320.815l.927,2.523.771,2.1c.174.474.237.844.7,1.1a2.2,2.2,0,0,0,1.443.274,2.133,2.133,0,0,0,1.425-.953,1.221,1.221,0,0,0-.005-1.332l-2.139-4.614a.9.9,0,0,0-.96-.514l-1.45.225a.905.905,0,0,0-.716,1.191" transform="translate(-111.912 -286.07)" fill="#41efde"/>
          <path id="Path_13342" data-name="Path 13342" d="M95.708,317.162a1.819,1.819,0,0,0-.012.776,4.029,4.029,0,0,0,1.288,2.218c.559.478,1.254.782,1.784,1.291a1.662,1.662,0,0,1,.47,1.979c-.253.4-.769.651-.827,1.119a1.475,1.475,0,0,0,.208.761,3.4,3.4,0,0,1,.326,1.949,1.93,1.93,0,0,1-1.175,1.509c-.708.25-1.673.044-2.077.677a4.5,4.5,0,0,0-.272.766,2.126,2.126,0,0,1-2.073,1.03,5.6,5.6,0,0,1-5.192-7.191,3.88,3.88,0,0,1,.537-1.237,19.985,19.985,0,0,1,1.487-1.549c1.2-1.392,1.673-3.209,2.841-4.567a4.259,4.259,0,0,1,2.386-1.389c.323-.068.593.3.582.631a5.429,5.429,0,0,1-.281,1.227" transform="translate(-86.447 -283.262)" fill="#41efde"/>
          <path id="Path_13343" data-name="Path 13343" d="M120.537,303.651a7.167,7.167,0,0,1,4.177,2.388c2.1,2.22,1.581,3.739.476,4.289a5.719,5.719,0,0,1-5.244,0c-2.4-1.092-2.074-6.811.591-6.681" transform="translate(-107.279 -275.272)" fill="#41efde"/>
          <path id="Path_13344" data-name="Path 13344" d="M115.931,303.443s-2.641-3.393.753-4.564l.987.3s.547-2.545-1.842-2.885-4.515,1.294-4.476,4.349.5,4.956,2.392,5.8,1.994-.855,1.994-.855-1.2-.977-1.1-1.745,1.111-.215,1.111-.215Z" transform="translate(-102.494 -270.193)" fill="#41efde"/>
          <path id="Path_13345" data-name="Path 13345" d="M120.48,318.712s-1.348-1.752-2.013-.657,1.356,1.582,2.124,1.7Z" transform="translate(-107.283 -284.908)" fill="#41efde"/>
        </g>
      </g>
      <g id="Group_6927" data-name="Group 6927">
        <g id="Group_6926" data-name="Group 6926" clip-path="url(#clip-path)">
          <path id="Path_13347" data-name="Path 13347" d="M82.4,206.926l1.6,1.836c.683.781,1.619,2.471,2.866,2.017a1.847,1.847,0,0,0,.824-2.359.64.64,0,0,0-.142-.189l-3.011-2.923a.746.746,0,0,0-.891-.112l-1.051.6a.747.747,0,0,0-.2,1.129" transform="translate(-56.411 -140.702)" fill="#ffd6b8"/>
          <path id="Path_13348" data-name="Path 13348" d="M60.415,201.883s-6.567,1.068-4.563,7.476,2.3,8.635.379,8.31a2.555,2.555,0,0,0,1.3.855,3.465,3.465,0,0,0,2.851-.981,7.348,7.348,0,0,0,2.392-3.676c1.53-4.857-1.91-11.175-2.361-11.984" transform="translate(-38.055 -138.498)"/>
          <path id="Path_13349" data-name="Path 13349" d="M76.96,194.9a6.609,6.609,0,0,1,4.3,1.073c2.423,1.443,2.339,2.922,1.5,3.686a5.272,5.272,0,0,1-4.652,1.316c-2.4-.369-3.545-5.524-1.148-6.076" transform="translate(-51.889 -133.677)" fill="#ffd6b8"/>
          <path id="Path_13350" data-name="Path 13350" d="M72.355,194.747s-3.193-2.349-.474-4.238l.959.058s-.16-2.438-2.365-2.141a4.239,4.239,0,0,0-3.379,5.39c.8,2.7,2.181,3.86,4.07,4.136a1.47,1.47,0,0,0,1.332-.287,1.294,1.294,0,0,0,.237-1.055c-.2-.061-1.744-.552-1.831-1.364a.463.463,0,0,1,.08-.365c.286-.3,1.26.07,1.26.07Z" transform="translate(-45.905 -129.249)"/>
          <g id="Group_6925" data-name="Group 6925" transform="translate(83.745 94.478)" opacity="0.45">
            <g id="Group_6924" data-name="Group 6924">
              <g id="Group_6923" data-name="Group 6923" clip-path="url(#clip-path-14)">
                <path id="Path_13351" data-name="Path 13351" d="M268.828,303.595a.6.6,0,1,1-.445.72.6.6,0,0,1,.445-.72" transform="translate(-267.853 -302.742)" fill="#fff"/>
                <path id="Path_13352" data-name="Path 13352" d="M275.506,305.139a4.39,4.39,0,0,0-6.039-3.9.375.375,0,0,0-.2.489l.011.023.284.58a3.549,3.549,0,0,1,1.5-.385,3.219,3.219,0,0,1,1.852.46,3.5,3.5,0,0,1,.641.522,3.623,3.623,0,0,1,.507.665.411.411,0,0,1-.12.549l-.436.3a.406.406,0,0,1-.231.072.413.413,0,0,1-.351-.2,2.178,2.178,0,0,0-.715-.736,2.148,2.148,0,0,0-1.137-.259,1.985,1.985,0,0,0-.786.151c-.046.019-.092.041-.136.064l.008.017-.052.007a1.761,1.761,0,0,0-.813.948,2.267,2.267,0,0,0-.14.8,2.2,2.2,0,0,0,.144.8,1.941,1.941,0,0,0,.4.635,1.783,1.783,0,0,0,.6.415,1.989,1.989,0,0,0,.786.152,2.159,2.159,0,0,0,1.133-.254,2.024,2.024,0,0,0,.388-.313,2.318,2.318,0,0,0,.32-.417.41.41,0,0,1,.563-.138l.019.012.436.3a.41.41,0,0,1,.117.553,3.512,3.512,0,0,1-1.181,1.18,3.437,3.437,0,0,1-1.808.449,3.339,3.339,0,0,1-1.327-.263,3.178,3.178,0,0,1-1.052-.724,3.28,3.28,0,0,1-.681-1.074,3.709,3.709,0,0,1-.053-2.479l-.5-.221a.422.422,0,0,0-.556.216.444.444,0,0,0-.022.062,4.39,4.39,0,1,0,8.63.949Z" transform="translate(-266.73 -300.915)" fill="#fff"/>
              </g>
            </g>
          </g>
        </g>
      </g>
    </g>
  </g>
</svg>
