<?xml version="1.0" encoding="utf-8"?>
<!-- Generator: Adobe Illustrator 27.2.0, SVG Export Plug-In . SVG Version: 6.00 Build 0)  -->
<svg version="1.1" id="Layer_1" xmlns="http://www.w3.org/2000/svg" xmlns:xlink="http://www.w3.org/1999/xlink" x="0px" y="0px"
	 viewBox="0 0 207 136.5" style="enable-background:new 0 0 207 136.5;" xml:space="preserve">
<style type="text/css">
	.st0{clip-path:url(#SVGID_00000150802162959705165140000000538638701645201828_);}
	.st1{clip-path:url(#SVGID_00000111159162320214625580000014979593479444106377_);}
	.st2{opacity:0.15;}
	.st3{clip-path:url(#SVGID_00000134209157155125091740000011756987164552174738_);}
	.st4{fill:#F7C289;}
	.st5{fill:#F9C84E;}
	.st6{fill:#06517F;}
	.st7{fill:#939393;}
	.st8{fill:#D8D8D8;}
	.st9{fill:#41EFDE;}
	.st10{fill:#EFC6B4;}
	.st11{fill:#66126C;}
	.st12{fill:#FFD6BB;}
	.st13{fill:#13658E;}
	.st14{fill:#C3FCF2;}
	.st15{clip-path:url(#SVGID_00000137129691983787939810000006195972281939872937_);}
	.st16{fill:url(#Rectangle_3545_00000169523884744952938310000008496286489070497464_);}
	.st17{clip-path:url(#SVGID_00000146496150874224648880000001816167924336055990_);}
	.st18{fill:#055C9A;}
	.st19{clip-path:url(#SVGID_00000180325935868311452530000013168679564080310190_);}
	.st20{fill:url(#Rectangle_3547_00000121260307684519531100000007338250052971171244_);}
	.st21{clip-path:url(#SVGID_00000026848820564055456930000000649356750690306491_);}
	.st22{fill:#FFFFFF;}
	.st23{clip-path:url(#SVGID_00000174591619578300362060000002501587861790184870_);}
	.st24{clip-path:url(#SVGID_00000159471438538754985030000005582370034024819854_);}
	.st25{clip-path:url(#SVGID_00000152948955245215530480000001679901592653049747_);}
	.st26{clip-path:url(#SVGID_00000098201654095871962800000010779467481150876087_);}
	.st27{clip-path:url(#SVGID_00000010277663169013705010000000859861288041215876_);}
	.st28{fill:#E0E0E0;}
	.st29{fill:#C9C9C9;}
	.st30{clip-path:url(#SVGID_00000011031745147374190950000017440229851232364170_);}
	.st31{fill:#FFD6B8;}
	.st32{clip-path:url(#SVGID_00000013153751859168769070000010517710873210067373_);}
	.st33{fill:url(#Rectangle_3534_00000005257731329442751820000005710294157460539824_);}
	.st34{clip-path:url(#SVGID_00000060736968017626666350000013091182302888005013_);}
	.st35{clip-path:url(#SVGID_00000049917825301855194310000005863071498430058115_);}
	.st36{clip-path:url(#SVGID_00000165236352374228022710000012080499490299247278_);}
	.st37{fill:#862C93;}
	.st38{fill:#05496B;}
	.st39{fill:#07598C;}
	.st40{opacity:0.5;}
	.st41{clip-path:url(#SVGID_00000135667974094035880700000005837952319918836106_);}
	.st42{clip-path:url(#SVGID_00000016781347747957635180000003711256193835660197_);}
	.st43{clip-path:url(#SVGID_00000059275949896239020120000005638751810387255455_);}
	.st44{fill:url(#Rectangle_3540_00000120534502921789821880000005001779107592985221_);}
	.st45{clip-path:url(#SVGID_00000182500729040540153070000006560773536194856352_);}
	.st46{fill:#FCCB90;}
	.st47{fill:#E78456;}
	.st48{clip-path:url(#SVGID_00000031898169826794608570000000528511362122622624_);}
	.st49{clip-path:url(#SVGID_00000066508150789513644090000013801374774952401297_);}
	.st50{clip-path:url(#SVGID_00000010299500413746668730000011061037492750082234_);}
	.st51{fill:#480D4F;}
	.st52{clip-path:url(#SVGID_00000110434618244868299150000015336656002852540832_);}
	.st53{fill:#57F7E4;}
	.st54{fill:#F9C59B;}
	.st55{opacity:0.45;}
	.st56{clip-path:url(#SVGID_00000111190331682564516430000017822009256994361244_);}
	.st57{clip-path:url(#SVGID_00000021103237569477081650000003418762546581251995_);}
	.st58{clip-path:url(#SVGID_00000043422676086173051040000002606988551946506894_);}
	.st59{clip-path:url(#SVGID_00000165200125473604674200000010499190507143756704_);}
	.st60{clip-path:url(#SVGID_00000097498445346178180200000017365513767828136843_);}
	.st61{fill:url(#Rectangle_3466_00000015345483410897080680000000457091405373148328_);}
	.st62{clip-path:url(#SVGID_00000173875881490282579720000002675868950657782935_);}
	.st63{clip-path:url(#SVGID_00000096781480356823195140000006377200494605294511_);}
	.st64{clip-path:url(#SVGID_00000011735805788672551700000016589946671407115670_);}
	.st65{fill:url(#Rectangle_3469_00000119824119774640167780000006341850146605097118_);}
	.st66{clip-path:url(#SVGID_00000104697722085221669860000005661633508128639164_);}
	.st67{clip-path:url(#SVGID_00000119104769669482786410000014622116874854824578_);}
	.st68{clip-path:url(#SVGID_00000167357378215029510780000004618913814131888562_);}
	.st69{clip-path:url(#SVGID_00000052066925382417555340000000710318392890120878_);}
	.st70{clip-path:url(#SVGID_00000078005081109918212800000014769774493012091287_);}
	.st71{clip-path:url(#SVGID_00000011731377928964409770000017038066249253382024_);}
	.st72{clip-path:url(#SVGID_00000127042626230704257210000000546035324955468432_);}
	.st73{clip-path:url(#SVGID_00000173865248949705231170000009407276248659316906_);}
	.st74{clip-path:url(#SVGID_00000086691973174964027690000015757703582144359342_);}
	.st75{clip-path:url(#SVGID_00000002363424928230693890000008597704818524907692_);}
	.st76{opacity:0.56;}
	.st77{clip-path:url(#SVGID_00000150805303906971506780000004859827661471253123_);}
	.st78{clip-path:url(#SVGID_00000012474924155698931730000009198020666676700563_);}
	.st79{fill:#4C4C4C;}
	.st80{fill:#2B2B2B;}
	.st81{clip-path:url(#SVGID_00000080921240826593993420000010627047114171476122_);}
	.st82{clip-path:url(#SVGID_00000010298104185572123890000010458750166652090033_);}
	.st83{clip-path:url(#SVGID_00000065040814144816856310000017497082213495941760_);}
	.st84{clip-path:url(#SVGID_00000078736211316244343660000003860544630169350583_);}
	.st85{opacity:0.1;}
	.st86{clip-path:url(#SVGID_00000067227403926033067880000015774148180723714726_);}
	.st87{fill:#F7F7F7;}
	.st88{clip-path:url(#SVGID_00000070119939490078171230000009114548578186510522_);}
	.st89{clip-path:url(#SVGID_00000021080156786054545700000001522311022404908729_);}
	.st90{opacity:0.78;}
	.st91{clip-path:url(#SVGID_00000041253710389357785250000016268062857318292131_);}
	.st92{clip-path:url(#SVGID_00000018917479313619742670000009685988490767537839_);}
	.st93{clip-path:url(#SVGID_00000136395407869884139440000012619287767530418092_);}
	.st94{clip-path:url(#SVGID_00000088132836844176245910000007511445255564922296_);}
	.st95{clip-path:url(#SVGID_00000023266122379769296410000003839467787430616493_);}
	.st96{clip-path:url(#SVGID_00000147185629471965902960000002950353905821129389_);}
	.st97{fill:#3A083F;}
	.st98{clip-path:url(#SVGID_00000176745244853160185320000003684453084716312721_);}
	.st99{clip-path:url(#SVGID_00000142866354696105467040000001570596993572509868_);}
	.st100{fill:#D8AA45;}
	.st101{clip-path:url(#SVGID_00000034082655633561946920000011776561140348027834_);}
	.st102{clip-path:url(#SVGID_00000008149124724443283820000005492482143621552828_);}
	.st103{fill:#410847;}
	.st104{fill:#4F4F4F;}
	.st105{fill:#FFBC36;}
	.st106{clip-path:url(#SVGID_00000039091428454847007390000008504999194117260173_);}
	.st107{clip-path:url(#SVGID_00000031177043732458922970000004115748644745043616_);}
	.st108{clip-path:url(#SVGID_00000035489739624061904820000005227725168209954973_);}
	.st109{opacity:0.6;}
	.st110{clip-path:url(#SVGID_00000002363255445094290030000009779160948700949434_);}
	.st111{clip-path:url(#SVGID_00000076603226077024471570000016246750813327362461_);}
	.st112{fill:none;stroke:#000000;stroke-width:4;stroke-miterlimit:10;}
	.st113{clip-path:url(#SVGID_00000142862608364979581370000001423446797973357742_);}
	.st114{clip-path:url(#SVGID_00000013158249234295397150000004646267225097907372_);}
	.st115{fill:none;stroke:#000000;stroke-width:4;stroke-linecap:round;stroke-linejoin:round;}
	.st116{clip-path:url(#SVGID_00000005956523363618145540000007771359226718557074_);}
</style>
<g id="Group_6897" transform="translate(0 0)">
	<g>
		<defs>
			<rect id="SVGID_00000007428734934868244930000016875093114974763708_" x="37.5" y="9.3" width="132" height="115.9"/>
		</defs>
		<clipPath id="SVGID_00000115498207288239943320000007067223629338646921_">
			<use xlink:href="#SVGID_00000007428734934868244930000016875093114974763708_"  style="overflow:visible;"/>
		</clipPath>
		
			<g id="Group_6896" transform="translate(0 0)" style="clip-path:url(#SVGID_00000115498207288239943320000007067223629338646921_);">
			<g id="Group_6895">
				<g>
					<defs>
						<rect id="SVGID_00000046304971690685678730000001679529194528107422_" x="37.5" y="9.3" width="132" height="115.9"/>
					</defs>
					<clipPath id="SVGID_00000068651226366126122880000007309888914423198099_">
						<use xlink:href="#SVGID_00000046304971690685678730000001679529194528107422_"  style="overflow:visible;"/>
					</clipPath>
					<g id="Group_6894" style="clip-path:url(#SVGID_00000068651226366126122880000007309888914423198099_);">
						<g id="Group_6887" transform="translate(0 105.804)" class="st2">
							<g id="Group_6886">
								<g>
									<defs>
										<rect id="SVGID_00000008843909642147259510000005552912833958299792_" x="37.5" y="9.3" width="129.2" height="10.1"/>
									</defs>
									<clipPath id="SVGID_00000063598381382804099980000018172246927254402750_">
										<use xlink:href="#SVGID_00000008843909642147259510000005552912833958299792_"  style="overflow:visible;"/>
									</clipPath>
									<g id="Group_6885" style="clip-path:url(#SVGID_00000063598381382804099980000018172246927254402750_);">
										<path id="Path_13190" d="M166.7,14.3c0-2.8-28.9-5-64.6-5s-64.6,2.3-64.6,5s28.9,5,64.6,5S166.7,17.1,166.7,14.3"/>
									</g>
								</g>
							</g>
						</g>
						<path id="Path_13191" class="st11" d="M169.2,64.9c0-0.1,0-0.3,0-0.4c0-10.1-1-20.2-3.2-30.1c-0.3-1.7-1.7-2.9-3.4-3.2
							c-19.4-2.4-86.2-1.7-101.6-1.5c-2,0.1-3.7,1.5-4,3.5c-1.3,7.2-1.3,17.6-1,24.7H56l1.2,37.3c0.2,6.5,5.6,11.7,12.1,11.7
							l89.4,0.5c4.4,0,8.1-3.1,8.7-7.5C169.2,88.4,169.8,76.7,169.2,64.9"/>
						<path id="Path_13192" class="st51" d="M128.9,68.9c0,8.9-7.2,16.2-16.2,16.2c-8.9,0-16.2-7.2-16.2-16.2s7.2-16.2,16.2-16.2
							c0,0,0,0,0,0C121.7,52.7,128.9,60,128.9,68.9"/>
						<path id="Path_13193" d="M148.9,120.7c0-0.1,0-0.1,0-0.2c1-3.8,5.8-6.2,5.8-6.2l1.9,0.1c0.8,2,1,4.2,0.8,6.4c0,0,0,0.1,0,0.1
							C154.5,121.1,151.7,121,148.9,120.7"/>
						<path id="Path_13194" d="M130.4,120.6c-3-0.4-6.9-1-9.1-1.4c2.4-2.5,9.5-3.8,9.5-3.8l2,0.2c0.9,1.5,1.3,3.2,1.1,4.9
							C132.8,120.8,131.6,120.8,130.4,120.6"/>
						<path id="Path_13195" class="st12" d="M133.4,112.4l-0.5,3.6c-0.1,0.4-0.4,0.7-0.8,0.7c-0.5,0-1-0.1-1.5-0.2
							c-0.3-0.1-0.6-0.5-0.6-0.8l-0.3-3.6L133.4,112.4z"/>
						<path id="Path_13196" class="st12" d="M156.1,110.9l0.6,3.7c0.1,0.5-0.2,0.9-0.6,1.1c-0.6,0.3-1.3,0.4-1.9,0.3
							c-0.3-0.1-0.5-0.3-0.6-0.6l-1-3.9L156.1,110.9z"/>
						<path id="Path_13197" class="st7" d="M157.1,112c-1.2,0.9-4.9,0.7-4.9,0.7c-10.6-32.7-15.3-41.8-15.3-41.8
							c0.9,12.1-3.1,42.5-3.1,42.5c-1.7,0.4-3.4,0.3-5-0.4c1.4-19.5,0.4-40.7-2-54.4c8.9,0.5,15,8.8,16.6,7.7
							C149.9,78.9,157.1,112,157.1,112"/>
						<g id="Group_6890" transform="translate(93.825 36.553)" class="st40">
							<g id="Group_6889">
								<g>
									<defs>
										<rect id="SVGID_00000129913349322774361150000012449678652340893861_" x="37.5" y="9.3" width="20.7" height="14.9"/>
									</defs>
									<clipPath id="SVGID_00000028325454275285636270000008584667618509961641_">
										<use xlink:href="#SVGID_00000129913349322774361150000012449678652340893861_"  style="overflow:visible;"/>
									</clipPath>
									<g id="Group_6888" style="clip-path:url(#SVGID_00000028325454275285636270000008584667618509961641_);">
										<path id="Path_13198" class="st22" d="M37.6,24c0.3,0,0.5-0.1,0.8-0.2c0.3-0.1,0.5-0.2,0.8-0.3c0.5-0.2,1-0.5,1.4-0.8
											c0.9-0.6,1.7-1.3,2.5-2.1c1.5-1.6,3-3.3,4.2-5.1c0.6-0.9,1.3-1.8,2-2.7c0.7-0.9,1.5-1.7,2.4-2.4c0.5-0.3,1-0.6,1.5-0.8
											c0.5-0.2,1.1-0.3,1.7-0.3c1.1,0,2.2,0.1,3.3,0.4c0,0,0.1,0.1,0,0.1c0,0,0,0.1-0.1,0l0,0c-1.1-0.3-2.2-0.4-3.3-0.3
											c-0.5,0.1-1.1,0.2-1.6,0.4c-0.5,0.2-1,0.4-1.4,0.8c-0.9,0.7-1.6,1.5-2.2,2.3c-0.7,0.9-1.3,1.8-1.9,2.7
											c-0.6,0.9-1.3,1.8-2,2.7c-0.2,0.2-0.4,0.4-0.5,0.6s-0.4,0.4-0.6,0.6L44,20.4l-0.6,0.6c-0.8,0.8-1.7,1.5-2.7,2.1
											c-0.5,0.3-1,0.5-1.5,0.8c-0.5,0.2-1.1,0.4-1.6,0.4c-0.1,0-0.1,0-0.1-0.1S37.5,24,37.6,24L37.6,24z"/>
									</g>
								</g>
							</g>
						</g>
						<path id="Path_13199" class="st31" d="M93,46c0,0-0.9-2.5-2-2.2c-0.8,0.2-1.6,0.6-2.3,1.1L87,47.2c0,0,4.9,1.9,6.6,0.8
							c3.8,0.5,7.6,0.5,11.3-0.2c-0.8-1.7-1.4-3.5-1.8-5.4C100.1,44.3,96.6,45.5,93,46"/>
						<path id="Path_13200" class="st18" d="M119.6,28.2c0,0-7.2,9-16.4,14.3c0.4,1.9,1,3.7,1.8,5.4c5.6-0.8,10.8-3.2,15-6.8
							L119.6,28.2z"/>
						<path id="Path_13201" class="st18" d="M128,66.4c0,0-0.3-9.5-7-21.3c-2.1-3.7-2.8-8-2.2-12.2l0.7-4.7
							c6.3-1.8,12.9-1.9,19.3-0.1c0,0,14,8.7,4.7,38.3C138.6,68.6,132.9,68.6,128,66.4"/>
						<path id="Path_13202" class="st31" d="M121.1,22.2l2.4,5.7c0.1,0.4,0.5,0.6,0.9,0.7c1.4,0.2,4.7,0.6,6.8-0.8
							c0.3-0.2,0.3-0.5,0.2-0.8c0,0,0,0,0,0l-4.4-6.3L121.1,22.2z"/>
						<path id="Path_13203" class="st14" d="M127,48.9c-0.3,0.1-0.4,0.4-0.4,0.6c0,0,0,0.1,0,0.1l6.9,13.1c0.1,0.2,0.4,0.3,0.6,0.3
							l22.4-6.5c0.3-0.1,0.4-0.4,0.4-0.7L153,42.6c-0.1-0.3-0.4-0.4-0.6-0.4L127,48.9z"/>
						<path id="Path_13204" class="st53" d="M128.4,47.4c-0.3,0.1-0.5,0.4-0.4,0.7c0,0,0,0,0,0.1l5.5,14.9c0.1,0.3,0.4,0.4,0.7,0.3
							l22.3-6.5c0.3-0.1,0.4-0.4,0.4-0.6l-3.1-14.3c-0.1-0.3-0.4-0.5-0.7-0.4c0,0,0,0,0,0L128.4,47.4z"/>
						<path id="Path_13205" class="st9" d="M130.3,45.9c-0.4,0.1-0.6,0.4-0.6,0.8c0,0,0,0,0,0.1l3.7,16.1c0.1,0.4,0.4,0.6,0.8,0.5
							c0,0,0,0,0,0l22-6.4c0.4-0.1,0.6-0.5,0.5-0.8L153.5,43c-0.1-0.3-0.4-0.6-0.8-0.5L130.3,45.9z"/>
						<path id="Path_13206" class="st18" d="M148.2,52c1.7-12.9-8.2-22.8-8.2-22.8l-5.9,6.9c3.6,4.3,6.2,9.3,7.6,14.8
							C142.9,50.5,146,49.9,148.2,52"/>
						<path id="Path_13207" class="st6" d="M141.6,51c-0.1,0-0.1,0-0.1-0.1c-1.4-5.4-4-10.4-7.6-14.7c-0.1-0.1,0-0.2,0-0.2
							c0.1-0.1,0.2,0,0.2,0c3.6,4.3,6.2,9.4,7.6,14.8C141.8,50.9,141.7,51,141.6,51C141.6,51,141.6,51,141.6,51"/>
						<path id="Path_13208" class="st31" d="M141.6,50.8c0.7,2.6,0.9,5.2,0.7,7.9c-0.1,0.5-0.5,0.9-1,0.9c-0.6,0-1.4,0.1-2,0.1
							c-0.8,0-1.6-0.3-2.2-0.8c-0.2-0.1-0.4-0.1-0.5,0.1c-0.1,0.1-0.1,0.2,0,0.3c0.6,0.8,1.3,1.5,2.2,2c0.2,0.1,0.2,0.3,0.1,0.5
							c0,0.1-0.1,0.1-0.2,0.2l-3.2,0.9c5.2,4.9,8.7-0.6,8.7-0.6c2.1-3.1,3.4-6.6,3.9-10.3C146,49.9,142.9,50.5,141.6,50.8"/>
						<path id="Path_13209" class="st31" d="M123.6,13.5c-0.1,0.1-4.2,8.1-4.2,8.1l4.6,2.2l5-7.1C129,16.8,125.2,11.9,123.6,13.5"/>
						<path id="Path_13210" d="M126.9,17.7l-2.3,3.9c0,0.1-0.1,0.1-0.1,0.2c-0.4,0.5-1.2,0.6-1.7,0.2c-0.1-0.1-0.2-0.2-0.2-0.2
							c-0.5-0.8-1.1-1.5-1.8-2c-0.4-0.2-0.8,0-1,0.3c0,0,0,0,0,0c-0.6,1.2-1.1,2.5-1.6,3.8c-0.1,0.4,0.1,0.8,0.4,0.9
							c1.4,0.6,2.9,1,4.4,1.3c0.3,0,0.5-0.1,0.7-0.3c0.7-1,2.7-3.7,3.4-4.4c0.6-0.6,1.8-0.4,2.3-0.2c0.2,0.1,0.4,0,0.6-0.1
							c0.8-0.4,1.2-1.3,0.8-2.2c-0.1-0.1-0.1-0.2-0.2-0.3c-0.2-0.3-0.1-0.8,0.2-1c0.8-0.4,1.1-1.4,0.7-2.2c0,0,0-0.1-0.1-0.1
							c-0.5-0.9-1.5-1.4-2.5-1.2c-0.3,0-0.7-0.1-0.8-0.4c-0.1-0.2-0.2-0.3-0.4-0.3c-0.4-0.1-0.7-0.4-0.6-0.8c0,0,0,0,0,0
							c0.2-0.9-0.2-1.8-1.1-2.2c-2-1.1-3.8,0.7-4.2,2.2s1.8,2.6,3.2,2.8c1,0.1,1.6,1.3,1.8,1.9C127.1,17.2,127,17.4,126.9,17.7"/>
						<path id="Path_13211" class="st31" d="M126.2,22.7c0,0,0.9-2.6,2-2.5s2,1.2,0.6,2.5C127.1,24.3,126.2,22.7,126.2,22.7"/>
						<path id="Path_13212" d="M54.8,120.2c0-0.1,0-0.1,0-0.2c-1-3.8-5.8-6.2-5.8-6.2l-1.9,0.1c-0.8,2-1,4.2-0.8,6.4
							c0,0,0,0.1,0,0.1C49.2,120.6,52,120.5,54.8,120.2"/>
						<path id="Path_13213" class="st12" d="M46.4,111.1l0.8,3.9c0,0.3,0.3,0.5,0.5,0.5c0.4,0,0.8,0,1.2,0c0.4-0.1,0.7-0.5,0.6-0.9
							l-0.6-3.4H46.4z"/>
						<path id="Path_13214" d="M71.7,120C71.7,120,71.7,120,71.7,120c-2.2-2.9-5.3-4.9-8.8-5.6l-2.5-0.1c-0.8,1.7-1.2,3.6-1.1,5.4
							c1.2,0.4,2.5,0.6,3.8,0.5C66.3,120.4,70.2,120.2,71.7,120"/>
						<path id="Path_13215" class="st12" d="M59.9,110.8c0,0.2,0.6,2.9,0.7,4c0,0.2,0.2,0.4,0.5,0.5c0.6,0,1.1,0,1.7-0.1
							c0.3-0.1,0.5-0.4,0.5-0.8L63,110L59.9,110.8z"/>
						<path id="Path_13216" class="st5" d="M58,65.8c0,0,3.3,17.2,5.8,44.9c0,0.5-0.4,1-0.9,1.1c-0.9,0.2-1.8,0.3-2.8,0.3
							c-0.5,0-0.9-0.4-1-0.9c-0.8-4.9-6.8-31.1-8.3-36.8c0,0-1.8,24.5-1.2,37.2c0,0.3-0.2,0.6-0.5,0.6c-0.7,0.1-1.5,0.1-2.2,0
							c-0.4,0-0.7-0.3-0.7-0.7c-0.6-4.1-3.2-28.7-3.1-46.4c0-1,0.4-9.2,0.4-9.2L58,65.8z"/>
						<path id="Path_13217" class="st9" d="M43.2,65.5c0,0-2.2-28.5,14-38.4c0,0,4.5-3,10.2,2.8s3.8,11.8-0.9,17.5
							c-4.7,5.6-9.6,12.7-8.4,18.4c-2.3,1-4.9,1.5-7.4,1.4C48.1,67.2,45.5,66.6,43.2,65.5"/>
						<path id="Path_13218" class="st54" d="M65.4,18.5c0,0.4-5.4,8.1-5.4,8.1s1,1.9,5.6,3.5l4-8.2L65.4,18.5z"/>
						<path id="Path_13219" class="st54" d="M63.2,44.9c0,0,10.2,8.6,21.3,4.8c0.7-0.2,1.4-0.2,2.1,0.2l3.2,1.7
							c1.3,0.7,3,0.2,3.8-1.1c0.5-0.7,0.8-1.5,0.9-2.4l-6.2-2.5l0.5-0.8c0,0-3-0.3-3.8,1.9c0,0-5.8,2.4-15.6-8.3
							C69.3,38.4,64.9,42.2,63.2,44.9"/>
						<path id="Path_13220" class="st53" d="M62.7,44.8c0,0-0.1,0-0.1,0c-2.8-2-4.9-4.6-6.4-7.7c-0.1-0.1,0-0.2,0.1-0.3
							c0.1-0.1,0.2,0,0.3,0.1c0,0,0,0,0,0c1.4,3,3.5,5.6,6.2,7.5c0.1,0.1,0.1,0.2,0.1,0.3C62.8,44.8,62.8,44.8,62.7,44.8"/>
						<path id="Path_13221" class="st53" d="M69.1,38.3c-0.1,0-0.1,0-0.2-0.1c0,0-1.3-2.1-3.8-6.6c-0.6-1.2-1.7-2.2-3-2.6
							c-1.3-0.3-2.8-0.1-4,0.5c-0.1,0.1-0.2,0-0.3-0.1c-0.1-0.1,0-0.2,0.1-0.3c2.6-1.5,5.9-0.6,7.4,2c0.1,0.1,0.1,0.2,0.1,0.3
							c2.5,4.5,3.8,6.5,3.8,6.5c0.1,0.1,0,0.2-0.1,0.3c0,0,0,0,0,0C69.2,38.3,69.2,38.3,69.1,38.3"/>
						<path id="Path_13222" class="st54" d="M69.6,14.1c0,0,1.9,4.4,2.1,6.7s0.6,3.8-2.1,4.3c-2.5,0.5-5.1-0.8-6.2-3.2
							c0,0-1.9-3.6-1.5-5S69.6,14.1,69.6,14.1"/>
						<path id="Path_13223" d="M64.4,20.3l0.2-0.1c0.2-0.1,0.3-0.3,0.2-0.5c0,0,0,0,0,0c-0.4-0.7-1.1-2.4-0.2-2.8
							c1.2-0.5,6.1-1.5,7.1-3.2c0.9-1.5,0.4-3.5-1.2-4.4c0,0,0,0,0,0c-0.1,0-0.2,0-0.2,0.1l-0.1,0.2c0,0.1-0.2,0.1-0.2,0.1
							c0,0-0.1-0.1-0.1-0.1c0-0.1-0.1-0.2-0.2-0.1c0,0-0.1,0-0.1,0.1c-0.3,0.5-1.2,1.4-3.5,1.8c-3.3,0.6-5.5,1.9-5.5,4.2
							c0,0.1-0.1,0.2-0.2,0.2c0,0-0.1,0-0.1,0c-0.2-0.1-0.6-0.2-1.2,0.2c-0.9,0.8-0.5,2.7,1.5,4.4c0.1,0.1,0.1,0.2,0,0.3
							c0,0,0,0,0,0c-0.4,0.2-0.9,0.8,0.5,1.5c0.9,0.5,1.9,0.8,2.9,0.6c0.1,0,0.2-0.1,0.1-0.2c0,0,0,0,0,0l-0.4-2
							c0-0.1,0-0.2,0.1-0.2c0,0,0,0,0,0H64.4z"/>
						<path id="Path_13224" class="st54" d="M64.5,20.7c0,0-0.7-2.8-2-2s0.7,3.2,1.7,3.3L64.5,20.7z"/>
						<path id="Path_13225" class="st31" d="M86.6,49.9c0,0,2.6,2.5,3.1,2.2c0.4-0.4,0.7-0.7,1.1-1.1c0.3-0.4,0.3-0.9,0.1-1.3
							l-0.6-0.9c-0.5-0.8-1.6-1.1-2.5-0.5c-0.1,0-0.1,0.1-0.2,0.1C87.1,48.7,86.8,49.2,86.6,49.9"/>
						<g id="Group_6893" transform="translate(68.385 52.714)" class="st55">
							<g id="Group_6892">
								<g>
									<defs>
										<rect id="SVGID_00000112593156713915611120000004727623153591502237_" x="37.5" y="9.3" width="13.7" height="13.7"/>
									</defs>
									<clipPath id="SVGID_00000107587124181404876860000017156858873889451167_">
										<use xlink:href="#SVGID_00000112593156713915611120000004727623153591502237_"  style="overflow:visible;"/>
									</clipPath>
									<g id="Group_6891" style="clip-path:url(#SVGID_00000107587124181404876860000017156858873889451167_);">
										<path id="Path_13226" class="st22" d="M39,10.6c0.5-0.1,1,0.2,1.1,0.7c0.1,0.5-0.2,1-0.7,1.1c-0.5,0.1-1-0.2-1.1-0.7
											C38.2,11.3,38.5,10.8,39,10.6C39,10.6,39,10.6,39,10.6"/>
										<path id="Path_13227" class="st22" d="M51.2,15.9c-0.1-3.8-3.3-6.7-7.1-6.6c-0.8,0-1.6,0.2-2.3,0.5
											c-0.3,0.1-0.4,0.5-0.3,0.8c0,0,0,0,0,0l0.4,0.9c0.7-0.4,1.5-0.6,2.3-0.6c1-0.1,2,0.2,2.9,0.7c0.4,0.2,0.7,0.5,1,0.8
											c0.3,0.3,0.6,0.7,0.8,1c0.2,0.3,0.1,0.7-0.2,0.9l-0.7,0.5c-0.1,0.1-0.2,0.1-0.4,0.1c-0.2,0-0.4-0.1-0.5-0.3
											c-0.3-0.5-0.7-0.9-1.1-1.2c-0.5-0.3-1.2-0.4-1.8-0.4c-0.4,0-0.8,0.1-1.2,0.2c-0.1,0-0.1,0.1-0.2,0.1l0,0l-0.1,0
											c-0.6,0.3-1,0.8-1.3,1.5c-0.1,0.4-0.2,0.8-0.2,1.3c0,0.4,0.1,0.8,0.2,1.2c0.1,0.4,0.4,0.7,0.6,1c0.3,0.3,0.6,0.5,0.9,0.6
											c0.4,0.2,0.8,0.2,1.2,0.2c0.6,0,1.2-0.1,1.8-0.4c0.2-0.1,0.4-0.3,0.6-0.5c0.2-0.2,0.4-0.4,0.5-0.7
											c0.2-0.3,0.6-0.4,0.9-0.2c0,0,0,0,0,0l0,0l0.7,0.5c0.3,0.2,0.4,0.6,0.2,0.9c-0.5,0.8-1.1,1.4-1.8,1.8
											c-0.9,0.5-1.8,0.7-2.8,0.7c-0.7,0-1.4-0.1-2.1-0.4c-0.6-0.3-1.2-0.6-1.6-1.1c-0.5-0.5-0.8-1.1-1.1-1.7
											c-0.3-0.7-0.4-1.4-0.4-2.1c0-0.6,0.1-1.2,0.3-1.8L38.6,14c-0.3-0.1-0.7,0-0.9,0.3c0,0,0,0.1,0,0.1c-1,3.7,1.2,7.4,4.9,8.4
											c3.7,1,7.4-1.2,8.4-4.9C51.2,17.3,51.3,16.6,51.2,15.9L51.2,15.9z"/>
									</g>
								</g>
							</g>
						</g>
					</g>
				</g>
			</g>
		</g>
	</g>
</g>
</svg>
