<svg width="715" height="349" viewBox="0 0 125 95" fill="none" xmlns="http://www.w3.org/2000/svg">
<path d="M95.9536 72.7134C108.215 60.4523 108.215 40.5731 95.9536 28.312C83.6925 16.0509 63.8134 16.0509 51.5522 28.312C39.2911 40.5731 39.2911 60.4523 51.5522 72.7134C63.8134 84.9745 83.6925 84.9745 95.9536 72.7134Z" fill="#41EFDE"/>
<g opacity="0.56">
<path opacity="0.56" d="M92.7042 69.4587C103.168 58.9946 103.168 42.0289 92.7042 31.5647C82.2401 21.1006 65.2744 21.1006 54.8103 31.5647C44.3461 42.0289 44.3461 58.9946 54.8103 69.4587C65.2744 79.9228 82.2401 79.9228 92.7042 69.4587Z" fill="white"/>
<path opacity="0.56" d="M58.9423 73.522C52.7901 69.5561 48.5699 63.4547 47.0191 56.3109L47.5784 56.1838L47.0191 56.3109C45.4684 49.1672 46.7903 41.8455 50.7563 35.7187C54.7222 29.5664 60.8236 25.3463 67.9673 23.7955C75.111 22.2447 82.4327 23.5667 88.5596 27.5326C94.7118 31.4985 98.932 37.6 100.483 44.7437C102.034 51.8874 100.712 59.2091 96.7456 65.3359C92.7797 71.4882 86.6783 75.7083 79.5346 77.2591C77.577 77.6913 75.6449 77.8947 73.6874 77.8947C68.5012 77.8947 63.4167 76.3947 58.9423 73.522ZM68.1961 24.8887C61.3575 26.3632 55.4849 30.4308 51.6969 36.3288C47.9089 42.2269 46.6378 49.218 48.1123 56.0821C49.5868 62.9208 53.6544 68.7934 59.5525 72.5813C65.4505 76.3693 72.4417 77.6404 79.3058 76.1659C86.1444 74.6914 92.017 70.6238 95.805 64.7258C99.5929 58.8278 100.864 51.8366 99.3896 44.9725C97.9151 38.1338 93.8475 32.2612 87.9494 28.4733C83.653 25.7022 78.7973 24.2785 73.8145 24.2785C71.9587 24.304 70.0774 24.5073 68.1961 24.8887Z" fill="white"/>
</g>
<path d="M81.1967 65.0426C89.2191 60.9331 92.3912 51.0983 88.2818 43.0758C84.1723 35.0534 74.3374 31.8813 66.315 35.9908C58.2925 40.1003 55.1204 49.9351 59.2299 57.9576C63.3394 65.98 73.1743 69.1521 81.1967 65.0426Z" fill="#41EFDE"/>
<path d="M64.612 64.7253C60.824 62.2847 58.2055 58.4967 57.2394 54.0986C56.2734 49.6751 57.1123 45.1753 59.5529 41.362C61.9934 37.574 65.7814 34.9555 70.1795 33.9894C74.603 33.0234 79.1028 33.8623 82.9162 36.3029C86.7041 38.7434 89.3226 42.5314 90.2887 46.9295C91.2548 51.353 90.4158 55.8528 87.9752 59.6662C85.5347 63.4541 81.7467 66.0727 77.3486 67.0387C76.1538 67.2929 74.9335 67.4201 73.7386 67.4201C70.51 67.4201 67.3576 66.5048 64.612 64.7253ZM70.4337 35.108C66.3153 35.9978 62.807 38.4384 60.5189 41.9721C58.2309 45.5058 57.4682 49.726 58.358 53.8444C59.2478 57.9629 61.6884 61.4712 65.2221 63.7592C68.7558 66.0472 72.976 66.8099 77.0944 65.9201C81.2129 65.0303 84.7212 62.5898 87.0092 59.056C89.2972 55.5223 90.0599 51.3022 89.1701 47.1837C88.2803 43.0653 85.8398 39.557 82.306 37.2689C79.7384 35.6165 76.7893 34.7521 73.8149 34.7521C72.6709 34.7521 71.5523 34.8792 70.4337 35.108Z" fill="#41EFDE"/>
<g opacity="0.56">
<path opacity="0.56" d="M76.1808 56.3613C79.4123 55.0265 80.9498 51.3249 79.615 48.0934C78.2802 44.862 74.5785 43.3245 71.3471 44.6593C68.1157 45.9941 66.5782 49.6958 67.913 52.9272C69.2478 56.1586 72.9494 57.6961 76.1808 56.3613Z" fill="white"/>
<path opacity="0.56" d="M67.0253 51.9896C66.644 50.1846 66.9745 48.3542 67.9659 46.8034C68.9574 45.2527 70.5082 44.1849 72.3132 43.8036C76.0249 42.9901 79.7111 45.3798 80.5247 49.0915C80.906 50.8965 80.5755 52.7269 79.584 54.2777C78.5926 55.8284 77.0418 56.8962 75.2368 57.2775C74.7538 57.3792 74.2453 57.43 73.7623 57.43C70.5845 57.43 67.7117 55.2183 67.0253 51.9896ZM72.542 44.8967C71.0421 45.2272 69.7455 46.117 68.932 47.4136C68.093 48.7101 67.8134 50.2355 68.1439 51.7354C68.7286 54.4302 71.1183 56.2606 73.7623 56.2606C74.169 56.2606 74.5758 56.2098 74.9826 56.1335C76.4825 55.803 77.779 54.9132 78.5926 53.6167C79.4315 52.3201 79.7111 50.7948 79.3807 49.2948C78.7959 46.6001 76.4062 44.7696 73.7623 44.7696C73.3555 44.7696 72.9488 44.8205 72.542 44.8967Z" fill="white"/>
</g>
<path d="M81.2633 45.3L81.9102 46.3047L120.001 21.7777L119.354 20.773L81.2633 45.3Z" fill="#66126C"/>
<path d="M82.282 43.4467C82.8668 43.0654 84.6209 45.7856 84.0362 46.1669L74.3248 50.8955C73.9689 51.0735 73.6638 50.5904 73.9689 50.3362L82.282 43.4467Z" fill="#66126C"/>
<path d="M119.961 21.8125L124.079 23.1345L117.062 27.6597C114.749 29.1342 111.902 29.5155 109.309 28.6766L119.961 21.8125Z" fill="#F9C84E"/>
<path d="M119.32 20.7954L119.803 16.499L112.761 21.0242C110.448 22.4987 108.948 24.9393 108.617 27.6595L119.32 20.7954Z" fill="#F9C84E"/>
<path d="M62.3499 31.0162C62.3754 31.0162 62.3754 31.0162 62.4008 31.0162L62.5533 30.9399C62.6042 30.9145 62.6296 30.8382 62.6042 30.7874C62.5787 30.7365 62.5025 30.7111 62.4516 30.7365L62.2991 30.8128C62.2483 30.8382 62.2228 30.9145 62.2483 30.9653C62.2737 30.9908 62.3245 31.0162 62.3499 31.0162Z" fill="white"/>
<path d="M6.11283 68.3869C6.11283 68.3869 5.52811 69.2004 5.2993 71.5393C5.27388 71.7681 5.45184 71.946 5.65522 71.9715L9.79909 72.1748C9.97705 72.1748 10.1042 72.0223 10.0533 71.8698C9.84994 71.1325 9.18895 69.3529 7.61276 68.2598L6.11283 68.3869Z" fill="black"/>
<path d="M5.55469 67.1158L6.01229 69.0479C6.06314 69.2258 6.19025 69.3275 6.36821 69.3275C6.59701 69.3275 6.92751 69.3021 7.23258 69.2258C7.51222 69.1496 7.69018 68.8699 7.66476 68.5649L7.46138 66.6836L5.55469 67.1158Z" fill="#FFD6BB"/>
<path d="M15.6242 68.5391C15.6242 68.5391 14.7852 69.7593 14.7344 71.4372C14.7344 71.844 15.0394 72.1745 15.4462 72.1745L21.9035 72.4033C22.2086 72.4033 22.3357 72.0219 22.1069 71.844C20.912 70.9542 18.5732 69.2509 16.8444 68.5645L15.6242 68.5391Z" fill="black"/>
<path d="M15.4453 66.4804L15.6233 68.9718C15.6487 69.2515 15.8775 69.4548 16.1571 69.4548C16.3351 69.4294 16.5385 69.404 16.7419 69.3023C16.9452 69.2006 17.0978 68.9972 17.0723 68.743L16.9707 65.7432L15.4453 66.4804Z" fill="#FFD6BB"/>
<path d="M2.60624 33.7363C2.60624 33.7363 1.05547 35.4651 0.928353 37.3463C0.801241 39.2276 5.42814 68.972 5.42814 68.972C5.42814 68.972 7.1823 69.0736 8.02124 68.4127C8.02124 68.4127 6.90265 48.8882 7.1823 44.3121C7.1823 44.3121 13.665 63.9383 15.2412 67.4212C15.2412 67.4212 16.9445 67.4466 17.4276 67.0653C17.4276 67.0653 13.3854 41.1343 11.4787 36.6599L2.60624 33.7363Z" fill="#4C4C4C"/>
<path d="M7.05444 43.7521C7.07986 43.7521 7.10528 43.7521 7.15613 43.7267C7.28324 43.6759 7.35951 43.5233 7.30867 43.3962L6.26634 40.6506C6.24092 40.5997 6.19007 40.5489 6.13923 40.5235L4.43592 39.6845C4.3088 39.6337 4.15627 39.6845 4.10542 39.8116C4.05458 39.9387 4.10542 40.0913 4.23253 40.1421L5.85958 40.9302L6.87648 43.5742C6.85106 43.7013 6.95275 43.7521 7.05444 43.7521Z" fill="#2B2B2B"/>
<path d="M17.7575 14.5416C10.385 14.7704 8.65625 16.4737 8.65625 16.4737L12.8001 21.6091C12.8001 21.6091 19.9438 20.6685 24.647 16.1178C23.5793 15.2026 22.7657 14.1095 22.2319 13.2705C20.9608 13.9823 19.4862 14.4908 17.7575 14.5416Z" fill="#C3FCF2"/>
<path d="M27.9799 2.54226C27.9544 2.31346 27.6239 2.28804 27.5477 2.51684L26.8359 4.60149C26.7087 5.00825 26.6833 5.44043 26.8104 5.84719L27.268 6.96578C27.4206 7.52508 27.3443 8.1098 27.0392 8.59282C26.302 9.76226 24.7004 11.9232 22.2344 13.296C22.7682 14.1349 23.5563 15.2027 24.6495 16.1433C26.3782 14.4654 27.7511 12.3299 28.3358 9.55888C28.7425 9.38092 28.9713 8.94874 28.9205 8.51656L27.9799 2.54226Z" fill="#FFD6BB"/>
<path d="M20.5273 17.4652C17.6546 14.9738 12.6209 14.2874 9.72276 14.084C8.45163 14.0078 7.30762 14.8213 7.00255 16.067C6.11276 19.6262 3.64677 28.9562 3.16375 30.5578C2.75699 31.8798 2.3248 33.1764 2.04516 33.9899C1.8672 34.4729 2.12142 35.0068 2.60445 35.1593C5.12128 36.0491 9.5448 36.8626 11.3498 37.1677C11.7566 37.244 12.0871 36.9135 12.0362 36.5067C12.0108 36.1762 12.0616 35.8203 12.1887 35.5152L17.5275 23.7954C22.1544 27.8885 25.7898 27.8885 28.4337 26.5919C27.7982 25.2191 27.3406 23.7954 27.0355 22.3718C22.8916 22.143 20.5273 17.4652 20.5273 17.4652Z" fill="#41EFDE"/>
<path d="M34.2043 20.6175L33.5179 19.6006C31.3316 21.5073 28.6876 22.4733 27.0352 22.3716C27.3402 23.7953 27.7978 25.1935 28.4334 26.5918C31.9417 24.8885 34.2043 20.6175 34.2043 20.6175Z" fill="#FFD6BB"/>
<path d="M33.9539 21.0241L37.691 20.6682L40.9451 18.0751C40.4112 17.7954 37.691 18.8886 37.691 18.8886C37.691 18.8886 34.7165 18.7869 33.9284 18.914C33.2675 19.0157 33.4708 20.0326 33.5471 20.3885C33.5725 20.4648 33.5725 20.4902 33.5725 20.4902L33.9539 21.0241Z" fill="#FFD6BB"/>
<path d="M13.0293 8.56738L11.4531 14.1603C11.4531 14.1603 14.1733 15.6094 16.1563 15.2281L16.7156 10.2961L13.0293 8.56738Z" fill="#FFD6BB"/>
<path d="M17.2991 5.94922C17.2991 5.94922 19.3837 9.88971 19.1295 11.4659C18.8499 13.0675 16.2568 12.9404 13.9942 11.6439L12.418 7.3983L17.2991 5.94922Z" fill="#FFD6BB"/>
<path d="M14.0979 9.55923C14.1996 9.50839 14.225 9.4067 14.1742 9.33043C13.9962 9.0762 13.6912 8.54233 13.5895 8.08472C13.5895 8.08472 13.2081 7.85592 14.5555 7.52543C15.8775 7.19494 17.8859 6.71191 18.2926 5.5679C18.6994 4.4493 17.6317 1.67825 15.9283 3.89001C15.8521 3.96628 15.725 3.96628 15.6741 3.89001C15.3945 3.53409 14.6572 2.77142 13.6403 3.22902C12.6743 3.66121 12.5726 4.34761 12.598 4.70353C12.598 4.80522 12.4963 4.88149 12.3946 4.85606C11.9116 4.75437 10.7422 4.67811 10.2083 5.87297C9.75068 6.86444 10.0558 7.39832 10.31 7.67796C10.3862 7.75423 10.3608 7.90677 10.2337 7.95761C9.90322 8.0593 9.49646 8.31353 9.5473 9.0762C9.59815 10.0931 10.7676 10.0168 11.0727 9.96599C11.1235 9.96599 11.1743 9.96599 11.2252 10.0168C11.5048 10.3219 12.776 11.6439 14.1488 11.7964C14.2759 11.8218 14.3522 11.6947 14.3267 11.5676L13.742 9.83888C13.7166 9.76261 13.742 9.66092 13.8183 9.6355L14.0979 9.55923Z" fill="black"/>
<path d="M14.3255 9.81328C14.3255 9.81328 12.8255 8.79638 12.7238 9.66075C12.6221 10.5251 14.0712 10.9065 14.7831 10.576L14.3255 9.81328Z" fill="#FFD6BB"/>
<path d="M32.0185 3.40683C32.0185 3.40683 28.2559 2.18655 28.561 4.83049C28.8661 7.44901 34.3319 9.66077 34.3319 9.66077L34.4336 10.3726C34.4336 10.3726 27.9763 8.77098 27.417 5.23725C26.8831 1.72894 30.1881 1.29676 31.993 2.11028C32.3744 3.30514 32.0185 3.40683 32.0185 3.40683Z" fill="#F9C84E"/>
<path d="M42.0075 3.81397C42.0075 3.81397 46.0752 2.77165 45.643 5.44101C45.2108 8.11038 39.2365 10.0933 39.2365 10.0933L39.1094 10.8052C39.1094 10.8052 46.1006 9.48319 46.8378 5.89862C47.5497 2.31404 44.0413 1.7039 42.0584 2.46658C41.6262 3.68686 42.0075 3.81397 42.0075 3.81397Z" fill="#F9C84E"/>
<path d="M33.7458 9.40654C32.9577 7.88119 32.0425 3.63563 31.712 1.93232C31.6866 1.75437 31.712 1.55099 31.8391 1.42387C31.9408 1.27134 32.1188 1.19507 32.3221 1.16965L41.6268 0.610352C41.8047 0.610352 41.9827 0.661197 42.1098 0.788309C42.2369 0.915422 42.3132 1.06796 42.3132 1.24591C42.3386 3.45767 42.0844 10.3472 38.6015 11.4149C37.8134 14.0334 38.5252 16.8553 39.1354 17.4909C39.7455 18.1265 39.7455 18.1265 39.7455 18.1265L34.9152 18.4824C34.9152 18.4824 38.271 16.0672 36.0338 11.898C36.0338 11.898 34.7373 11.3641 33.7458 9.40654Z" fill="#F9C84E"/>
<path d="M40.5104 18.0252C40.0019 17.9489 34.1293 18.4065 34.1293 18.4065C34.1293 18.4065 32.9853 18.9658 34.1039 19.22C35.4513 19.2455 40.9934 18.7879 40.9934 18.7879C40.9934 18.7879 41.5019 18.1523 40.5104 18.0252Z" fill="#F9C84E"/>
<path opacity="0.5" d="M41.5018 1.19531C41.5018 1.19531 42.0865 9.22883 38.5273 10.7288C38.5273 10.7288 41.2984 8.38989 40.9425 1.27158L41.5018 1.19531Z" fill="#F9C84E"/>
<path opacity="0.15" d="M12.9755 74.6918C19.3779 74.6918 24.5682 73.4056 24.5682 71.819C24.5682 70.2325 19.3779 68.9463 12.9755 68.9463C6.57303 68.9463 1.38281 70.2325 1.38281 71.819C1.38281 73.4056 6.57303 74.6918 12.9755 74.6918Z" fill="black"/>
</svg>
