<svg width="715" height="349" viewBox="0 0 715 349" fill="none" xmlns="http://www.w3.org/2000/svg">
<path opacity="0.15" d="M357.519 346.067C538.675 346.067 685.534 332.224 685.534 315.148C685.534 298.071 538.675 284.229 357.519 284.229C176.363 284.229 29.507 298.071 29.507 315.148C29.507 332.224 176.363 346.067 357.519 346.067Z" fill="black"/>
<path d="M600.155 317.97C642.908 317.97 677.591 283.286 677.591 240.538V107.182C677.591 64.4328 642.908 29.7495 600.155 29.7495C557.408 29.7495 522.726 64.4328 522.726 107.182V240.538C522.726 283.286 557.408 317.97 600.155 317.97Z" fill="#197DBA"/>
<path d="M600.182 309.64C639.032 309.64 670.49 278.183 670.49 239.333V108.397C670.49 69.5462 639.032 38.0892 600.182 38.0892C561.332 38.0892 529.873 69.5462 529.873 108.397V239.333C529.873 278.183 561.332 309.64 600.182 309.64Z" fill="#06517F"/>
<path d="M670.876 208.544V141.194C670.876 139.715 669.934 138.237 668.454 137.833C661.061 135.279 653.669 135.683 646.409 138.909C644.796 139.581 643.854 141.194 643.987 142.942L648.423 208.544H670.876Z" fill="#F9C84E"/>
<path opacity="0.38" d="M666.714 144.019V160.42C666.714 161.764 665.635 162.84 664.292 162.974L652.326 163.646C650.982 163.78 649.772 162.705 649.639 161.361L647.889 144.423C647.757 143.078 648.698 141.869 650.041 141.734C653.537 141.331 660.125 140.793 664.424 141.465C665.773 141.734 666.714 142.809 666.714 144.019Z" fill="#F9C84E"/>
<path d="M643.061 144.825L647.091 208.411H623.301V146.707C623.301 144.959 624.374 143.346 626.124 142.809C629.212 141.733 634.59 140.389 639.836 141.33C641.581 141.599 642.924 143.077 643.061 144.825Z" fill="#41EFDE"/>
<path opacity="0.38" d="M643.056 184.883L643.86 202.627C643.86 204.106 642.786 205.316 641.306 205.316H629.345C627.864 205.316 626.791 204.106 626.791 202.762V185.017C626.791 183.538 628.001 182.463 629.345 182.463H640.502C641.845 182.463 642.919 183.538 643.056 184.883Z" fill="white"/>
<path d="M600.309 208.414V142.811C600.309 141.198 601.382 139.72 602.995 139.182C609.986 137.031 616.172 138.241 619.266 139.182C620.741 139.585 621.682 140.929 621.682 142.408V208.414H600.309Z" fill="#66126C"/>
<path opacity="0.38" d="M619.53 143.884L618.991 153.563C618.991 154.773 617.917 155.714 616.706 155.714H605.279C604.068 155.714 602.995 154.773 602.995 153.563L602.725 144.019C602.725 142.943 603.397 142.002 604.47 141.733C607.294 141.195 612.672 140.254 617.78 141.599C618.859 141.733 619.53 142.809 619.53 143.884Z" fill="white"/>
<path opacity="0.38" d="M618.578 159.878C618.441 161.089 617.5 162.03 616.294 162.03H605.401C604.195 162.03 603.117 160.954 603.117 159.744C603.117 158.534 604.195 157.459 605.401 157.459H616.294C617.637 157.459 618.711 158.534 618.578 159.878Z" fill="white"/>
<path d="M625.712 239.866L626.653 308.83H586.592L589.553 241.614C589.685 239.732 590.896 237.984 592.779 237.312C597.749 235.564 608.643 232.876 623.295 236.64C624.638 237.043 625.712 238.388 625.712 239.866Z" fill="#41EFDE"/>
<path d="M608.769 241.617L605.951 309.236H582.018L580.273 240.945C580.273 239.063 581.484 237.315 583.229 236.777C591.029 234.492 598.691 234.223 606.353 237.719C607.833 238.391 608.769 240.004 608.769 241.617Z" fill="#F9C84E"/>
<path opacity="0.57" d="M606.485 244.169L606.215 247.799C606.083 248.875 605.142 249.816 604.068 249.681L584.572 248.606C583.499 248.606 582.69 247.799 582.69 246.723L582.557 244.169C582.425 242.96 583.366 242.019 584.572 242.019H604.603C605.681 242.019 606.622 242.96 606.485 244.169Z" fill="white"/>
<path opacity="0.57" d="M605.687 253.042V254.386C605.687 255.462 604.878 256.269 603.804 256.269L585.117 255.462C584.175 255.462 583.372 254.655 583.372 253.58V252.101C583.372 251.026 584.175 250.219 585.254 250.219L603.936 251.026C605.015 251.16 605.687 251.966 605.687 253.042Z" fill="white"/>
<path d="M663.483 49.2429C665.096 49.5118 666.307 50.8561 666.439 52.6037L670.072 110.678H648.291V54.0823C648.291 52.4693 649.37 50.9906 650.845 50.4528C653.806 49.5118 658.645 48.3019 663.483 49.2429Z" fill="#41EFDE"/>
<path opacity="0.38" d="M666.312 89.0347L666.984 105.166C666.984 106.511 665.91 107.586 664.567 107.586H653.812C652.468 107.586 651.39 106.511 651.39 105.166V89.0347C651.39 87.6905 652.468 86.6149 653.812 86.6149H664.028C665.239 86.8836 666.312 87.8248 666.312 89.0347Z" fill="white"/>
<path d="M529.788 117.377H671.346V110.655H529.788V117.377Z" fill="#197DBA"/>
<path d="M530.097 214.257H671.653V207.536H530.097V214.257Z" fill="#197DBA"/>
<path d="M90.4002 267.694L105.456 322.676C105.86 324.021 107.608 324.021 108.145 322.811L130.057 262.048C130.461 261.107 129.519 260.031 128.579 260.166L91.6101 265.812C90.8032 266.081 90.2654 266.887 90.4002 267.694Z" fill="#66126C"/>
<path d="M452.011 265.949L436.955 320.931C436.552 322.275 434.805 322.275 434.267 321.065L412.354 260.302C411.951 259.361 412.892 258.286 413.833 258.42L450.801 264.067C451.608 264.335 452.146 265.142 452.011 265.949Z" fill="#66126C"/>
<path d="M78.971 199.941H467.612C475.274 151.68 479.979 101.134 477.021 65.6442C477.021 48.7058 462.906 34.725 445.296 34.1873C340.574 23.5672 216.225 21.4163 84.7512 22.3573C81.928 22.2229 79.1053 22.7606 76.6855 23.7016C68.3507 26.7935 63.2423 35.3971 64.0489 44.2696C60.5537 91.8584 67.4097 147.781 78.971 199.941Z" fill="#41EFDE"/>
<path d="M57.2005 269.037C192.976 274.414 335.876 274.28 485.23 269.037C500.42 269.037 512.653 256.669 512.653 241.613V221.718C512.653 206.527 500.286 194.294 485.23 194.294C326.197 200.881 178.457 202.897 57.2005 194.294C42.0097 194.294 29.7765 206.661 29.7765 221.718V241.613C29.6421 256.804 42.0097 269.037 57.2005 269.037Z" fill="#C3FCF2"/>
<path d="M291.094 268.23C290.959 268.23 227.508 157.056 218.904 146.57C217.425 144.822 215.275 143.882 212.989 144.15L195.244 146.301L174.407 191.336L209.09 171.171C205.595 194.965 250.226 230.186 265.417 243.092C267.03 244.436 267.03 246.721 265.686 248.2L259.637 254.518C269.584 264.601 281.146 271.188 294.186 274.145L291.094 268.23Z" fill="#FCD1B4"/>
<path d="M263.278 251.025C263.278 251.025 259.379 252.234 258.035 255.73C257.363 257.343 258.035 259.225 259.514 260.3C265.966 264.871 287.072 279.658 296.886 282.616C297.692 282.885 298.499 282.078 298.23 281.272C297.692 278.986 296.079 274.416 290.836 267.828L291.24 268.77C291.778 269.98 290.568 271.189 289.357 270.517C282.905 267.022 269.731 258.956 263.278 251.025Z" fill="#66126C"/>
<path d="M266.367 295.521C266.232 295.386 256.688 272.533 256.688 272.399C247.949 219.298 226.71 173.726 220.391 161.761C219.316 159.745 217.299 158.401 215.014 158.266L197.269 156.788L167.694 196.58L205.738 183.808C197.538 206.393 234.103 249.949 246.471 265.542C247.681 267.156 247.412 269.441 245.664 270.651L238.405 275.625C246.202 287.589 256.15 296.327 268.249 301.839L266.367 295.521Z" fill="#FFD6B8"/>
<path d="M242.577 273.075C242.577 273.075 238.544 273.478 236.527 276.704C235.586 278.183 235.855 280.199 237.065 281.544C242.442 287.324 260.053 306.145 269.06 310.984C269.732 311.387 270.673 310.85 270.673 310.043C270.673 307.758 270.001 302.918 266.237 295.39L266.506 296.465C266.909 297.81 265.296 298.751 264.355 297.81C258.709 292.702 247.282 282.081 242.577 273.075Z" fill="#66126C"/>
<path d="M114.064 148.319C114.064 148.319 97.9318 172.248 96.722 183.137C95.3778 194.026 101.158 197.79 117.962 199.269C168.105 203.436 192.706 188.38 192.706 188.38C196.067 166.468 198.621 160.956 227.255 149.126C227.255 149.126 191.093 151.949 183.833 149.126C176.44 146.303 114.064 148.319 114.064 148.319Z" fill="#197DBA"/>
<path d="M178.194 14.2933C178.194 14.2933 167.036 0.98457 155.072 17.2508C152.92 20.2082 144.586 17.7885 141.628 23.9723C140.015 27.1986 136.654 28.9463 133.159 28.2741C124.421 26.6609 110.306 26.5265 103.315 40.1041C97.9381 50.4553 102.105 56.639 107.483 60C111.381 62.554 112.86 67.6627 110.44 71.6952C108.155 75.5939 107.752 80.8369 113.667 87.1548C126.841 101.27 152.92 78.148 152.92 78.148L173.623 29.2151L178.194 14.2933Z" fill="black"/>
<path d="M157.482 145.227C157.482 145.227 176.169 127.347 185.444 115.517C190.418 109.199 192.031 100.73 189.746 92.9329C185.578 78.8179 178.051 64.0304 177.378 61.745C176.303 58.2497 155.332 58.384 155.332 58.384C155.332 58.384 113.927 85.2702 97.7948 130.708L116.078 136.354C116.078 136.354 126.832 118.206 137.587 106.78C137.587 106.78 119.169 131.111 118.497 141.059L157.482 145.227Z" fill="#66126C"/>
<path d="M193.244 152.218L179.129 136.894L162.863 141.33C162.863 141.33 143.908 144.287 133.019 141.33C122.13 138.372 122.13 138.372 122.13 138.372L97.798 130.71L93.8992 141.599C92.958 144.421 93.8992 147.379 96.319 149.127C98.4701 150.606 100.89 152.353 102.503 153.025C105.729 154.504 176.843 153.429 176.843 153.429L193.244 152.218Z" fill="#FFD6B8"/>
<path d="M169.322 34.0517L155.61 59.5939C156.552 65.1054 170.532 65.3741 172.683 62.0136C172.952 61.6101 173.086 61.341 173.086 60.9381L181.287 43.8652C181.69 42.252 177.119 36.6059 175.641 35.7993L170.129 32.8418C168.112 31.7664 176.851 31.6319 169.322 34.0517Z" fill="#FFD6B8"/>
<path d="M183.559 12.8115C183.559 12.8115 190.684 18.3232 193.103 31.363C195.523 44.4029 190.012 48.7047 184.769 48.0325C179.391 47.4948 171.863 45.3438 165.68 35.6648C159.496 26.1202 174.149 5.95553 183.559 12.8115Z" fill="#FFD6B8"/>
<path d="M172.68 30.9615C172.68 30.9615 171.067 12.41 186.124 16.1741L189.081 19.5349C189.081 19.5349 197.012 11.6034 189.215 4.74742C181.284 -2.10858 169.723 -1.16756 162.732 9.99025C155.742 21.148 152.919 29.2139 157.758 36.7421C162.598 44.2702 167.034 38.3552 167.034 38.3552C167.034 38.3552 165.017 32.037 167.169 29.4827C169.319 26.9285 171.739 31.3648 171.739 31.3648L172.68 30.9615Z" fill="black"/>
<path d="M170.521 32.3048C170.521 32.3048 169.714 22.7602 164.74 25.18C159.767 27.5997 165.95 34.1868 168.504 36.3377L170.521 32.3048Z" fill="#FFD6B8"/>
<path d="M146.598 158.267H146.732L211.394 158.132C213.007 158.132 214.351 156.788 214.351 155.175C214.351 153.562 213.007 152.217 211.394 152.217L146.732 152.352C145.119 152.352 143.775 153.696 143.775 155.31C143.909 156.923 145.119 158.132 146.598 158.267Z" fill="#66126C"/>
<path d="M269.731 99.5195H215.823C211.791 99.5195 208.161 101.805 206.548 105.434L181.678 158.266H248.625C251.179 158.266 253.464 156.653 254.405 154.367L273.763 105.434C274.839 102.611 272.688 99.5195 269.731 99.5195Z" fill="#66126C"/>
<path d="M231.682 126.542C230.472 130.172 231.413 133.667 233.564 134.473C235.85 135.145 238.538 132.861 239.748 129.231C240.958 125.601 240.017 122.106 237.866 121.299C235.581 120.627 232.892 122.912 231.682 126.542Z" fill="#66126C"/>
<g opacity="0.4">
<mask id="mask0_203_2" style="mask-type:luminance" maskUnits="userSpaceOnUse" x="219" y="116" width="24" height="25">
<path d="M243 116H219V140.013H243V116Z" fill="white"/>
</mask>
<g mask="url(#mask0_203_2)">
<mask id="mask1_203_2" style="mask-type:luminance" maskUnits="userSpaceOnUse" x="219" y="116" width="24" height="25">
<path d="M242.996 116H219V140.008H242.996V116Z" fill="white"/>
</mask>
<g mask="url(#mask1_203_2)">
<path d="M221.674 118.334C221.989 118.259 222.319 118.28 222.622 118.393C222.925 118.506 223.188 118.706 223.377 118.968C223.567 119.231 223.674 119.543 223.685 119.867C223.697 120.19 223.613 120.509 223.443 120.785C223.273 121.06 223.025 121.279 222.73 121.413C222.436 121.547 222.109 121.592 221.789 121.54C221.47 121.488 221.173 121.343 220.936 121.122C220.7 120.902 220.534 120.616 220.459 120.301C220.359 119.879 220.431 119.435 220.659 119.066C220.887 118.697 221.252 118.434 221.674 118.334Z" fill="white"/>
<path d="M242.984 127.546C242.911 125.621 242.375 123.742 241.422 122.068C240.47 120.394 239.128 118.974 237.51 117.928C235.893 116.882 234.047 116.241 232.129 116.059C230.212 115.877 228.279 116.159 226.493 116.883C226.243 116.987 226.044 117.186 225.94 117.437C225.836 117.687 225.835 117.969 225.938 118.22L225.968 118.287L226.745 119.868C228.02 119.221 229.421 118.862 230.849 118.817C232.62 118.721 234.378 119.161 235.895 120.078C236.534 120.482 237.122 120.96 237.648 121.503C238.177 122.054 238.641 122.664 239.031 123.32C239.178 123.565 239.225 123.856 239.164 124.135C239.103 124.414 238.939 124.659 238.703 124.821L237.509 125.637C237.383 125.722 237.24 125.781 237.091 125.809C236.941 125.838 236.787 125.836 236.638 125.803C236.489 125.771 236.348 125.708 236.224 125.62C236.1 125.531 235.995 125.418 235.916 125.288C235.426 124.396 234.69 123.665 233.795 123.183C232.899 122.7 231.884 122.486 230.87 122.567C230.132 122.561 229.399 122.704 228.717 122.988C228.591 123.038 228.465 123.101 228.347 123.16V123.206L228.204 123.227C227.173 123.791 226.384 124.712 225.984 125.817C225.727 126.517 225.599 127.258 225.606 128.004C225.598 128.749 225.731 129.49 225.997 130.186C226.244 130.83 226.614 131.42 227.086 131.923C227.55 132.411 228.11 132.799 228.73 133.062C229.411 133.348 230.144 133.491 230.883 133.482C231.958 133.539 233.029 133.299 233.977 132.789C234.364 132.553 234.72 132.271 235.037 131.948C235.37 131.602 235.664 131.22 235.912 130.808C236.065 130.554 236.313 130.371 236.602 130.299C236.89 130.227 237.196 130.273 237.45 130.426L237.505 130.459L238.695 131.275C238.933 131.437 239.099 131.684 239.159 131.965C239.219 132.246 239.169 132.539 239.019 132.784C238.215 134.102 237.108 135.207 235.79 136.009C234.288 136.864 232.58 137.287 230.853 137.233C229.609 137.244 228.375 136.999 227.229 136.514C226.146 136.055 225.168 135.381 224.353 134.534C223.544 133.685 222.909 132.685 222.486 131.59C222.045 130.439 221.822 129.216 221.83 127.983C221.823 126.907 221.993 125.837 222.335 124.817L220.964 124.211C220.826 124.15 220.676 124.117 220.525 124.113C220.373 124.11 220.223 124.137 220.082 124.192C219.941 124.247 219.812 124.329 219.703 124.434C219.594 124.539 219.507 124.665 219.446 124.804C219.424 124.859 219.405 124.915 219.392 124.972C218.95 126.641 218.874 128.385 219.169 130.085C219.463 131.786 220.121 133.403 221.098 134.826C222.074 136.249 223.346 137.444 224.827 138.331C226.307 139.217 227.962 139.774 229.677 139.963C231.393 140.151 233.129 139.968 234.767 139.424C236.405 138.881 237.906 137.99 239.168 136.813C240.431 135.637 241.424 134.201 242.081 132.606C242.738 131.01 243.043 129.291 242.975 127.567L242.984 127.546Z" fill="white"/>
</g>
</g>
</g>
<path d="M293.249 98.9833C292.308 96.2944 292.039 79.894 272.547 87.0189C270.933 86.8846 268.783 83.255 269.858 82.1795C294.862 70.2151 301.046 98.5798 298.223 99.6554C295.265 100.731 294.324 102.075 293.249 98.9833Z" fill="white"/>
<path d="M264.861 71.6904C262.441 69.9427 261.097 66.8509 263.113 64.969C265.13 63.2213 305.594 48.9717 314.063 96.2917C314.197 96.829 314.063 97.5016 313.659 97.9045C313.256 98.4423 312.853 98.7114 312.181 98.8458C310.433 99.1144 308.955 99.2492 307.61 98.308C299.275 56.2307 267.281 73.438 264.861 71.6904Z" fill="white"/>
<path d="M257.193 55.9637C255.176 55.2911 252.353 51.7961 254.907 49.3763C324.139 27.7329 333.953 98.0404 331.399 99.2503C328.844 100.46 326.022 98.8468 325.215 97.5026C316.611 34.5889 259.209 56.6358 257.193 55.9637Z" fill="white"/>
<path d="M456.33 187.709C460.766 192.549 463.724 198.732 463.858 205.319C463.858 205.992 463.724 206.933 463.052 207.067C462.514 207.202 461.976 206.933 461.708 206.395C461.439 205.857 461.439 205.319 461.439 204.782C461.17 199.27 458.75 193.624 454.045 190.935C450.415 188.785 445.979 188.65 441.946 187.575C440.333 187.171 438.854 186.499 437.51 185.558C435.628 183.945 434.687 181.122 436.3 178.971C437.644 177.358 439.795 177.627 441.543 178.164C447.054 179.778 452.432 183.542 456.33 187.709Z" fill="#FFF9E9"/>
<path d="M365.846 206.799C365.309 207.606 365.174 208.681 365.712 209.353C366.116 209.891 366.788 210.026 367.46 209.891C368.132 209.757 368.535 209.353 369.073 208.951C368.67 209.353 368.67 210.16 369.207 210.563C369.745 210.967 370.417 210.967 370.955 210.698C371.493 210.429 372.03 210.026 372.433 209.623C372.03 210.16 372.703 210.832 373.24 210.832C373.912 210.832 374.45 210.295 374.853 209.891C375.794 209.085 376.601 208.144 377.139 207.068C377.408 206.396 377.676 205.724 377.542 205.052C377.273 203.976 375.929 203.304 374.853 203.17C371.627 202.498 367.594 203.842 365.846 206.799Z" fill="#FFF9E9"/>
<path d="M378.76 161.761C387.633 164.046 394.758 162.568 401.614 160.013C413.713 155.577 431.054 159.341 436.701 163.778C442.347 168.214 448.396 178.431 445.438 196.713C444.901 199.939 436.028 197.923 432.936 200.343C429.172 203.166 424.871 206.392 420.3 206.124C407.663 205.586 397.043 207.468 386.02 203.973C381.449 202.494 377.013 200.612 373.249 197.655C369.485 194.697 366.527 190.53 365.721 185.825C365.049 181.523 366.259 177.086 368.409 173.188C370.695 169.424 373.787 166.332 377.148 163.509L378.76 161.761Z" fill="#FFF9E9"/>
<path d="M388.966 196.717C391.251 195.104 393.133 192.953 394.881 190.533C396.359 188.517 397.569 186.365 398.241 184.08C399.317 180.45 398.914 176.283 397.3 172.923C395.687 169.427 392.729 166.604 389.369 164.856C387.89 164.05 385.739 163.512 384.664 164.856C384.126 165.394 383.992 166.201 383.857 166.873C382.916 171.309 381.437 175.611 379.421 179.644C378.48 181.526 377.405 183.408 376.598 185.425C375.791 187.441 375.522 189.726 376.06 191.743C376.598 194.028 378.883 197.523 381.034 198.733C383.185 200.212 387.084 198.061 388.966 196.717Z" fill="#F2ECDF"/>
<path d="M357.654 192.011C359.402 188.919 362.09 186.365 365.182 184.752C367.198 183.676 369.484 183.004 371.634 183.407C374.726 184.08 376.877 186.903 377.415 189.995C377.55 191.204 377.55 192.414 377.146 193.49C376.474 195.64 374.458 197.119 372.576 198.329C369.08 200.346 363.569 202.631 359.402 201.825C354.965 201.018 355.906 195.103 357.654 192.011Z" fill="#FFF9E9"/>
<path d="M342.21 178.565C341.806 178.969 341.538 179.237 341.403 179.775C341.268 180.179 341.403 180.582 341.538 180.985C342.21 182.867 343.016 184.615 343.957 186.228C344.092 186.362 344.092 186.497 344.226 186.631C344.495 186.766 344.898 186.766 345.167 186.631C348.797 185.422 352.83 185.287 356.594 186.228C357.534 186.497 358.61 186.766 359.417 186.094C359.82 185.69 359.955 185.152 360.089 184.749C360.627 182.867 361.03 180.851 361.03 178.834C361.03 176.818 360.358 174.801 359.013 173.322C358.072 172.247 356.728 171.575 355.25 171.44C353.905 171.306 352.426 172.247 351.082 172.785C347.721 174.129 344.764 176.011 342.21 178.565Z" fill="#353535"/>
<path d="M364.519 146.707C365.863 145.632 367.476 144.691 369.224 144.825C371.241 145.094 372.854 146.842 374.87 147.38C373.257 152.085 373.123 157.193 373.257 162.167C373.257 163.646 373.257 165.125 372.45 166.334C371.509 167.813 369.359 168.485 367.611 168.082C365.863 167.679 364.25 166.603 362.906 165.393C361.562 164.183 360.217 162.839 359.545 161.092C358.469 158.537 359.142 155.849 359.948 153.429C360.889 150.875 362.502 148.455 364.519 146.707Z" fill="#353535"/>
<path d="M386.141 161.228C382.914 159.884 379.419 159.077 375.924 158.405C372.563 157.733 369.068 157.329 365.707 156.926C363.96 156.792 362.212 156.657 360.464 156.792C356.969 157.329 353.743 159.615 352.264 162.706C350.248 166.874 344.87 174.536 356.969 186.232C362.884 191.878 370.009 197.255 378.075 197.255C385.065 197.255 391.384 193.357 395.013 187.846C396.895 184.888 398.105 181.258 398.105 177.628C398.105 173.999 396.895 170.235 394.61 167.277C392.459 164.723 389.367 162.706 386.141 161.228Z" fill="#FFF9E9"/>
<path d="M357.251 167.811C356.175 168.08 355.234 168.618 354.428 169.424C352.68 170.903 351.47 172.919 350.798 175.071C350.664 175.608 350.395 176.549 350.126 177.087C351.201 179.91 353.218 183.002 356.982 186.631C360.746 190.261 365.182 193.622 369.887 195.638C370.156 194.698 370.291 193.622 370.425 192.546C370.694 188.379 370.694 184.077 368.543 180.582C368.005 179.776 367.333 178.969 366.93 178.028C365.854 176.146 365.72 173.861 364.779 171.844C363.3 169.021 360.208 167.004 357.251 167.811Z" fill="#4C4C4C"/>
<path d="M373.386 154.368C374.193 154.906 375 155.578 375.941 155.846C376.882 156.116 377.823 155.444 378.091 154.906C379.167 152.755 379.301 150.335 378.226 148.184C377.689 147.109 376.747 146.302 375.672 145.63C374.193 144.689 372.58 144.151 370.967 144.017C369.488 143.882 367.875 143.882 366.396 144.689C365.455 145.092 363.439 146.84 363.304 147.915C363.304 148.05 365.052 146.437 367.74 148.319C370.698 150.335 370.967 152.755 373.386 154.368Z" fill="#F2ECDF"/>
<path d="M342.743 177.224C341.264 178.838 338.038 182.467 341.668 187.979C342.609 189.457 343.953 190.802 345.431 191.877C346.507 192.684 347.851 193.49 349.196 193.625C350.54 193.76 352.153 193.356 352.96 192.146C353.901 189.592 347.717 188.651 346.507 183.408C345.969 180.988 345.969 177.224 346.91 174.939C346.91 174.939 344.759 175.073 342.743 177.224Z" fill="#F2ECDF"/>
<path d="M389.646 186.497C389.78 187.169 389.915 187.707 389.78 188.379C389.646 189.32 388.973 189.992 388.436 190.665C389.243 189.992 389.915 189.186 390.452 188.245C390.855 187.304 390.855 186.228 390.587 185.152C390.183 183.943 389.108 182.733 387.898 181.792C387.495 181.523 387.091 181.657 386.688 181.523C386.419 181.523 386.15 181.523 386.016 181.657C385.344 182.195 386.419 182.464 386.688 182.598C387.226 182.868 387.629 183.136 388.167 183.54C388.705 184.346 389.377 185.422 389.646 186.497Z" fill="#DDD8CE"/>
<path d="M392.075 181.93C392.613 181.661 393.285 181.392 393.688 180.854C394.226 180.182 394.495 179.242 394.764 178.435C394.764 179.51 394.495 180.586 393.957 181.392C393.42 182.333 392.613 183.006 391.537 183.275C390.327 183.678 388.714 183.543 387.235 183.006C386.832 182.871 386.563 182.468 386.295 182.199C386.16 182.065 386.026 181.796 386.026 181.661C386.026 180.854 386.832 181.527 387.101 181.661C387.639 181.93 388.177 182.065 388.714 182.199C389.924 182.468 391 182.333 392.075 181.93Z" fill="#DDD8CE"/>
<path d="M375.673 185.694C375.539 187.71 376.211 189.054 377.958 189.054C379.302 189.054 380.782 186.769 381.857 186.097C383.067 185.29 384.68 185.021 385.89 184.215C387.234 183.543 388.444 182.064 387.906 180.585C387.772 180.182 387.503 179.779 387.369 179.51C386.697 178.166 387.1 176.552 387.234 175.074C387.369 173.595 387.099 171.847 385.755 171.175C384.277 170.503 382.798 171.578 381.723 172.788C379.168 175.746 375.808 183.543 375.673 185.694Z" fill="black"/>
<path opacity="0.29" d="M378.222 187.307C378.491 187.038 378.626 186.769 378.76 186.366C378.76 185.963 378.76 185.693 378.626 185.29C378.491 183.677 378.626 182.064 379.163 180.585C379.298 180.316 379.432 180.048 379.432 179.778C379.432 179.51 379.298 179.241 379.029 179.106C378.491 178.838 377.012 183.811 377.012 184.215C376.878 184.887 376.474 188.517 378.222 187.307Z" fill="#FFF9E9"/>
<path d="M363.579 176.55C363.579 176.55 364.923 179.238 362.907 181.121C360.756 183.272 358.74 182.062 358.74 182.062C358.74 182.062 362.503 184.213 364.654 182.465C367.746 180.18 363.579 176.55 363.579 176.55Z" fill="black"/>
<path d="M369.212 168.214C369.212 168.214 372.035 167.139 371.766 164.316C371.632 161.359 369.346 160.821 369.346 160.821C369.346 160.821 373.648 161.762 374.052 164.45C374.724 168.349 369.212 168.214 369.212 168.214Z" fill="black"/>
<path d="M384.69 198.465C387.244 199.675 389.664 201.019 391.277 203.17C392.219 204.245 392.756 205.724 392.487 207.203C392.084 208.547 390.336 209.623 389.126 208.816C388.858 209.892 387.916 210.698 386.841 210.967C385.766 211.236 384.556 210.832 383.884 209.892C384.153 210.698 383.212 211.37 382.405 211.236C381.598 211.102 380.926 210.564 380.389 210.026C375.28 205.59 368.021 205.052 361.434 203.439C360.089 203.17 358.745 202.767 357.67 201.96C355.788 200.616 355.384 198.33 356.998 196.583C358.208 195.239 359.417 195.104 361.031 194.835C366.139 194.163 371.113 194.297 376.221 195.507C379.179 196.18 382.001 197.12 384.69 198.465Z" fill="#FFF9E9"/>
<path d="M411.833 180.044C410.892 183.001 411.429 186.362 412.639 189.185C414.253 193.352 417.21 196.982 420.975 199.537C418.554 199.671 416.672 200.074 414.118 200.746C413.581 200.881 410.489 201.956 409.817 203.435C408.607 205.854 409.817 205.72 410.623 206.258C411.295 206.796 415.194 205.317 416 205.317C417.479 205.452 419.092 205.452 420.571 205.317C423.259 205.182 426.083 204.779 428.368 203.3C429.712 202.36 430.788 201.15 431.729 199.94C432.67 198.595 433.611 197.117 433.88 195.503C434.417 192.546 432.939 189.588 430.788 187.438C428.637 185.287 425.948 183.943 423.529 182.329C421.915 181.254 420.168 179.909 420.033 178.028C420.033 177.221 420.302 176.28 420.168 175.474C419.765 173.188 416.672 174.398 415.463 175.204C413.715 176.28 412.505 178.028 411.833 180.044Z" fill="#F2ECDF"/>
<path d="M422.465 172.653C419.776 173.191 417.088 174.401 415.34 176.552C413.189 179.241 412.785 183.139 413.727 186.5C414.668 189.861 416.818 192.684 419.372 195.104C421.792 197.389 424.615 199.271 427.439 201.019C422.599 200.884 417.894 201.691 413.458 203.438C412.651 203.707 411.845 204.111 411.307 204.783C410.769 205.455 410.5 206.396 410.903 207.202C411.307 208.144 412.517 208.412 413.458 208.547C412.248 209.219 413.457 210.563 414.264 210.698C416.818 211.235 419.372 210.16 421.792 209.488C425.422 208.547 429.186 207.874 432.95 207.202C435.773 206.799 438.596 206.396 441.016 204.917C444.511 202.901 446.393 198.733 446.528 194.835C446.662 190.936 445.049 186.903 442.764 183.677C440.478 180.316 437.252 177.359 434.429 174.536C431.337 171.847 426.094 171.981 422.465 172.653Z" fill="#FFF9E9"/>
<path d="M437.505 164.588C437.236 164.32 436.967 164.051 436.699 163.916C432.263 160.421 420.701 157.329 410.081 158.27C408.199 160.69 406.183 162.438 406.855 166.202C406.989 167.008 407.258 167.815 407.93 168.218C408.333 168.487 409.006 168.621 409.543 168.621C411.426 168.621 413.173 167.68 415.055 167.277C416.937 166.74 419.088 166.74 420.433 168.218C421.777 169.563 421.642 171.713 422.583 173.327C423.39 174.671 425.003 175.477 426.616 175.612C428.23 175.746 429.842 175.343 431.187 174.537C434.817 172.52 437.236 168.621 437.505 164.588Z" fill="#4C4C4C"/>
<path d="M413.303 208.544C413.303 208.544 413.437 207.603 414.379 207.065C415.32 206.393 416.395 205.99 416.26 205.99C416.26 205.99 414.513 205.99 413.706 206.393C412.227 207.2 412.093 208.275 412.093 208.275L413.303 208.544Z" fill="#F2ECDF"/>
<path d="M384.002 209.889C384.002 209.889 384.137 209.216 383.868 208.007C383.599 206.797 383.196 205.721 383.196 205.721C383.196 205.721 384.271 206.931 384.54 208.141C384.809 209.216 385.078 210.561 385.078 210.561C385.078 210.561 384.809 210.426 384.54 210.292C384.137 210.157 384.002 209.889 384.002 209.889Z" fill="#F2ECDF"/>
<path d="M389.788 206.798C389.116 205.454 387.637 204.244 387.637 204.244C387.637 204.244 388.309 205.186 388.578 206.126C388.847 207.068 389.116 208.68 389.116 208.68C389.116 208.68 389.519 208.949 389.653 208.949C389.922 208.949 390.326 208.949 390.326 208.949C390.326 208.949 390.46 208.143 389.788 206.798Z" fill="#F2ECDF"/>
</svg>
