<svg id="Group_7011" data-name="Group 7011" xmlns="http://www.w3.org/2000/svg" xmlns:xlink="http://www.w3.org/1999/xlink" viewBox="0 0 193.557 88.094">
  <defs>
    <clipPath id="clip-path">
      <rect id="Rectangle_3557" data-name="Rectangle 3557" width="193.557" height="88.094" fill="none"/>
    </clipPath>
    <clipPath id="clip-path-2">
      <rect id="Rectangle_3545" data-name="Rectangle 3545" width="193.557" height="88.094" transform="translate(0 0)" fill="none"/>
    </clipPath>
    <clipPath id="clip-path-3">
      <rect id="Rectangle_3544" data-name="Rectangle 3544" width="84.074" height="8.784" transform="translate(109.483 64.566)" fill="none"/>
    </clipPath>
    <clipPath id="clip-path-4">
      <rect id="Rectangle_3543" data-name="Rectangle 3543" width="84.073" height="8.784" transform="translate(109.483 64.566)" fill="none"/>
    </clipPath>
    <clipPath id="clip-path-5">
      <path id="Path_13679" data-name="Path 13679" d="M29.074,20.2h0c-2.726.282-5.813.258-5.813.258-.036.067-2.28,1.719-2.28,1.719s.5,3.546,2.508,4.946c2.213,1.539,5.337-1.268,5.337-1.268s2.487.591,3.809-4.585c.224-.878-.674-1.161-2.012-1.162a15.423,15.423,0,0,0-1.55.093" fill="none"/>
    </clipPath>
    <linearGradient id="linear-gradient" x1="-1.446" y1="4.853" x2="-1.374" y2="4.853" gradientUnits="objectBoundingBox">
      <stop offset="0" stop-color="#2b3582"/>
      <stop offset="1" stop-color="#150e42"/>
    </linearGradient>
    <clipPath id="clip-path-7">
      <path id="Path_13693" data-name="Path 13693" d="M28.754,16.38a9.285,9.285,0,0,0-1.565.218h0a10.035,10.035,0,0,1-2.2.214c-1.579-.053-1.886,1.482-3.2,2.473-1.473,1.108-.8,4.546.4,6.259,1.1,1.562,1.2-1.6,1.709-2.489s1.779-.906,5.02.2S34,19.689,31.844,19.1c-1.584-.435-1.1-1.7-2.19-2.473a1.509,1.509,0,0,0-.823-.246l-.077,0" fill="none"/>
    </clipPath>
    <linearGradient id="linear-gradient-2" x1="-1.131" y1="4.321" x2="-1.071" y2="4.321" xlink:href="#linear-gradient"/>
    <clipPath id="clip-path-9">
      <rect id="Rectangle_3550" data-name="Rectangle 3550" width="53.644" height="5.963" transform="translate(0 78.055)" fill="none"/>
    </clipPath>
    <clipPath id="clip-path-10">
      <rect id="Rectangle_3549" data-name="Rectangle 3549" width="53.644" height="5.96" transform="translate(0 78.055)" fill="none"/>
    </clipPath>
    <clipPath id="clip-path-11">
      <rect id="Rectangle_3552" data-name="Rectangle 3552" width="19.665" height="5.655" transform="translate(57.507 82.439)" fill="none"/>
    </clipPath>
    <clipPath id="clip-path-14">
      <rect id="Rectangle_3555" data-name="Rectangle 3555" width="5.708" height="5.711" transform="translate(23.518 45.662)" fill="none"/>
    </clipPath>
    <clipPath id="clip-path-15">
      <rect id="Rectangle_3554" data-name="Rectangle 3554" width="5.707" height="5.71" transform="translate(23.518 45.662)" fill="none"/>
    </clipPath>
  </defs>
  <g id="Group_7010" data-name="Group 7010" clip-path="url(#clip-path)">
    <g id="Group_6984" data-name="Group 6984">
      <g id="Group_6983" data-name="Group 6983" clip-path="url(#clip-path-2)">
        <g id="Group_6982" data-name="Group 6982" opacity="0.15">
          <g id="Group_6981" data-name="Group 6981">
            <g id="Group_6980" data-name="Group 6980" clip-path="url(#clip-path-3)">
              <g id="Group_6979" data-name="Group 6979">
                <g id="Group_6978" data-name="Group 6978" clip-path="url(#clip-path-4)">
                  <path id="Path_13639" data-name="Path 13639" d="M193.556,68.958c0-2.426-18.82-4.392-42.037-4.392s-42.036,1.966-42.036,4.392S128.3,73.35,151.52,73.35s42.037-1.966,42.037-4.392"/>
                </g>
              </g>
            </g>
          </g>
        </g>
        <path id="Path_13640" data-name="Path 13640" d="M130.263,65.4a17.52,17.52,0,0,0-.211,1.841.792.792,0,0,0,.715.837,35.156,35.156,0,0,0,6.994.1.361.361,0,0,0,.2-.621,11.168,11.168,0,0,0-6.549-2.783Z"/>
        <path id="Path_13641" data-name="Path 13641" d="M129.531,63.508l.748,1.832a.61.61,0,0,0,.627.379,3.322,3.322,0,0,0,.61-.118.8.8,0,0,0,.535-1v0l-.564-1.888Z" fill="#f7c289"/>
        <path id="Path_13642" data-name="Path 13642" d="M116.747,66.86a7.842,7.842,0,0,1,2.08,2.859.683.683,0,0,1-.649.908H115.1a.726.726,0,0,1-.728-.726.648.648,0,0,1,.01-.124c.2-1.11.762-2.912,2.367-2.917"/>
        <path id="Path_13643" data-name="Path 13643" d="M114.892,65.229s.3,1.338.535,2.223a.282.282,0,0,0,.346.2l.024-.007a2.565,2.565,0,0,1,1.121-.2.218.218,0,0,0,.24-.194v-.023L117.188,65Z" fill="#f7c289"/>
        <path id="Path_13644" data-name="Path 13644" d="M122.855,35.112l9.106,27.78a6.881,6.881,0,0,1-2.579,1.1L118.566,41.661s-1.893,13.756-.976,23.632l-3.1.236s-5.037-25.238-1.222-33.882Z" fill="#f9c84e"/>
        <path id="Path_13645" data-name="Path 13645" d="M118.624,41.423h-.011a.088.088,0,0,1-.077-.1v0l.353-2.8a.088.088,0,0,1,.175.022l-.353,2.8a.088.088,0,0,1-.087.077" fill="#06517f"/>
        <path id="Path_13646" data-name="Path 13646" d="M124.562,10.668s-7.378.655-6.334,5.912a71.652,71.652,0,0,0-5.985,16.715.533.533,0,0,0,.413.629l.018,0,12.286,2.1a.661.661,0,0,0,.752-.486L128.647,24.2l1.144,5.275,3.635-.947-3.06-15.5s-.427-2.262-5.8-2.359" fill="#939393"/>
        <path id="Path_13647" data-name="Path 13647" d="M128.71,23.692h-.019a.091.091,0,0,1-.07-.108h0l1.024-4.7a.092.092,0,0,1,.179.039l-1.024,4.7a.091.091,0,0,1-.089.072" fill="#d8d8d8"/>
        <path id="Path_13648" data-name="Path 13648" d="M127.969,37.685a1.752,1.752,0,0,0-1.269-.165l-.855.213a.311.311,0,0,1-.376-.226c0-.013-.005-.026-.007-.04l-.884-7.873a7.229,7.229,0,0,1-3.228.424l2.036,9.282h7.125Z" fill="#f7c289"/>
        <path id="Path_13649" data-name="Path 13649" d="M146.9,20.606l-.215-.716a1.417,1.417,0,0,0-.827-.906l-3.9-1.565s-.059-.5.823-.839a1.172,1.172,0,0,0,.675-1.327s-1.2.55-2.968,1.421a4.129,4.129,0,0,0-1.874,2.041l-8.826,10.759,1.036.712a2.766,2.766,0,0,0,3.847-.714,2.66,2.66,0,0,0,.164-.27l4.781-9.168a17.834,17.834,0,0,0,7.279.573" fill="#f7c289"/>
        <path id="Path_13650" data-name="Path 13650" d="M126.951,5.649,124.682,12s2.009,1.571,3.476,1.04L129.3,9.4s-.873-4.449-2.35-3.75" fill="#f7c289"/>
        <path id="Path_13651" data-name="Path 13651" d="M133.723,3.368c0,.1-2.186,6.188-2.186,6.188l-3.453-1.322,1.214-6.08s4.422-.424,4.422,1.214" fill="#f7c289"/>
        <path id="Path_13652" data-name="Path 13652" d="M129.906,3.635l-.89,3.15a.462.462,0,0,0-.017.123c0,.257.063,1.141.964,1.021a4.109,4.109,0,0,1,2.04.027.457.457,0,0,1,.236.568A19.777,19.777,0,0,1,131,11.329a.456.456,0,0,1-.587.188,14.75,14.75,0,0,1-2.959-1.74.458.458,0,0,1-.162-.439c.151-.806.6-3.257.621-3.959.019-.659-.721-1.163-1.047-1.352a.447.447,0,0,1-.211-.284,1.184,1.184,0,0,1,.692-1.526,1.156,1.156,0,0,1,.344-.074.456.456,0,0,0,.374-.527l0-.018a1.188,1.188,0,0,1,.766-1.5c.041-.013.084-.024.127-.033a1.674,1.674,0,0,1,1.91.762.458.458,0,0,0,.567.152.362.362,0,0,1,.4.072.45.45,0,0,0,.634-.067.286.286,0,0,0,.025-.033A1.365,1.365,0,0,1,134.177.4c1.559.5,1.484,2.3.913,3.279s-2.23.334-3.016-.313a1.955,1.955,0,0,0-1.908-.028.455.455,0,0,0-.259.3"/>
        <path id="Path_13653" data-name="Path 13653" d="M127.6,6.529s.923-1.745.312-2.294-1.644-.458-1.616.907c.034,1.7,1.3,1.387,1.3,1.387" fill="#f7c289"/>
        <path id="Path_13654" data-name="Path 13654" d="M122.066,30.135a8.718,8.718,0,0,1-.9-.043l-.065-.007L118.415,17.56a.091.091,0,1,1,.179-.038l2.658,12.4c.4.035,2.535.177,3.662-.621l-2.327-10.882.486-.915a.092.092,0,0,1,.162.086l-.455.857,2.338,10.931-.047.035a5.336,5.336,0,0,1-3,.728" fill="#d8d8d8"/>
        <path id="Path_13655" data-name="Path 13655" d="M128.127,69.6a.487.487,0,0,1-.209-.047.6.6,0,0,1-.277-.759l11.1-28.152a.513.513,0,0,1,.653-.317l.042.017a.6.6,0,0,1,.277.759l-11.1,28.152a.531.531,0,0,1-.486.349" fill="#41efde"/>
        <path id="Path_13656" data-name="Path 13656" d="M140.627,69.6a.528.528,0,0,1-.486-.349L129.041,41.1a.6.6,0,0,1,.277-.759A.513.513,0,0,1,130,40.6c.006.014.012.028.017.042l11.1,28.152a.6.6,0,0,1-.277.759.487.487,0,0,1-.209.047" fill="#41efde"/>
        <path id="Path_13657" data-name="Path 13657" d="M175.355,69.6a.487.487,0,0,1-.209-.047.6.6,0,0,1-.277-.759l11.1-28.152a.513.513,0,0,1,.653-.317l.042.017a.6.6,0,0,1,.277.759l-11.1,28.152a.531.531,0,0,1-.486.349" fill="#41efde"/>
        <path id="Path_13658" data-name="Path 13658" d="M187.854,69.6a.528.528,0,0,1-.486-.349L176.268,41.1a.6.6,0,0,1,.277-.759.513.513,0,0,1,.678.258c.006.014.012.028.017.042l11.1,28.152a.6.6,0,0,1-.277.759.487.487,0,0,1-.209.047" fill="#41efde"/>
        <path id="Path_13659" data-name="Path 13659" d="M158.886,41.168a11.428,11.428,0,0,0-4.141,1.768,1.093,1.093,0,0,0-.482,1.044,46.319,46.319,0,0,0,4.9,15.379,1.651,1.651,0,0,1,.159,1.135l-.618,2.877-1.146,1.075h2.953l1.966-5.32-.841-.266a1.591,1.591,0,0,1-1.111-1.489l-.1-5.707a6.494,6.494,0,0,0-1.559-4.3l4.716-.23Z" fill="#efc6b4"/>
        <path id="Path_13660" data-name="Path 13660" d="M156.4,64.964c-.269.352,2.894.816,4.493.046,0,0,2.215-3.854,2.215-5.839,0,0-.176-.4-1.477-.313,0,0-.744,4.564-1.529,5.075a3.133,3.133,0,0,1-2.2.052,4.62,4.62,0,0,0-1.5.978" fill="#66126c"/>
        <path id="Path_13661" data-name="Path 13661" d="M162.985,47.449c-.025-.043-5.077-.607-5.077-.607a11.668,11.668,0,0,1-.352,3.651c-.517,2.114-7.934,11.276-7.934,11.276l.778,2.465a12.51,12.51,0,0,1-7.1.427l4.82-2.892s4.511-15.373,7.274-18.115l5.064-1.752Z" fill="#ffd6bb"/>
        <path id="Path_13662" data-name="Path 13662" d="M174.316,38.5s2.911,4.329,3.15,6.3-.8,2.777-3.851,2.91-11.207.13-11.207.13L155.449,41.9s5.071-1.81,6.39-2.321S174.317,38.5,174.317,38.5" fill="#66126c"/>
        <path id="Path_13663" data-name="Path 13663" d="M150.106,63.4a1.424,1.424,0,0,1,.272,1.713s-6.633,1.176-8.434.642c0,0,.374-.854,2.4-1.825l-.15.115a.242.242,0,0,0,.16.434,18.648,18.648,0,0,0,5.75-1.08" fill="#66126c"/>
        <path id="Path_13664" data-name="Path 13664" d="M168.43,14.183c.44.137,2.025.706,1.82,1.726a.187.187,0,0,0,.15.218.183.183,0,0,0,.084,0,2.939,2.939,0,0,1,3.128.756,1.837,1.837,0,0,1-.295,2.548.188.188,0,0,0,.157.317c1.256-.158,3.985-.2,4.431,2.36a2.552,2.552,0,0,1-1.749,3.157,2.5,2.5,0,0,1-.478.089.186.186,0,0,0-.146.22.184.184,0,0,0,.084.122,1.987,1.987,0,0,1,.83,2.225c-.36,1.991-4.263,1.828-4.719,1.8a.2.2,0,0,1-.081-.024l-6.252-3.565A.189.189,0,0,1,165.3,26l-1.262-7.289a.188.188,0,0,1,.05-.163l4.15-4.314a.187.187,0,0,1,.19-.05"/>
        <path id="Path_13665" data-name="Path 13665" d="M166.444,37.931a66.248,66.248,0,0,1-5.058-5.365,4.534,4.534,0,0,1-.768-4.082,56.5,56.5,0,0,1,2.239-5.638c.189-.634,3.99-.608,3.99-.608s7.479,4.854,10.417,13.076l-3.3,1.027a38.6,38.6,0,0,0-3.882-5.359s3.338,4.41,3.456,6.216Z" fill="#66126c"/>
        <path id="Path_13666" data-name="Path 13666" d="M162.4,19.3c.04.132,1.032,3.42,1.109,3.489a5.553,5.553,0,0,0,3.163-.494l-1.675-3.5Z" fill="#ffd6bb"/>
        <path id="Path_13667" data-name="Path 13667" d="M164.026,12.394a6.7,6.7,0,0,0-3.008,3.344c-1.218,2.588-.308,3.782.834,3.946a5.347,5.347,0,0,0,4.657-1.532c1.807-1.672-.154-6.654-2.482-5.758" fill="#ffd6bb"/>
        <path id="Path_13668" data-name="Path 13668" d="M165.295,16.77s1.351-3.786-2.006-3.831l-.79.552s-1.232-2.1.79-3.1,4.387-.174,5.247,2.549,1.007,4.546-.424,5.849-2.021-.174-2.021-.174.78-1.219.462-1.871-1.049.135-1.049.135Z"/>
        <path id="Path_13669" data-name="Path 13669" d="M165.671,17.193s.683-1.95,1.6-1.174-.741,1.8-1.388,2.134Z" fill="#ffd6bb"/>
        <path id="Path_13670" data-name="Path 13670" d="M159.538,38.17l2.491-2.4,3.445,1.456a16.991,16.991,0,0,0,5.392,0l1.963-.531,4.435-1.381.7,1.969a1.184,1.184,0,0,1-.433,1.362,7.863,7.863,0,0,1-1.12.7c-.584.256-14.4-.177-14.4-.177Z" fill="#ffd6bb"/>
        <path id="Path_13671" data-name="Path 13671" d="M168.962,39.3h-.033l-14.446-.016a.647.647,0,0,1,0-1.293l14.447.016a.647.647,0,0,1,.032,1.292" fill="#06517f"/>
        <path id="Path_13672" data-name="Path 13672" d="M141.5,26.186h12.031A2.293,2.293,0,0,1,155.6,27.5l5.562,11.793H146.212a1.394,1.394,0,0,1-1.3-.881L140.6,27.5a.961.961,0,0,1,.893-1.314" fill="#06517f"/>
        <path id="Path_13673" data-name="Path 13673" d="M149.972,32.233c.261.81.068,1.6-.43,1.757s-1.114-.366-1.374-1.176-.068-1.6.43-1.757,1.114.366,1.374,1.176" fill="#13658e"/>
        <path id="Path_13674" data-name="Path 13674" d="M189.154,39.83a.506.506,0,0,0-.136-.462.686.686,0,0,0-.5-.2H123.456a.772.772,0,0,0-.624.3.57.57,0,0,0-.048.616l.7,1.325a1.007,1.007,0,0,0,.9.5h63.691a.728.728,0,0,0,.734-.526Z" fill="#41efde"/>
        <path id="Path_13675" data-name="Path 13675" d="M46.08,66.757,42.254,80.746a.358.358,0,0,1-.682.027L36.02,65.332a.358.358,0,0,1,.216-.458.363.363,0,0,1,.176-.017l9.381,1.452a.358.358,0,0,1,.3.409.27.27,0,0,1-.008.039" fill="#66126c"/>
        <path id="Path_13676" data-name="Path 13676" d="M7.105,66.757l3.83,13.989a.358.358,0,0,0,.682.027l5.552-15.441a.358.358,0,0,0-.216-.458.363.363,0,0,0-.176-.017L7.4,66.309a.358.358,0,0,0-.3.409.27.27,0,0,0,.008.039" fill="#66126c"/>
        <path id="Path_13677" data-name="Path 13677" d="M47.629,57.065H5C4.17,44.8,3.651,31.965,3.978,22.935c0-4.316,1.542-7.856,3.486-8,11.485-2.7,25.124-3.25,39.543-3.02a1.2,1.2,0,0,1,.888.337c.918.8,1.473,2.974,1.381,5.235A327.619,327.619,0,0,1,47.63,57.07" fill="#41efde"/>
        <path id="Path_13678" data-name="Path 13678" d="M50.023,69.4a375.984,375.984,0,0,1-46.948,0C1.41,69.4.06,67.134.06,64.334V60.676c0-2.8,1.35-5.063,3.015-5.063,17.441,1.2,33.65,1.579,46.948,0,1.665,0,3.015,2.267,3.015,5.063v3.658c0,2.8-1.35,5.063-3.015,5.063" fill="#c3fcf2"/>
      </g>
    </g>
    <g id="Group_6986" data-name="Group 6986">
      <g id="Group_6985" data-name="Group 6985" clip-path="url(#clip-path-5)">
        <rect id="Rectangle_3546" data-name="Rectangle 3546" width="13.831" height="14.637" transform="matrix(0.575, -0.818, 0.818, 0.575, 16.956, 25.827)" fill="url(#linear-gradient)"/>
      </g>
    </g>
    <g id="Group_6988" data-name="Group 6988">
      <g id="Group_6987" data-name="Group 6987" clip-path="url(#clip-path-2)">
        <path id="Path_13680" data-name="Path 13680" d="M19.067,32.552a9.463,9.463,0,0,1,2.878-1.339c.386-.1,2.474.5,3.764.472,1.771-.041,3.574-.847,5.033-.483a10.519,10.519,0,0,1,3.322,1.321c2.051,1.459,3.255,4.179,3.989,6.874a9.388,9.388,0,0,1-3.139,2.06l-.323,13.1-7.746,3.959L18,54.078l.317-12.8s-2.807-1.307-3.013-1.783,1.279-5.242,3.756-6.945" fill="#f9c84e"/>
        <path id="Path_13681" data-name="Path 13681" d="M15.442,39.439s-3.761,10.429,4.816,14.714c1.781-.237,1.1-3.194,1.1-3.194s-3.727-.825-2.608-9.524a24.036,24.036,0,0,0-3.3-2" fill="#ffd6bb"/>
        <path id="Path_13682" data-name="Path 13682" d="M37.872,39.439s2.588,10.886-4.816,14.714c-1.781-.237-1.1-3.194-1.1-3.194s3-1.479,2.608-9.524a24.036,24.036,0,0,1,3.3-2" fill="#ffd6bb"/>
        <path id="Path_13683" data-name="Path 13683" d="M29.154,54.886H23.641a5.735,5.735,0,0,1,0-11.469h5.514a5.735,5.735,0,0,1,.152,11.469h-.152" fill="#66126c"/>
        <path id="Path_13684" data-name="Path 13684" d="M42.337,58.287a34.185,34.185,0,0,0-6.436-.206l-.183.5-.3,2.459a51.161,51.161,0,0,0,6.387.769,1.979,1.979,0,0,0,.592-.088,2.455,2.455,0,0,0,.186-.182,2.318,2.318,0,0,0-.244-3.246" fill="#66126c"/>
        <path id="Path_13685" data-name="Path 13685" d="M42.53,58.336c-.061-.017-.125-.033-.193-.049a2.318,2.318,0,0,1,.244,3.246,2.464,2.464,0,0,1-.187.182c1.582-.492,1.769-2.92.135-3.38" fill="#66126c"/>
        <path id="Path_13686" data-name="Path 13686" d="M34.615,57.942l.761.032a1.465,1.465,0,0,1,1.068.553,1.8,1.8,0,0,1,.392,1.233,1.423,1.423,0,0,1-.412.938,1.15,1.15,0,0,1-.89.338l-1.164-.083Z" fill="#ffd6bb"/>
        <path id="Path_13687" data-name="Path 13687" d="M9.035,58.05a34.274,34.274,0,0,1,6.438-.009l.17.5.241,2.468a51.011,51.011,0,0,1-6.4.573,1.969,1.969,0,0,1-.589-.106,2.482,2.482,0,0,1-.182-.188,2.315,2.315,0,0,1,.325-3.237" fill="#66126c"/>
        <path id="Path_13688" data-name="Path 13688" d="M16.766,57.94,16,57.949a1.453,1.453,0,0,0-1.082.52A1.791,1.791,0,0,0,14.5,59.69a1.428,1.428,0,0,0,.388.951,1.163,1.163,0,0,0,.881.365l1.166-.047Z" fill="#ffd6bb"/>
        <path id="Path_13689" data-name="Path 13689" d="M42.88,50.577c-.882-2.029-3.037-2.358-4.872-1.409-.032.042-11.652,6-21.9,8.607a11.118,11.118,0,0,1,.477,2.925q.009.328-.011.648c7.858-.4,16.387-3.024,23.716-5.327a4.051,4.051,0,0,0,2.735-5.034,4.25,4.25,0,0,0-.146-.41" fill="#06517f"/>
        <path id="Path_13690" data-name="Path 13690" d="M34.667,60.856a6.764,6.764,0,0,1,.661-3.166c.013-.045.029-.088.044-.132-.585-.181-1.341-.427-2.334-.764a112.059,112.059,0,0,1-18.126-7.9,3.317,3.317,0,0,0-5.058,2.062,3.817,3.817,0,0,0,2.664,4.683c5.865,1.952,2.811,1.41,4.727,2.026A80.116,80.116,0,0,0,34.68,61.1c0-.082-.009-.165-.012-.247" fill="#055c9a"/>
        <path id="Path_13691" data-name="Path 13691" d="M21.945,31.213a4.487,4.487,0,0,0,4.582,3.321A3.956,3.956,0,0,0,30.742,31.2l-2.528-.541L28,27.844l-3.8.282-.07,2.676Z" fill="#ffd6bb"/>
        <path id="Path_13692" data-name="Path 13692" d="M24.734,19.864s-4.358,8.441.812,10.489c3.646,1.445,5.932-5.606,5.251-7.515-1.054-2.952-1.749-2.6-1.749-2.6Z" fill="#ffd6bb"/>
      </g>
    </g>
    <g id="Group_6990" data-name="Group 6990">
      <g id="Group_6989" data-name="Group 6989" clip-path="url(#clip-path-7)">
        <rect id="Rectangle_3548" data-name="Rectangle 3548" width="16.647" height="17.363" transform="matrix(0.575, -0.818, 0.818, 0.575, 15.265, 23.552)" fill="url(#linear-gradient-2)"/>
      </g>
    </g>
    <g id="Group_7002" data-name="Group 7002">
      <g id="Group_7001" data-name="Group 7001" clip-path="url(#clip-path-2)">
        <path id="Path_13694" data-name="Path 13694" d="M23.7,23.78s-.93-1-1.078.2.329,2.757.888,1.907a2.906,2.906,0,0,0,.19-2.112" fill="#ffd6bb"/>
        <path id="Path_13695" data-name="Path 13695" d="M41.854,63.25c0,2.137-7.268,3.87-16.233,3.87S9.388,65.387,9.388,63.25s7.268-3.87,16.233-3.87,16.233,1.733,16.233,3.87" fill="#c3fcf2"/>
        <g id="Group_6995" data-name="Group 6995" opacity="0.15">
          <g id="Group_6994" data-name="Group 6994">
            <g id="Group_6993" data-name="Group 6993" clip-path="url(#clip-path-9)">
              <g id="Group_6992" data-name="Group 6992">
                <g id="Group_6991" data-name="Group 6991" clip-path="url(#clip-path-10)">
                  <path id="Path_13696" data-name="Path 13696" d="M53.644,81.038c0-1.646-12.009-2.98-26.822-2.98S0,79.389,0,81.038s12.009,2.98,26.822,2.98,26.822-1.334,26.822-2.98"/>
                </g>
              </g>
            </g>
          </g>
        </g>
        <g id="Group_7000" data-name="Group 7000" opacity="0.15">
          <g id="Group_6999" data-name="Group 6999">
            <g id="Group_6998" data-name="Group 6998" clip-path="url(#clip-path-11)">
              <g id="Group_6997" data-name="Group 6997">
                <g id="Group_6996" data-name="Group 6996" clip-path="url(#clip-path-11)">
                  <path id="Path_13697" data-name="Path 13697" d="M77.172,85.266c0-1.562-4.4-2.827-9.832-2.827s-9.832,1.266-9.832,2.827,4.4,2.827,9.832,2.827,9.832-1.266,9.832-2.827"/>
                </g>
              </g>
            </g>
          </g>
        </g>
        <path id="Path_13698" data-name="Path 13698" d="M63.473,23.289c-2.224-5.3-10.279-21.366-24.528-16.4a.218.218,0,0,0-.131.279.222.222,0,0,0,.164.14C42.12,7.89,53.762,10.831,63.1,23.5a.216.216,0,0,0,.374-.21" fill="#66126c"/>
        <path id="Path_13699" data-name="Path 13699" d="M63.351,23.62c-3.2-3.019-12.742-14.7-25.409-9.362a.146.146,0,0,0-.082.189.147.147,0,0,0,.121.092c3.131.331,18.674,2.3,25.309,9.338.176.187.248-.08.061-.256" fill="#66126c"/>
        <path id="Path_13700" data-name="Path 13700" d="M63.049,22.3C62.749,18.3,60.96,3.221,51.249.11a.078.078,0,0,0-.088.119c1.17,1.65,9.684,13.844,11.738,22.091a.077.077,0,0,0,.152-.024" fill="#66126c"/>
        <path id="Path_13701" data-name="Path 13701" d="M64.016,26.872a.084.084,0,0,0,.1-.133c-1.716-1.709-8.819-7.99-17.838-4.9-10.217,3.5,7.673-.431,17.738,5.03" fill="#66126c"/>
        <path id="Path_13702" data-name="Path 13702" d="M63.781,23.743a.259.259,0,0,1-.512.042c-1.077-4.737-3.36-17.8,3.285-21.123,7.866-3.933-1.7,5.591-2.773,21.081" fill="#66126c"/>
        <path id="Path_13703" data-name="Path 13703" d="M63.322,23.71c1.116-2.909,5.42-11.941,14.377-7.061a.172.172,0,0,1-.07.323,21.07,21.07,0,0,0-14.018,6.91.171.171,0,0,1-.289-.172" fill="#66126c"/>
        <path id="Path_13704" data-name="Path 13704" d="M63.561,24.44c.412-1.8,2.554-5.4,13.457-2.1a.057.057,0,0,1-.02.111c-2.142-.222-9.381-.714-12.93,2.3a.314.314,0,0,1-.507-.31" fill="#66126c"/>
        <path id="Path_13705" data-name="Path 13705" d="M66.119,73.407a.069.069,0,0,0-.022.034V73.4l.009-.19.016-.389.026-.786.04-1.579.055-3.162q.041-3.164.029-6.327-.018-6.328-.249-12.651Q65.9,45.155,65.7,42c-.14-2.1-.309-4.2-.524-6.3s-.489-4.181-.852-6.248a33.426,33.426,0,0,0-1.56-6.051v-.01a.368.368,0,0,1,.685-.268,34.086,34.086,0,0,1,1.687,6.18c.4,2.089.7,4.191.946,6.3s.444,4.215.613,6.326.3,4.224.411,6.337q.328,6.341.424,12.688.053,3.173.057,6.348l-.012,3.176-.019,1.59-.015.8-.011.4-.007.205v.051a.55.55,0,0,1-.008.1,1.984,1.984,0,0,1-.038.231.714.714,0,0,1-1.355-.452" fill="#66126c"/>
        <path id="Path_13706" data-name="Path 13706" d="M71.506,35.989c1.663-3.963,7.686-15.977,18.341-12.266a.163.163,0,0,1-.025.313c-2.349.435-11.055,2.635-18.037,12.11a.161.161,0,0,1-.28-.157" fill="#66126c"/>
        <path id="Path_13707" data-name="Path 13707" d="M71.593,36.237c2.4-2.258,9.528-10.993,19-7a.109.109,0,0,1-.029.21c-2.341.248-13.964,1.72-18.926,6.983-.131.14-.185-.06-.045-.192" fill="#66126c"/>
        <path id="Path_13708" data-name="Path 13708" d="M71.818,35.245c.227-2.987,1.562-14.264,8.825-16.59a.059.059,0,0,1,.073.04.057.057,0,0,1-.007.049c-.875,1.234-7.242,10.353-8.777,16.519a.058.058,0,0,1-.071.041.056.056,0,0,1-.043-.059" fill="#66126c"/>
        <path id="Path_13709" data-name="Path 13709" d="M71.1,38.668a.063.063,0,0,1-.075-.1c1.283-1.278,6.6-5.975,13.339-3.662,7.64,2.62-5.737-.322-13.264,3.761" fill="#66126c"/>
        <path id="Path_13710" data-name="Path 13710" d="M71.271,36.328a.194.194,0,0,0,.379.036c.806-3.542,2.513-13.311-2.456-15.8-5.882-2.941,1.275,4.18,2.074,15.764" fill="#66126c"/>
        <path id="Path_13711" data-name="Path 13711" d="M71.614,36.3c-.835-2.175-4.053-8.929-10.751-5.28a.129.129,0,0,0,.052.242A15.757,15.757,0,0,1,71.4,36.432a.128.128,0,0,0,.216-.129" fill="#66126c"/>
        <path id="Path_13712" data-name="Path 13712" d="M71.434,36.849c-.308-1.343-1.91-4.037-10.063-1.57a.042.042,0,0,0,.015.083c1.6-.167,7.015-.534,9.668,1.718a.235.235,0,0,0,.379-.232" fill="#66126c"/>
        <path id="Path_13713" data-name="Path 13713" d="M68.339,73.863a1.811,1.811,0,0,1-.036-.206c0-.03-.007-.081-.008-.092v-.039l0-.156-.007-.3-.01-.6-.011-1.19V68.9q.007-2.375.054-4.749.09-4.747.339-9.493c.176-3.162.412-6.324.788-9.476.189-1.576.419-3.149.72-4.714a25.516,25.516,0,0,1,1.278-4.638.368.368,0,0,1,.685.268v.01a24.927,24.927,0,0,0-1.15,4.508c-.267,1.543-.467,3.1-.625,4.666-.315,3.129-.493,6.276-.611,9.425s-.162,6.3-.164,9.456q0,2.366.033,4.729l.046,2.363.033,1.179.021.586.012.289.007.141v.016a.155.155,0,0,0-.024-.058.714.714,0,1,1-1.355.452" fill="#66126c"/>
        <path id="Path_13714" data-name="Path 13714" d="M58.7,42.835c-1.9-3.106-8.414-12.381-15.844-7.687a.145.145,0,0,0,.07.261c1.844.024,8.771.611,15.589,7.6.111.114.27-.035.185-.174" fill="#66126c"/>
        <path id="Path_13715" data-name="Path 13715" d="M58.668,43.058c-2.177-1.558-8.987-7.9-15.479-3.141a.1.1,0,0,0-.006.141.1.1,0,0,0,.062.032c1.806-.133,10.815-.587,15.419,3.136.122.1.13-.078,0-.169" fill="#66126c"/>
        <path id="Path_13716" data-name="Path 13716" d="M58.336,42.253c-.661-2.491-3.514-11.828-9.374-12.733-.043-.007-.067.051-.035.085.862.915,7.158,7.692,9.326,12.68a.044.044,0,1,0,.082-.032" fill="#66126c"/>
        <path id="Path_13717" data-name="Path 13717" d="M59.441,45.039c.054.02.087-.059.04-.1C58.3,44.051,53.528,40.858,48.82,43.8c-5.334,3.331,4.275-1.111,10.621,1.24" fill="#66126c"/>
        <path id="Path_13718" data-name="Path 13718" d="M58.927,43.09a.148.148,0,0,1-.283.083c-1.188-2.876-4.076-10.883-.734-13.71,3.955-3.345-.277,3.72,1.018,13.627" fill="#66126c"/>
        <path id="Path_13719" data-name="Path 13719" d="M58.667,43.12c.274-1.961,1.6-8.14,7.244-6.034a.114.114,0,0,1,.064.148.118.118,0,0,1-.064.064,11.578,11.578,0,0,0-7.061,5.9.1.1,0,0,1-.184-.077" fill="#66126c"/>
        <path id="Path_13720" data-name="Path 13720" d="M58.889,43.555c.012-1.18.78-3.692,7.333-2.8.039.006.041.069,0,.072-1.236.093-5.379.574-7.011,2.866a.184.184,0,0,1-.324-.141" fill="#66126c"/>
        <path id="Path_13721" data-name="Path 13721" d="M66.027,74.224a.169.169,0,0,0-.008.059v-.012L66,74.151l-.037-.246-.079-.5-.166-1-.346-2q-.355-2-.739-4-.767-3.994-1.65-7.962c-.6-2.643-1.239-5.275-1.981-7.875-.372-1.3-.774-2.589-1.225-3.857a23.638,23.638,0,0,0-1.6-3.663l-.005-.009a.368.368,0,0,1,.636-.37,24.25,24.25,0,0,1,1.743,3.757c.487,1.281.921,2.578,1.325,3.882.805,2.608,1.507,5.243,2.163,7.886s1.258,5.3,1.827,7.961q.428,2,.827,4l.391,2.006.189,1.006.092.506.045.257.022.132.006.033.01.081a1.634,1.634,0,0,1,.007.185.714.714,0,0,1-1.423-.115l0-.024" fill="#66126c"/>
        <path id="Path_13722" data-name="Path 13722" d="M60.21,70.59H74.268a1.432,1.432,0,0,1,1.4,1.755,44.371,44.371,0,0,1-4.183,11.864,2.319,2.319,0,0,1-2.029,1.206H64.869a2.262,2.262,0,0,1-1.992-1.191A40.5,40.5,0,0,1,58.57,72.583,1.676,1.676,0,0,1,59.9,70.62a1.643,1.643,0,0,1,.313-.03" fill="#f9c84e"/>
      </g>
    </g>
    <g id="Group_7009" data-name="Group 7009">
      <g id="Group_7008" data-name="Group 7008" clip-path="url(#clip-path-2)">
        <g id="Group_7007" data-name="Group 7007" opacity="0.4">
          <g id="Group_7006" data-name="Group 7006">
            <g id="Group_7005" data-name="Group 7005" clip-path="url(#clip-path-14)">
              <g id="Group_7004" data-name="Group 7004">
                <g id="Group_7003" data-name="Group 7003" clip-path="url(#clip-path-15)">
                  <path id="Path_13723" data-name="Path 13723" d="M24.154,46.217a.389.389,0,1,1-.289.468.389.389,0,0,1,.289-.468" fill="#fff"/>
                  <path id="Path_13724" data-name="Path 13724" d="M29.222,48.408A2.853,2.853,0,0,0,25.3,45.872a.244.244,0,0,0-.132.318l.007.016.185.376a2.318,2.318,0,0,1,.976-.25,2.1,2.1,0,0,1,1.2.3,2.266,2.266,0,0,1,.417.339,2.382,2.382,0,0,1,.329.432.267.267,0,0,1-.078.357l-.284.194a.268.268,0,0,1-.379-.083,1.255,1.255,0,0,0-1.2-.647,1.3,1.3,0,0,0-.512.1c-.03.012-.06.027-.088.041l0,.011-.034.005a1.146,1.146,0,0,0-.528.616,1.464,1.464,0,0,0-.09.52,1.411,1.411,0,0,0,.093.519,1.264,1.264,0,0,0,.259.413,1.169,1.169,0,0,0,.391.271,1.282,1.282,0,0,0,.512.1,1.4,1.4,0,0,0,.736-.165,1.3,1.3,0,0,0,.252-.2,1.524,1.524,0,0,0,.208-.271.267.267,0,0,1,.366-.091h0l.013.008.283.194a.266.266,0,0,1,.077.359,2.3,2.3,0,0,1-.768.767,2.232,2.232,0,0,1-1.174.291,2.164,2.164,0,0,1-.862-.171,2.068,2.068,0,0,1-.684-.471,2.124,2.124,0,0,1-.444-.7,2.353,2.353,0,0,1-.156-.858,2.318,2.318,0,0,1,.12-.753l-.326-.144a.273.273,0,0,0-.361.141h0a.267.267,0,0,0-.013.04,2.853,2.853,0,1,0,5.609.617Z" fill="#fff"/>
                </g>
              </g>
            </g>
          </g>
        </g>
      </g>
    </g>
  </g>
</svg>
