<?xml version="1.0" encoding="utf-8"?>
<!-- Generator: Adobe Illustrator 27.2.0, SVG Export Plug-In . SVG Version: 6.00 Build 0)  -->
<svg version="1.1" id="Layer_1" xmlns="http://www.w3.org/2000/svg" xmlns:xlink="http://www.w3.org/1999/xlink" x="0px" y="0px"
	 viewBox="0 0 745 399" style="enable-background:new 0 0 745 399;" xml:space="preserve">
<style type="text/css">
	.st0{clip-path:url(#SVGID_00000135659022073195196060000016814120940081908618_);}
	.st1{clip-path:url(#SVGID_00000095327509751070984250000012320424934682946178_);}
	.st2{opacity:0.15;}
	.st3{clip-path:url(#SVGID_00000142892437005966581290000012091291046509081763_);}
	.st4{fill:#F7C289;}
	.st5{fill:#F9C84E;}
	.st6{fill:#06517F;}
	.st7{fill:#939393;}
	.st8{fill:#D8D8D8;}
	.st9{fill:#41EFDE;}
	.st10{fill:#EFC6B4;}
	.st11{fill:#66126C;}
	.st12{fill:#FFD6BB;}
	.st13{fill:#13658E;}
	.st14{fill:#C3FCF2;}
	.st15{clip-path:url(#SVGID_00000087382710191906420680000005442149832176731560_);}
	.st16{fill:url(#Rectangle_3545_00000127735952337235983990000013038940205279541658_);}
	.st17{clip-path:url(#SVGID_00000060731738526953815880000013895299829563750048_);}
	.st18{fill:#055C9A;}
	.st19{clip-path:url(#SVGID_00000095315329597815979500000013224570922301997488_);}
	.st20{fill:url(#Rectangle_3547_00000093861063311761343930000010398524059979086514_);}
	.st21{clip-path:url(#SVGID_00000078042435947420551170000006630117714076530335_);}
	.st22{fill:#FFFFFF;}
	.st23{clip-path:url(#SVGID_00000122686472112749867170000011400102726671344045_);}
	.st24{clip-path:url(#SVGID_00000016039475618140598330000000574858631370442113_);}
	.st25{clip-path:url(#SVGID_00000018934504789460442920000015533201721428163461_);}
	.st26{clip-path:url(#SVGID_00000082343346443050581620000004480874050128094093_);}
	.st27{clip-path:url(#SVGID_00000180360637573029851470000015725745207900008630_);}
	.st28{fill:#E0E0E0;}
	.st29{fill:#C9C9C9;}
	.st30{clip-path:url(#SVGID_00000083051791252411566620000006910373840161613441_);}
	.st31{fill:#FFD6B8;}
	.st32{clip-path:url(#SVGID_00000061474046527381997540000007593439935338777772_);}
	.st33{fill:url(#Rectangle_3534_00000171679721780318873720000004410480966732805532_);}
	.st34{clip-path:url(#SVGID_00000044884230901292537960000011852361475913406120_);}
	.st35{clip-path:url(#SVGID_00000150819951889991071060000007573109484830227900_);}
	.st36{clip-path:url(#SVGID_00000068674440134991921240000005655454098960986762_);}
	.st37{fill:#862C93;}
	.st38{fill:#05496B;}
	.st39{fill:#07598C;}
	.st40{opacity:0.5;}
	.st41{clip-path:url(#SVGID_00000088098918329264891440000004893946412087832963_);}
	.st42{clip-path:url(#SVGID_00000080185741030377341210000008684908735404090043_);}
	.st43{clip-path:url(#SVGID_00000170957640727369267180000003861197586101317268_);}
	.st44{fill:url(#Rectangle_3540_00000005982116241106957640000001628193578364961694_);}
	.st45{clip-path:url(#SVGID_00000078736429700896397360000005543431999193430412_);}
	.st46{fill:#FCCB90;}
	.st47{fill:#E78456;}
	.st48{clip-path:url(#SVGID_00000000913257408142480890000001873439383135191703_);}
	.st49{clip-path:url(#SVGID_00000098933662520408191200000006412408690750234036_);}
	.st50{clip-path:url(#SVGID_00000114062738595018177550000010953823163851076247_);}
	.st51{fill:#480D4F;}
	.st52{clip-path:url(#SVGID_00000016756038491048655270000016549462263736374674_);}
	.st53{fill:#57F7E4;}
	.st54{fill:#F9C59B;}
	.st55{opacity:0.45;}
	.st56{clip-path:url(#SVGID_00000044159908665397581390000002810955187437079961_);}
	.st57{clip-path:url(#SVGID_00000145745360801772857610000013554069767898509444_);}
	.st58{clip-path:url(#SVGID_00000032633869782020918010000011629852753188997266_);}
	.st59{clip-path:url(#SVGID_00000181794406959160266320000014679594873262360743_);}
	.st60{clip-path:url(#SVGID_00000146472026722531028190000006803237989379618465_);}
	.st61{fill:url(#Rectangle_3466_00000018220594142775613820000007326108530289518228_);}
	.st62{clip-path:url(#SVGID_00000153663677430487757830000012332442496537050531_);}
	.st63{clip-path:url(#SVGID_00000171717885991848991590000011593394906569299123_);}
	.st64{clip-path:url(#SVGID_00000024699874705446233210000016720339581529043100_);}
	.st65{fill:url(#Rectangle_3469_00000087386576263615996180000013468538892240671139_);}
	.st66{clip-path:url(#SVGID_00000146480787931883372660000016383040969524528283_);}
	.st67{clip-path:url(#SVGID_00000049219543721885742760000012354284904313783707_);}
	.st68{clip-path:url(#SVGID_00000107586981523835091070000002621642379278876582_);}
	.st69{clip-path:url(#SVGID_00000172410784308258000960000012387992878495759551_);}
	.st70{clip-path:url(#SVGID_00000057125467089681210330000016198089307169533585_);}
	.st71{clip-path:url(#SVGID_00000065038854069512241570000001392153379843328697_);}
	.st72{clip-path:url(#SVGID_00000041268612859597532620000005202781960279799966_);}
	.st73{clip-path:url(#SVGID_00000121993498626338270920000003289287907732701867_);}
	.st74{clip-path:url(#SVGID_00000008831270457248329520000009409790070723089301_);}
	.st75{clip-path:url(#SVGID_00000107576005332853821740000014372842982748082569_);}
	.st76{opacity:0.56;}
	.st77{clip-path:url(#SVGID_00000163790441733117065190000016857856240442444455_);}
	.st78{clip-path:url(#SVGID_00000000201557337650835980000000654463057449256875_);}
	.st79{fill:#4C4C4C;}
	.st80{fill:#2B2B2B;}
	.st81{clip-path:url(#SVGID_00000159433011615011679760000011953996314243121837_);}
	.st82{clip-path:url(#SVGID_00000147916354169798937940000009372751170555382709_);}
	.st83{clip-path:url(#SVGID_00000152944716008973323490000008892589509550006662_);}
	.st84{clip-path:url(#SVGID_00000096761709992708381580000002594186188776147593_);}
	.st85{opacity:0.1;}
	.st86{clip-path:url(#SVGID_00000132786590089908642640000017323236519108699267_);}
	.st87{fill:#F7F7F7;}
	.st88{clip-path:url(#SVGID_00000181775071977890640850000013159132012735655301_);}
	.st89{clip-path:url(#SVGID_00000075160946022543990080000005734277574576037309_);}
	.st90{opacity:0.78;}
	.st91{clip-path:url(#SVGID_00000159439182949524069610000001592303097393300648_);}
	.st92{clip-path:url(#SVGID_00000003072592118673907160000017186758364988251579_);}
	.st93{clip-path:url(#SVGID_00000016064759076589256710000011499366871625125524_);}
	.st94{clip-path:url(#SVGID_00000103223502206543725560000002175817677665171096_);}
	.st95{clip-path:url(#SVGID_00000057118146817009983980000015536227842224851866_);}
	.st96{clip-path:url(#SVGID_00000106143649458187658790000002558958402114466710_);}
	.st97{fill:#3A083F;}
	.st98{clip-path:url(#SVGID_00000112607559891181351300000003344686479930736034_);}
	.st99{clip-path:url(#SVGID_00000150799713824473367280000006748500479728412565_);}
	.st100{fill:#D8AA45;}
	.st101{clip-path:url(#SVGID_00000021824906246378018940000003451812109530764717_);}
	.st102{clip-path:url(#SVGID_00000060007454907083472380000001285150102845331109_);}
	.st103{fill:#410847;}
	.st104{fill:#4F4F4F;}
	.st105{fill:#FFBC36;}
	.st106{clip-path:url(#SVGID_00000155842874353972261340000013781786021431568831_);}
	.st107{clip-path:url(#SVGID_00000018203367830442628880000014827240648937776772_);}
	.st108{clip-path:url(#SVGID_00000077308277952731767120000014606455424669229756_);}
	.st109{opacity:0.6;}
	.st110{clip-path:url(#SVGID_00000109731191273847366920000002586440308209748658_);}
	.st111{clip-path:url(#SVGID_00000012436112120884114800000016107697046958728371_);}
	.st112{fill:none;stroke:#000000;stroke-width:4;stroke-miterlimit:10;}
	.st113{clip-path:url(#SVGID_00000168796386062779606860000012731136114297538437_);}
	.st114{clip-path:url(#SVGID_00000182526350389178768890000015947747579280861062_);}
	.st115{fill:none;stroke:#000000;stroke-width:4;stroke-linecap:round;stroke-linejoin:round;}
	.st116{clip-path:url(#SVGID_00000105408941671257342900000004746710019957472411_);}
</style>
<g>
	<defs>
		<rect id="SVGID_00000097473171648025567700000003117066232842302341_" x="8.1" y="8.9" width="726.9" height="382.3"/>
	</defs>
	<clipPath id="SVGID_00000076603653828234467590000018378603937413142179_">
		<use xlink:href="#SVGID_00000097473171648025567700000003117066232842302341_"  style="overflow:visible;"/>
	</clipPath>
	<g id="Group_6837" style="clip-path:url(#SVGID_00000076603653828234467590000018378603937413142179_);">
		<g id="Group_6836">
			<g>
				<defs>
					<rect id="SVGID_00000016055759601937869730000007960200597448372626_" x="8.1" y="8.9" width="726.9" height="382.3"/>
				</defs>
				<clipPath id="SVGID_00000120556588572824637780000006063318218308475312_">
					<use xlink:href="#SVGID_00000016055759601937869730000007960200597448372626_"  style="overflow:visible;"/>
				</clipPath>
				<g id="Group_6835" style="clip-path:url(#SVGID_00000120556588572824637780000006063318218308475312_);">
					<g id="Group_6795" transform="translate(0 228.116)" class="st85">
						<g id="Group_6794">
							<g>
								<defs>
									<rect id="SVGID_00000062164266320875686460000005384546200027125692_" x="8.1" y="8.9" width="726.7" height="154.2"/>
								</defs>
								<clipPath id="SVGID_00000041989648202422268460000001902818151202044858_">
									<use xlink:href="#SVGID_00000062164266320875686460000005384546200027125692_"  style="overflow:visible;"/>
								</clipPath>
								<g id="Group_6793" style="clip-path:url(#SVGID_00000041989648202422268460000001902818151202044858_);">
									<path id="Path_13001" d="M8.1,8.9v20.2c0,13.2,21.1,23.3,33.6,25.7l485.1,103.6c38,8.1,77.6,5.9,114.4-6.5l93.6-31.4v-17.6
										"/>
								</g>
							</g>
						</g>
					</g>
					<path id="Path_13002" class="st87" d="M482.8,57.8L735,106.5v224.4l-53.9,21.6c-48.4,20.9-106.3,30.4-169.4,15.7l-457.1-96
						c-8.3-1.7-16.4-3.7-23.8-7.9c-32.7-18.6-30.3-44.4,8.7-67.1L482.8,57.8z"/>
					<path id="Path_13003" class="st9" d="M614.4,122c0.9,0.7,27-1.1,37.9,1.1c0,0,8.5-37-15.9-38.4s-32.8,13.6-32.8,13.6L614.4,122
						z"/>
					<path id="Path_13004" class="st14" d="M588.7,82.9l47.7,1.7c0,0-17.4,0.2-15.5,22.2s11.7,86.3-13.2,86.3s-25.3-11.3-25.3-11.3
						L588.7,82.9z"/>
					<path id="Path_13005" class="st9" d="M566.4,72.6l18.5-4.3c0,0,12.3-1.1,14,9.9s1.2,75.9,0.7,89.3s0.7,23.7,8.3,25.7l-54.9,0.9
						L566.4,72.6z"/>
					<g id="Group_6798" transform="translate(607.579 79.198)">
						<g id="Group_6797">
							<g>
								<defs>
									<rect id="SVGID_00000121244027310179098270000011502605152447263369_" x="8.1" y="8.9" width="6.7" height="43.7"/>
								</defs>
								<clipPath id="SVGID_00000082370121121735119890000018238696034873938879_">
									<use xlink:href="#SVGID_00000121244027310179098270000011502605152447263369_"  style="overflow:visible;"/>
								</clipPath>
								<g id="Group_6796" style="clip-path:url(#SVGID_00000082370121121735119890000018238696034873938879_);">
									<path id="Path_13006" class="st22" d="M11.4,52.6c-0.3,0-0.5-0.2-0.6-0.5c0-0.1-0.9-15-2.5-27.4C6.7,11.8,13.7,9.1,14,8.9
										c0.3-0.1,0.6,0.1,0.7,0.3c0.1,0.3,0,0.6-0.3,0.7c-0.3,0.1-6.5,2.6-4.9,14.5C11.1,36.9,12,51.9,12,52
										C12,52.3,11.8,52.6,11.4,52.6C11.5,52.6,11.5,52.6,11.4,52.6L11.4,52.6"/>
								</g>
							</g>
						</g>
					</g>
					<path id="Path_13007" class="st14" d="M528.9,73.5c0,0,33.6,1.8,56-5.2c0,0-14.9-1-14.9,33.3c0,26.2,3.9,76.4,0.5,85.9
						s-16.1,22.3-34.3,11.3S528.9,73.5,528.9,73.5"/>
					<g id="Group_6801" transform="translate(555.319 65.502)">
						<g id="Group_6800">
							<g>
								<defs>
									<rect id="SVGID_00000008117977516016706350000000521893244604596412_" x="8.1" y="8.9" width="7.8" height="59.2"/>
								</defs>
								<clipPath id="SVGID_00000119091927140627514160000005179026174034382761_">
									<use xlink:href="#SVGID_00000008117977516016706350000000521893244604596412_"  style="overflow:visible;"/>
								</clipPath>
								<g id="Group_6799" style="clip-path:url(#SVGID_00000119091927140627514160000005179026174034382761_);">
									<path id="Path_13008" class="st22" d="M9.9,68.2c-0.3,0-0.6-0.2-0.6-0.5c-0.1-4-0.3-8.4-0.5-13c-0.3-6.3-0.6-12.8-0.7-19
										C7.7,19,10.5,12.7,12.8,10.3c0.6-0.8,1.5-1.2,2.5-1.3c0.3,0,0.6,0.2,0.6,0.6c0,0.3-0.2,0.6-0.6,0.6c-0.1,0-6.6,0.7-6,25.5
										c0.1,6.2,0.4,12.7,0.7,19c0.2,4.7,0.4,9.1,0.5,13C10.5,67.9,10.2,68.1,9.9,68.2L9.9,68.2"/>
								</g>
							</g>
						</g>
					</g>
					<path id="Path_13009" class="st14" d="M520,22c0,0,37.1,4,41.9-2.2c0,0-3.8-11.3-15.1-10.6S520,22,520,22"/>
					<path id="Path_13010" class="st9" d="M418.3,12.7c-11.2,0.7-19.7,10.3-19,21.5c0,0.2,0,0.4,0,0.5c3.2,36.3,10,113.2,13,150.6
						c0.7,8.3,7.3,14.9,15.7,15.5c29.8,1.9,96.7,5.6,122.4,2.2c-5.9-2.9-9.6-8.9-9.5-15.5l1.4-168c0-4.8,3.9-8.6,8.6-8.6
						c1,0,2,0.2,2.9,0.5c3.5,1.3,6.2,4.1,8,8.4c-2.4-7.1-6.2-12.2-15.1-10.6C546.7,9.2,460.3,10.1,418.3,12.7"/>
					
						<image style="overflow:visible;opacity:0.53;enable-background:new    ;" width="173" height="234" id="Rectangle_3428" xlink:href="916D35D1.png"  transform="matrix(0.8131 0 0 0.8131 402.4383 12.3573)">
					</image>
					<g id="Group_6804" transform="translate(412.159 52.825)" class="st90">
						<g id="Group_6803">
							<g>
								<defs>
									<rect id="SVGID_00000181792018013691669680000014484232963190198401_" x="8.1" y="8.9" width="101.9" height="8.2"/>
								</defs>
								<clipPath id="SVGID_00000177459463700972129210000018225388951389067161_">
									<use xlink:href="#SVGID_00000181792018013691669680000014484232963190198401_"  style="overflow:visible;"/>
								</clipPath>
								<g id="Group_6802" style="clip-path:url(#SVGID_00000177459463700972129210000018225388951389067161_);">
									<path id="Path_13011" class="st22" d="M11.5,11.3c16.3-0.4,79-2,94.9-2.4c2-0.1,3.6,1.2,3.6,2.7c0,1.5-1.5,2.7-3.4,2.7
										l-94.8,2.7c-1.8,0.1-3.4-1-3.6-2.4l-0.1-0.4C7.9,12.8,9.4,11.3,11.5,11.3"/>
								</g>
							</g>
						</g>
					</g>
					<g id="Group_6807" transform="translate(414.027 66.182)" class="st90">
						<g id="Group_6806">
							<g>
								<defs>
									<rect id="SVGID_00000093880203982613296210000008222612792081596350_" x="8.1" y="8.9" width="68.4" height="6.7"/>
								</defs>
								<clipPath id="SVGID_00000134221299728580691610000004530825162521021619_">
									<use xlink:href="#SVGID_00000093880203982613296210000008222612792081596350_"  style="overflow:visible;"/>
								</clipPath>
								<g id="Group_6805" style="clip-path:url(#SVGID_00000134221299728580691610000004530825162521021619_);">
									<path id="Path_13012" class="st22" d="M8.6,15.1L8.6,15.1c0.3,0.4,0.8,0.6,1.3,0.6L75,14.5c0.7,0.1,1.4-0.4,1.5-1.2v-3.3
										c-0.1-0.7-0.8-1.3-1.6-1.2l-63.3,1.8C8.9,10.8,7.2,13.2,8.6,15.1"/>
								</g>
							</g>
						</g>
					</g>
					<g id="Group_6810" transform="translate(412.159 88.937)" class="st90">
						<g id="Group_6809">
							<g>
								<defs>
									<rect id="SVGID_00000129193109581688317430000005252121549004840362_" x="8.1" y="8.9" width="101.9" height="8.2"/>
								</defs>
								<clipPath id="SVGID_00000079474078005720676300000009375676923785505190_">
									<use xlink:href="#SVGID_00000129193109581688317430000005252121549004840362_"  style="overflow:visible;"/>
								</clipPath>
								<g id="Group_6808" style="clip-path:url(#SVGID_00000079474078005720676300000009375676923785505190_);">
									<path id="Path_13013" class="st22" d="M11.5,11.3c16.3-0.4,79-2,94.9-2.4c2-0.1,3.6,1.2,3.6,2.7c0,1.5-1.5,2.7-3.4,2.7
										l-94.8,2.7c-1.8,0.1-3.4-1-3.6-2.4l-0.1-0.4C7.9,12.8,9.4,11.3,11.5,11.3"/>
								</g>
							</g>
						</g>
					</g>
					<g id="Group_6813" transform="translate(414.027 102.295)" class="st90">
						<g id="Group_6812">
							<g>
								<defs>
									<rect id="SVGID_00000095298036449948175920000004115807434516279476_" x="8.1" y="8.9" width="68.4" height="6.7"/>
								</defs>
								<clipPath id="SVGID_00000150813806542828758590000005861670057789779349_">
									<use xlink:href="#SVGID_00000095298036449948175920000004115807434516279476_"  style="overflow:visible;"/>
								</clipPath>
								<g id="Group_6811" style="clip-path:url(#SVGID_00000150813806542828758590000005861670057789779349_);">
									<path id="Path_13014" class="st22" d="M8.6,15.1L8.6,15.1c0.3,0.4,0.8,0.6,1.3,0.6L75,14.5c0.7,0.1,1.4-0.4,1.5-1.2v-3.3
										c-0.1-0.7-0.8-1.3-1.6-1.2l-63.3,1.8C8.9,10.8,7.2,13.2,8.6,15.1"/>
								</g>
							</g>
						</g>
					</g>
					<g id="Group_6816" transform="translate(412.159 125.049)" class="st90">
						<g id="Group_6815">
							<g>
								<defs>
									<rect id="SVGID_00000123411604895439142360000004835702384508502175_" x="8.1" y="8.9" width="101.9" height="8.2"/>
								</defs>
								<clipPath id="SVGID_00000093142278524641722440000010243117588774369692_">
									<use xlink:href="#SVGID_00000123411604895439142360000004835702384508502175_"  style="overflow:visible;"/>
								</clipPath>
								<g id="Group_6814" style="clip-path:url(#SVGID_00000093142278524641722440000010243117588774369692_);">
									<path id="Path_13015" class="st22" d="M11.5,11.3c16.3-0.4,79-2,94.9-2.4c2-0.1,3.6,1.2,3.6,2.7c0,1.5-1.5,2.7-3.4,2.7
										l-94.8,2.7c-1.8,0.1-3.4-1-3.6-2.4l-0.1-0.4C7.9,12.8,9.4,11.3,11.5,11.3"/>
								</g>
							</g>
						</g>
					</g>
					<g id="Group_6819" transform="translate(414.027 138.406)" class="st90">
						<g id="Group_6818">
							<g>
								<defs>
									<rect id="SVGID_00000029755209563454024750000006963367856357186204_" x="8.1" y="8.9" width="68.4" height="6.7"/>
								</defs>
								<clipPath id="SVGID_00000106846172346834668500000008409738829251437717_">
									<use xlink:href="#SVGID_00000029755209563454024750000006963367856357186204_"  style="overflow:visible;"/>
								</clipPath>
								<g id="Group_6817" style="clip-path:url(#SVGID_00000106846172346834668500000008409738829251437717_);">
									<path id="Path_13016" class="st22" d="M8.6,15.1L8.6,15.1c0.3,0.4,0.8,0.6,1.3,0.6L75,14.5c0.7,0.1,1.4-0.4,1.5-1.2v-3.3
										c-0.1-0.7-0.8-1.3-1.6-1.2l-63.3,1.8C8.9,10.8,7.2,13.2,8.6,15.1"/>
								</g>
							</g>
						</g>
					</g>
					<path id="Path_13017" class="st11" d="M346.6,207.2l-6.3,22.9c-0.1,0.3-0.4,0.5-0.7,0.4c-0.2-0.1-0.3-0.2-0.4-0.4l-9.1-25.3
						c-0.1-0.3,0-0.6,0.4-0.8c0.1,0,0.2,0,0.3,0l15.4,2.4C346.5,206.5,346.7,206.8,346.6,207.2C346.7,207.2,346.7,207.2,346.6,207.2
						"/>
					<path id="Path_13018" class="st11" d="M196,206.5l6.3,22.9c0.1,0.3,0.4,0.5,0.7,0.4c0.2-0.1,0.3-0.2,0.4-0.4l9.1-25.3
						c0.1-0.3,0-0.6-0.4-0.8c-0.1,0-0.2,0-0.3,0l-15.4,2.4C196.1,205.8,195.9,206.1,196,206.5C196,206.4,196,206.5,196,206.5"/>
					<path id="Path_13019" class="st11" d="M351.4,179h-162c-3.2-20.1-5.1-41.2-3.9-56c0.2-7.2,6-13,13.2-13.1
						c43.6-4.4,95.5-5.3,150.2-5c1.1,0,2.3,0.1,3.4,0.6c3.5,1.4,5.6,4.9,5.2,8.6C359.1,133.9,356.3,157.2,351.4,179"/>
					<path id="Path_13020" class="st97" d="M360.5,207.8c-56.6,2.2-116,2.2-178.4,0c-6.3,0-11.5-5.1-11.5-11.5l0,0v-8.3
						c0-6.3,5.1-11.5,11.5-11.5l0,0c66.3,2.7,127.8,3.6,178.4,0c6.3,0,11.5,5.1,11.5,11.5v8.3C372,202.7,366.8,207.8,360.5,207.8"/>
					<g id="Group_6822" transform="translate(162.441 212.9)" class="st85">
						<g id="Group_6821">
							<g>
								<defs>
									<rect id="SVGID_00000038386750318927653670000014346641784367332281_" x="8.1" y="8.9" width="205.9" height="13.9"/>
								</defs>
								<clipPath id="SVGID_00000071546253810200798020000001398209462433803442_">
									<use xlink:href="#SVGID_00000038386750318927653670000014346641784367332281_"  style="overflow:visible;"/>
								</clipPath>
								<g id="Group_6820" style="clip-path:url(#SVGID_00000071546253810200798020000001398209462433803442_);">
									<path id="Path_13021" d="M214,15.9c0-3.9-46.1-7-102.9-7S8.1,12,8.1,15.9s46.1,7,102.9,7S214,19.7,214,15.9"/>
								</g>
							</g>
						</g>
					</g>
					<g id="Group_6825" transform="translate(111.391 241.482)" class="st85">
						<g id="Group_6824">
							<g>
								<defs>
									<rect id="SVGID_00000101062573848124940360000011532278488905566855_" x="8.1" y="8.9" width="62.6" height="13"/>
								</defs>
								<clipPath id="SVGID_00000182515747017373585620000002612579330018627473_">
									<use xlink:href="#SVGID_00000101062573848124940360000011532278488905566855_"  style="overflow:visible;"/>
								</clipPath>
								<g id="Group_6823" style="clip-path:url(#SVGID_00000182515747017373585620000002612579330018627473_);">
									<path id="Path_13022" d="M70.7,15.4c0-3.6-14-6.5-31.3-6.5S8.1,11.8,8.1,15.4s14,6.5,31.3,6.5S70.7,19,70.7,15.4"/>
								</g>
							</g>
						</g>
					</g>
					<path id="Path_13023" d="M148.9,256.2c0-0.1,0-0.2,0-0.3c-1.4-5.7-8.5-9.2-8.5-9.2l-2.8,0.2c-1.6,5-1.4,8.1-1.2,9.5
						c0,0,0,0.1,0,0.1C140.6,256.7,144.8,256.7,148.9,256.2"/>
					<path id="Path_13024" d="M136.4,256.4c0.1,0.4,0.5,0.8,0.9,0.9c3.3,0.7,8.6,0.1,10.8-0.2c0.5-0.1,0.9-0.5,0.9-1
						C144.8,256.6,140.6,256.7,136.4,256.4"/>
					<path id="Path_13025" class="st12" d="M136.4,242.7l1.2,5.7c0.1,0.4,0.4,0.7,0.8,0.8c0.6,0.1,1.2,0.1,1.9,0
						c0.6-0.1,1.1-0.7,0.9-1.4c0,0,0,0,0,0l-0.8-5.1L136.4,242.7z"/>
					<path id="Path_13026" d="M161.1,256.4c-1.9,0-3.8-0.2-5.6-0.8c0,0.3,0,0.6,0,1c0,0.3,0.3,0.6,0.6,0.6l17.1-0.1
						c0.4,0,0.7-0.4,0.7-0.8c0-0.1,0-0.2-0.1-0.3C171.7,256.1,166,256.5,161.1,256.4"/>
					<path id="Path_13027" d="M173.9,255.9c0,0,0-0.1-0.1-0.1c-1.5-2.1-5.4-6.3-13-8.1l-3.6-0.1c-1.2,2.5-1.8,5.3-1.7,8
						c1.8,0.6,3.7,0.8,5.6,0.8C166,256.5,171.7,256.1,173.9,255.9"/>
					<path id="Path_13028" class="st12" d="M156.4,242.2c0.1,0.3,0.8,4.4,1.1,5.9c0.1,0.4,0.3,0.6,0.7,0.7c0.8,0.1,1.7,0,2.5-0.2
						c0.5-0.2,0.8-0.6,0.7-1.1l-0.4-6.5L156.4,242.2z"/>
					<path id="Path_13029" class="st79" d="M153.6,166.6c0,0,5,34.5,8.6,75.5c0,0.8-0.5,1.5-1.3,1.6c-1.3,0.3-2.7,0.5-4.1,0.5
						c-0.7,0-1.3-0.6-1.4-1.3c-1.2-7.2-10-46-12.3-54.6c0,0-2.7,36.3-1.8,55.1c0,0.5-0.3,0.9-0.8,0.9c-1.1,0.1-2.2,0.1-3.3,0
						c-0.5-0.1-1-0.5-1.1-1c-0.9-6.1-5.9-42.5-5.7-68.8c0-1.5,1.7-13.6,1.7-13.6L153.6,166.6z"/>
					<path id="Path_13030" class="st5" d="M131.5,168.6c-0.5-0.2-0.9-0.7-0.9-1.2c-0.7-6.5-3.9-46.6,16.5-63.1c0,0,1.2-3.1,10.8,4.5
						s4.5,15.4,2.2,26.3c-2.8,13.2-7.7,23.9-5.5,32c0.2,0.6-0.1,1.1-0.7,1.3C146.6,171.2,138.7,171.2,131.5,168.6"/>
					<path id="Path_13031" class="st12" d="M155,92.3c0,0.6-8.1,12.1-8.1,12.1s1.5,2.9,8.4,5.2l6-12.4L155,92.3z"/>
					<path id="Path_13032" class="st12" d="M161.4,85.7c0,0,2.9,6.7,3.1,10.1s0.9,5.8-3.1,6.5c-3.8,0.7-7.6-1.3-9.3-4.8
						c0,0-2.9-5.4-2.2-7.6S161.4,85.7,161.4,85.7"/>
					<path id="Path_13033" d="M153.5,95l0.2-0.1c0.3-0.1,0.4-0.4,0.3-0.7c0,0,0,0,0,0c-0.6-1.1-1.7-3.6-0.2-4.2
						c1.8-0.8,9.2-2.3,10.7-4.8c1.3-2.3,0.5-5.3-1.8-6.6c0,0,0,0-0.1,0c-0.1-0.1-0.3,0-0.4,0.1l-0.2,0.3c-0.1,0.1-0.2,0.2-0.4,0.1
						c-0.1,0-0.1-0.1-0.1-0.2c0-0.1-0.2-0.2-0.3-0.2c-0.1,0-0.1,0.1-0.2,0.1c-0.5,0.8-1.8,2-5.3,2.7c-5,0.9-8.3,2.9-8.4,6.4
						c0,0.2-0.1,0.3-0.3,0.3c-0.1,0-0.1,0-0.1,0c-0.4-0.2-1-0.3-1.7,0.3c-1.4,1.2-0.8,4.1,2.2,6.6c0.1,0.1,0.1,0.3,0,0.4
						c0,0,0,0-0.1,0.1c-0.5,0.4-1.4,1.2,0.7,2.3c1.3,0.8,2.9,1.1,4.4,1c0.1,0,0.2-0.2,0.2-0.3c0,0,0,0,0,0l-0.7-3
						c0-0.1,0.1-0.3,0.2-0.3c0,0,0,0,0.1,0L153.5,95z"/>
					<path id="Path_13034" class="st12" d="M153.6,95.6c0,0-1.1-4.3-3-3.1s1,4.8,2.5,4.9L153.6,95.6z"/>
					<path id="Path_13035" class="st12" d="M140.7,132.4c0,0-5.6,19.4,6.4,32.3c0.7,0.8,1.1,1.9,1.1,3l-0.4,5.4
						c-0.2,2.3,1.5,4.3,3.8,4.5c1.3,0.2,2.6,0.1,3.8-0.2l-0.3-10.1l1.3,0.2c0,0-1.5-4.3-5-4.1c0,0-6.9-6.5,2-26.5
						C153.3,136.9,145.4,133.1,140.7,132.4"/>
					<path id="Path_13036" class="st100" d="M140.3,132.7c0,0,0-0.1,0-0.1c0.2-5.1,1.8-10,4.5-14.3c0.1-0.1,0.2-0.2,0.4-0.1
						s0.2,0.2,0.1,0.4l0,0c-2.6,4.2-4.2,9.1-4.4,14c0,0.1-0.1,0.3-0.3,0.3C140.4,132.8,140.3,132.8,140.3,132.7"/>
					<path id="Path_13037" class="st100" d="M153.2,136.9c-0.1-0.1-0.1-0.2-0.1-0.2c0,0,0.9-3.6,3.3-11c0.8-1.9,0.7-4.1-0.2-6
						c-1.1-1.8-2.7-3.2-4.7-3.9c-0.1,0-0.2-0.2-0.2-0.3c0-0.1,0.2-0.2,0.3-0.2c0,0,0,0,0.1,0c2.1,0.7,3.9,2.2,5,4.2
						c1,2,1,4.3,0.2,6.4c-2.4,7.4-3.3,10.9-3.3,10.9c0,0.1-0.2,0.2-0.3,0.2C153.2,137,153.2,137,153.2,136.9"/>
					<g id="Group_6828" transform="translate(198.389 241.482)" class="st85">
						<g id="Group_6827">
							<g>
								<defs>
									<rect id="SVGID_00000127003818589455454660000000722530399845669533_" x="8.1" y="8.9" width="62.6" height="13"/>
								</defs>
								<clipPath id="SVGID_00000113321248287741648580000009329190874579232409_">
									<use xlink:href="#SVGID_00000127003818589455454660000000722530399845669533_"  style="overflow:visible;"/>
								</clipPath>
								<g id="Group_6826" style="clip-path:url(#SVGID_00000113321248287741648580000009329190874579232409_);">
									<path id="Path_13038" d="M70.7,15.4c0-3.6-14-6.5-31.3-6.5S8.1,11.8,8.1,15.4s14,6.5,31.3,6.5S70.7,19,70.7,15.4"/>
								</g>
							</g>
						</g>
					</g>
					<path id="Path_13039" d="M251.5,256.2c0-0.1,0-0.2,0-0.3c1.4-5.7,8.5-9.2,8.5-9.2l2.8,0.2c1.6,5,1.4,8.1,1.2,9.5
						c0,0,0,0.1,0,0.1C259.9,256.7,255.7,256.7,251.5,256.2"/>
					<path id="Path_13040" d="M264.1,256.4c-0.1,0.4-0.5,0.8-0.9,0.9c-3.3,0.7-8.6,0.1-10.8-0.2c-0.5-0.1-0.9-0.5-0.9-1
						C255.7,256.6,259.9,256.7,264.1,256.4"/>
					<path id="Path_13041" class="st12" d="M206.4,140.8c1.5,8.3,7.2,18.9,14,28.3l3.5-7c0,0-6.7-8.9-5.9-22.8
						C214,138.6,209.5,139.7,206.4,140.8"/>
					<path id="Path_13042" class="st9" d="M219.2,165.9c-1.3-10.2-2.9-16.2-8.4-35.7c-1.7-6.2-3.2-12.4-1.8-18.6l1.7-7
						c9.7-2,19.7-1.2,28.9,2.2c0,0,20,10.7,2.2,54.1C235,167.5,227.4,168.9,219.2,165.9"/>
					<path id="Path_13043" class="st12" d="M213.8,95.8l2.9,8.8c0.2,0.6,0.6,1,1.2,1.1c2,0.5,6.9,1.5,10.4-0.4
						c0.4-0.2,0.5-0.7,0.3-1.1c0,0,0,0,0,0l-5.8-10L213.8,95.8z"/>
					<path id="Path_13044" class="st12" d="M218.6,83c-0.2,0.1-7.3,11.7-7.3,11.7l6.7,3.9l8.4-10C226.4,88.7,221.3,80.9,218.6,83"/>
					<path id="Path_13045" class="st12" d="M221.3,96.8c0,0,1.8-3.4,3.5-3.1s2.9,2.1,0.6,3.8C222.6,99.7,221.3,96.8,221.3,96.8"/>
					<path id="Path_13046" d="M210.6,254c3.3,0.6,9,1.5,13.5,2.1c1.7,0.3,3.5,0.3,5.2-0.1c0,0.1,0,0.2,0,0.3c-0.1,0.5-0.5,0.8-1,0.8
						c-6-0.2-11.9-0.6-17.8-1.4c-0.4,0-0.6-0.4-0.6-0.8c0-0.1,0.1-0.2,0.1-0.3C210.3,254.4,210.4,254.2,210.6,254"/>
					<path id="Path_13047" d="M224.1,256.1c-4.5-0.6-10.2-1.5-13.5-2.1c3.6-3.7,14.1-5.6,14.1-5.6l2.9,0.2c1.3,2.2,1.9,4.8,1.7,7.3
						C227.6,256.4,225.9,256.4,224.1,256.1"/>
					<path id="Path_13048" class="st12" d="M228.6,244l-0.7,5.4c-0.1,0.6-0.6,1-1.1,1.1c-0.7,0.1-1.5-0.1-2.2-0.4
						c-0.5-0.2-0.8-0.7-0.9-1.2l-0.5-5.3L228.6,244z"/>
					<path id="Path_13049" class="st12" d="M262.2,241.7l0.9,5.4c0.1,0.7-0.3,1.3-0.9,1.6c-0.9,0.4-1.9,0.6-2.8,0.4
						c-0.4-0.1-0.8-0.4-0.9-0.9l-1.5-5.8L262.2,241.7z"/>
					<path id="Path_13050" class="st7" d="M263.7,243.3c-1.8,1.3-7.2,1.1-7.2,1.1c-15.6-48.4-22.7-61.9-22.7-61.9
						c1.4,17.9-4.6,63-4.6,63c-3.3,1.2-7.4-0.6-7.4-0.6c2.1-28.9,0.6-60.3-3-80.6c13.2,0.8,20.6-1.5,23-3.1
						C251.4,179.8,263.7,243.3,263.7,243.3"/>
					<path id="Path_13051" class="st9" d="M210.7,104.6c0,0-11.7,11.3-5.3,37.1c0,0,2.2-2.2,8.8,0.7L210.7,104.6z"/>
					<path id="Path_13052" class="st12" d="M211.3,86.9c0,0-1.1,7.2-0.3,10.6s0.6,5.8,4.7,5.4c3.9-0.3,7-3.2,7.7-7
						c0,0,1.4-5.9,0.2-7.9S211.3,86.9,211.3,86.9"/>
					<path id="Path_13053" d="M224.8,93.6c0.3-1.4,2.1-2.1,2.9-2.3c0.3-0.1,0.6-0.3,0.7-0.6c0.8-1.2,0.4-2.8-0.8-3.6
						c-0.2-0.1-0.4-0.2-0.6-0.3c-0.6-0.3-0.9-1-0.6-1.5c0.7-1.3,0.2-2.8-1-3.5c-0.1,0-0.2-0.1-0.2-0.1c-1.5-0.8-3.3-0.6-4.5,0.5
						c-0.4,0.4-1,0.4-1.5,0.1c-0.2-0.2-0.5-0.2-0.8-0.1c-0.6,0.3-1.3,0-1.5-0.6c-0.5-1.4-1.9-2.2-3.4-2c-3.7,0.3-4.5,4.2-3.7,6.6
						s4.8,1.9,6.8,0.9c1.5-0.7,3.3,0.3,4.1,0.9c0.3,0.2,0.5,0.5,0.5,0.9l0.3,7.2"/>
					<path id="Path_13054" class="st5" d="M255.2,160.1h-27.5c-1.8,0-3.3-1.5-3.3-3.3c0,0,0,0,0,0v-16.1c0-1.8,1.5-3.3,3.3-3.3l0,0
						h27.5c1.8,0,3.3,1.5,3.3,3.3c0,0,0,0,0,0v16.1C258.5,158.7,257,160.1,255.2,160.1L255.2,160.1"/>
					<path id="Path_13055" class="st100" d="M245.5,149.2c0,2-1.6,3.7-3.7,3.7c-2,0-3.7-1.6-3.7-3.7c0-2,1.6-3.7,3.7-3.7l0,0
						C243.9,145.5,245.5,147.1,245.5,149.2"/>
					<path id="Path_13056" class="st12" d="M240.9,140.7c0.7,4.4,0.7,8.8,0.1,13.2c-0.1,0.7-0.8,1.3-1.6,1.3c-0.9,0-2,0-3.1-0.1
						c-1.2-0.2-2.3-0.7-3.2-1.5c-0.2-0.2-0.5-0.2-0.7,0.1c-0.1,0.1-0.2,0.3-0.1,0.5c0.4,0.8,1,1.6,1.7,2.2c0.4,0.4,1.8,1.1,1.7,1.7
						c-0.1,0.2-0.2,0.4-0.3,0.5c-0.9,0.8-2.1,1.4-3.4,1.6c-0.2,0-0.3,0.1-0.4,0.2c-0.1,0.8,2.2,1.8,2.8,2.1c0.9,0.4,1.9,0.6,2.8,0.6
						c2.5-0.2,4.8-1.4,6.2-3.4c3.6-4.8,6-10.4,7.3-16.2C247.8,139.9,242.9,140.3,240.9,140.7"/>
					<path id="Path_13057" class="st9" d="M250.7,143.9c4.2-19.2-9.5-35.3-9.5-35.3l-9.7,9.6c6.1,9,8.6,16.9,9.6,23.1
						C243,140.9,247.8,140.4,250.7,143.9"/>
					<g id="Group_6831" transform="translate(431.74 277.257)" class="st85">
						<g id="Group_6830">
							<g>
								<defs>
									<rect id="SVGID_00000145766427563088901310000007209123914328182156_" x="8.1" y="8.9" width="248" height="32.5"/>
								</defs>
								<clipPath id="SVGID_00000079483511787736771690000016733409247950947726_">
									<use xlink:href="#SVGID_00000145766427563088901310000007209123914328182156_"  style="overflow:visible;"/>
								</clipPath>
								<g id="Group_6829" style="clip-path:url(#SVGID_00000079483511787736771690000016733409247950947726_);">
									<path id="Path_13058" d="M256.1,25.2c0-9-55.5-16.3-124-16.3s-124,7.3-124,16.3s55.5,16.3,124,16.3S256.1,34.2,256.1,25.2"
										/>
								</g>
							</g>
						</g>
					</g>
					<path id="Path_13059" d="M622.9,289.7c0.3,1.8,0.5,3.7,0.6,5.5c0.1,1.3-0.9,2.4-2.1,2.5c-4.4,0.4-14.5,1.2-21,0.3
						c-0.6-0.1-1-0.6-0.9-1.2c0-0.2,0.2-0.5,0.3-0.6c2.7-2.5,9.1-7.3,19.6-8.3L622.9,289.7z"/>
					<path id="Path_13060" class="st4" d="M625.1,284l-2.2,5.5c-0.3,0.8-1.1,1.2-1.9,1.1c-0.6-0.1-1.2-0.2-1.8-0.4
						c-1.3-0.4-2-1.7-1.6-3l1.7-5.7L625.1,284z"/>
					<path id="Path_13061" d="M663.5,294.1c0,0-4.5,3.8-6.2,8.6c-0.4,1.1,0.2,2.2,1.3,2.6c0.2,0.1,0.5,0.1,0.7,0.1h9.2
						c1.2,0,2.2-1,2.2-2.2c0-0.1,0-0.3,0-0.4C670,299.5,668.3,294.1,663.5,294.1"/>
					<path id="Path_13062" class="st4" d="M669.1,289.2c0,0-0.9,4-1.6,6.7c-0.1,0.5-0.6,0.7-1,0.6c0,0,0,0-0.1,0
						c-1.1-0.5-2.2-0.7-3.4-0.6c-0.4,0-0.7-0.2-0.7-0.6c0,0,0,0,0-0.1l-0.1-6.7L669.1,289.2z"/>
					<path id="Path_13063" class="st11" d="M645.2,198.8l-27.3,83.3c0,0,5.2,3.4,7.7,3.3l32.5-67c0,0,5.7,41.3,2.9,70.9l9.3,0.7
						c0,0,15.1-75.7,3.7-101.7L645.2,198.8z"/>
					<path id="Path_13064" class="st103" d="M657.9,217.8L657.9,217.8c0.2,0,0.3-0.1,0.3-0.3c0,0,0,0,0,0l-1.1-8.4
						c0-0.1-0.2-0.2-0.3-0.2c-0.1,0-0.2,0.2-0.2,0.3l1.1,8.4C657.6,217.7,657.7,217.8,657.9,217.8"/>
					<path id="Path_13065" class="st7" d="M640,125.5c0,0,22.1,2,19,17.7c0,0,12.2,23,18,50.1c0.2,0.9-0.4,1.7-1.2,1.9
						c0,0,0,0-0.1,0l-36.9,6.3c-1,0.2-2-0.5-2.3-1.5l-8.8-34l-3.4,15.8l-10.9-2.8l9.2-46.5C622.6,132.6,623.9,125.8,640,125.5"/>
					<path id="Path_13066" class="st104" d="M627.6,164.6C627.6,164.6,627.6,164.5,627.6,164.6c0.2,0,0.3-0.2,0.3-0.3c0,0,0,0,0,0
						l-3.1-14.1c0-0.1-0.2-0.2-0.3-0.2c-0.1,0-0.2,0.2-0.2,0.3l3.1,14.1C627.4,164.5,627.5,164.5,627.6,164.6"/>
					<path id="Path_13067" class="st4" d="M629.8,206.5c1.2-0.6,2.5-0.8,3.8-0.5l2.6,0.6c0.5,0.1,1-0.2,1.1-0.7c0,0,0-0.1,0-0.1
						l2.7-23.6c3.3,1.6,8.1,1.4,9.7,1.3l-6.1,27.8h-21.4L629.8,206.5z"/>
					<path id="Path_13068" class="st4" d="M573,155.3l0.6-2.1c0.4-1.2,1.3-2.2,2.5-2.7l11.7-4.7c0,0,0.2-1.5-2.5-2.5s-2-4-2-4
						s3.6,1.6,8.9,4.3c2.5,1.3,4.5,3.5,5.6,6.1l26.5,32.3l-3.1,2.1c-3.8,2.6-8.9,1.6-11.5-2.1c-0.2-0.3-0.3-0.5-0.5-0.8l-14.3-27.5
						C587.8,155.7,580.3,156.2,573,155.3"/>
					<path id="Path_13069" class="st4" d="M632.9,110.4l6.8,19.1c0,0-6,4.7-10.4,3.1l-3.4-10.9C625.8,121.7,628.4,108.3,632.9,110.4
						"/>
					<path id="Path_13070" class="st4" d="M612.6,103.6c0,0.3,6.6,18.6,6.6,18.6l10.4-4l-3.6-18.2
						C625.8,99.9,612.6,98.7,612.6,103.6"/>
					<path id="Path_13071" d="M624,104.4l2.7,9.5c0,0.1,0.1,0.2,0.1,0.4c0,0.8-0.2,3.4-2.9,3.1c-2.5-0.3-4.7-0.6-6.1,0.1
						c-0.6,0.3-0.9,1-0.7,1.7c1,2.9,2.3,5.7,3.7,8.4c0.4,0.6,1.1,0.9,1.8,0.6c3.2-1.4,6.1-3.1,8.9-5.2c0.4-0.3,0.6-0.8,0.5-1.3
						c-0.5-2.4-1.8-9.8-1.9-11.9c-0.1-2,2.2-3.5,3.1-4.1c0.3-0.2,0.5-0.5,0.6-0.9c0.3-1.3,0.6-4.2-3.1-4.8c-0.7-0.1-1.3-0.8-1.1-1.6
						c0,0,0,0,0,0c0.3-1.5,0.2-3.8-2.7-4.6c-2.2-0.6-4.6,0.3-5.7,2.3c-0.4,0.5-1.1,0.7-1.7,0.5c-0.4-0.2-0.9-0.1-1.2,0.2
						c-0.6,0.5-1.4,0.4-1.9-0.2c0,0-0.1-0.1-0.1-0.1c-1-1.7-3.2-2.4-5-1.7c-4.7,1.5-4.5,6.9-2.7,9.8s6.7,1,9-0.9
						c1.8-1.5,4.5-0.6,5.7-0.1C623.6,103.6,623.9,104,624,104.4"/>
					<path id="Path_13072" class="st4" d="M630.9,113.1c0,0-2.8-5.2-0.9-6.9s4.9-1.4,4.8,2.7C634.7,114,630.9,113.1,630.9,113.1"/>
					<path id="Path_13073" class="st104" d="M647.5,183.9c0.9,0,1.8,0,2.7-0.1l0.2,0l8.1-37.6c0-0.1-0.1-0.3-0.2-0.3
						c-0.1,0-0.3,0.1-0.3,0.2l0,0l-8,37.2c-1.2,0.1-7.6,0.5-11-1.9l7-32.6l-1.5-2.7c-0.1-0.1-0.2-0.2-0.4-0.1
						c-0.1,0.1-0.2,0.2-0.1,0.4l0,0l1.4,2.6l-7,32.8l0.1,0.1C641,183.5,644.9,183.9,647.5,183.9"/>
					<path id="Path_13074" class="st9" d="M629.3,302.3c0.2,0,0.4,0,0.6-0.1c0.8-0.4,1.2-1.4,0.8-2.3l-33.3-84.5
						c-0.3-0.8-1.2-1.2-2-1c0,0-0.1,0-0.1,0.1c-0.8,0.4-1.2,1.4-0.8,2.3l33.3,84.5C628.1,301.9,628.7,302.3,629.3,302.3"/>
					<path id="Path_13075" class="st9" d="M591.8,302.3c0.7,0,1.2-0.4,1.5-1l33.3-84.5c0.4-0.9,0-1.8-0.8-2.3c-0.8-0.3-1.7,0-2,0.8
						c0,0,0,0.1-0.1,0.1l-33.3,84.5c-0.4,0.9,0,1.8,0.8,2.3C591.4,302.2,591.6,302.3,591.8,302.3"/>
					<path id="Path_13076" class="st9" d="M487.6,302.3c0.2,0,0.4,0,0.6-0.1c0.8-0.4,1.2-1.4,0.8-2.3l-33.3-84.5
						c-0.3-0.8-1.2-1.2-2-1c0,0-0.1,0-0.1,0.1c-0.8,0.4-1.2,1.4-0.8,2.3l33.3,84.5C486.4,301.8,487,302.3,487.6,302.3"/>
					<path id="Path_13077" class="st9" d="M450.1,302.3c0.7,0,1.2-0.4,1.5-1l33.3-84.5c0.4-0.9,0-1.8-0.8-2.3c-0.8-0.3-1.7,0-2,0.8
						c0,0,0,0.1-0.1,0.1l-33.3,84.5c-0.4,0.9,0,1.8,0.8,2.3C449.7,302.2,449.9,302.3,450.1,302.3"/>
					<path id="Path_13078" class="st10" d="M537.1,217c4.5,0.9,8.7,2.7,12.4,5.3c1,0.7,1.6,1.9,1.4,3.1c-0.8,6.2-4,26.4-14.7,46.1
						c-0.6,1-0.7,2.3-0.5,3.4l1.9,8.6l3.4,3.2h-8.9l-5.9-16l2.5-0.8c2-0.6,3.3-2.4,3.3-4.5l0.3-17.1c-0.1-4.7,1.6-9.3,4.7-12.9
						l-14.1-0.7L537.1,217z"/>
					<path id="Path_13079" class="st11" d="M544.5,288.4c0.8,1.1-8.7,2.4-13.5,0.1c0,0-6.6-11.6-6.6-17.5c0,0,0.5-1.2,4.4-0.9
						c0,0,2.2,13.7,4.6,15.2s6.6,0.2,6.6,0.2S543.3,286.8,544.5,288.4"/>
					<path id="Path_13080" class="st12" d="M524.8,235.8c0.1-0.1,15.2-1.8,15.2-1.8c-0.2,3.7,0.1,7.4,1.1,11
						c1.5,6.3,23.8,33.8,23.8,33.8l-2.3,7.4c6.8,2.5,14.2,2.9,21.3,1.3l-14.5-8.7c0,0-13.5-46.1-21.8-54.4l-15.2-5.3L524.8,235.8z"
						/>
					<path id="Path_13081" class="st11" d="M490.8,209c0,0-8.7,13-9.5,18.9s2.4,8.3,11.6,8.7s33.6,0.4,33.6,0.4l20.9-17.8
						c0,0-15.2-5.4-19.2-7S490.8,209,490.8,209"/>
					<path id="Path_13082" class="st11" d="M563.4,283.7c0,0-2.5,2.4-0.8,5.1c0,0,19.9,3.5,25.3,1.9c0,0-1.1-2.6-7.2-5.5l0.4,0.3
						c0.3,0.2,0.4,0.7,0.1,1c-0.1,0.2-0.4,0.3-0.6,0.3C576.6,286.7,568.3,286,563.4,283.7"/>
					<path id="Path_13083" d="M508.4,136c-1.3,0.4-6.1,2.1-5.5,5.2c0.1,0.3-0.1,0.6-0.4,0.7c-0.1,0-0.2,0-0.3,0
						c-2-0.6-6.6-1.2-9.4,2.3c-2.5,3.1-0.6,6,0.9,7.6c0.2,0.2,0.2,0.6,0,0.8c-0.1,0.1-0.3,0.2-0.5,0.2c-3.8-0.5-12-0.6-13.3,7.1
						c-1.2,7.2,3.7,9.2,6.7,9.7c0.3,0.1,0.5,0.4,0.4,0.7c0,0.2-0.1,0.3-0.3,0.4c-1.5,0.9-3.2,2.9-2.5,6.7c1.1,6,12.8,5.5,14.2,5.4
						c0.1,0,0.2,0,0.2-0.1l18.8-10.7c0.1-0.1,0.2-0.2,0.3-0.4l3.8-21.9c0-0.2,0-0.4-0.1-0.5L509,136.2
						C508.8,136,508.6,136,508.4,136"/>
					<path id="Path_13084" class="st11" d="M514.4,207.3c0,0,10.2-9.7,15.2-16.1c2.7-3.5,3.6-8,2.3-12.2c-2.3-7.7-6.3-15.7-6.7-16.9
						c-0.6-1.9-12-1.8-12-1.8s-22.4,14.6-31.3,39.2l9.9,3.1c0,0,5.9-9.8,11.6-16.1c0,0-10,13.2-10.4,18.6L514.4,207.3z"/>
					<path id="Path_13085" class="st12" d="M526.5,151.4c-0.1,0.4-3.1,10.3-3.3,10.5s-6.5,0.5-9.5-1.5l5-10.5L526.5,151.4z"/>
					<path id="Path_13086" class="st12" d="M521.6,130.7c0,0,5.4,2.3,9,10s0.9,11.3-2.5,11.8s-8.6,0.4-14-4.6
						C508.8,142.9,514.7,128,521.6,130.7"/>
					<path id="Path_13087" d="M517.8,143.8c0,0-4.1-11.4,6-11.5l2.4,1.7c0,0,3.7-6.3-2.4-9.3s-13.2-0.5-15.7,7.6s-3,13.6,1.3,17.6
						c4.3,3.9,6.1-0.5,6.1-0.5s-2.3-3.7-1.4-5.6s3.1,0.4,3.1,0.4L517.8,143.8z"/>
					<path id="Path_13088" class="st12" d="M516.7,145c0,0-2-5.9-4.8-3.5s2.2,5.4,4.2,6.4L516.7,145z"/>
					<path id="Path_13089" class="st12" d="M535.1,208l-7.5-7.2l-10.3,4.4c0,0-10.3,1.6-16.2,0l-5.9-1.6l-13.3-4.1l-2.1,5.9
						c-0.5,1.5,0,3.2,1.3,4.1c1.1,0.8,2.2,1.5,3.4,2.1c1.8,0.8,43.2-0.5,43.2-0.5L535.1,208z"/>
					<path id="Path_13090" class="st105" d="M506.8,211.4L506.8,211.4l43.4,0c1.1,0,1.9-0.9,1.9-1.9s-0.9-1.9-1.9-1.9l-43.3,0
						c-1.1,0-1.9,0.9-1.9,1.9C505,210.5,505.8,211.3,506.8,211.4"/>
					<path id="Path_13091" class="st5" d="M589.2,172h-36.1c-2.7,0-5.1,1.5-6.2,3.9l-16.7,35.4h44.9c1.7,0,3.3-1,3.9-2.6l12.9-32.7
						c0.6-1.5-0.1-3.2-1.6-3.7C590,172.1,589.6,172,589.2,172"/>
					<path id="Path_13092" class="st105" d="M563.8,190.2c-0.8,2.4-0.2,4.8,1.3,5.3s3.3-1.1,4.1-3.5s0.2-4.8-1.3-5.3
						S564.6,187.7,563.8,190.2"/>
					<path id="Path_13093" class="st9" d="M446.3,213c-0.1-0.5,0-1,0.4-1.4c0.4-0.4,0.9-0.6,1.5-0.6h195.2c0.7,0,1.4,0.3,1.9,0.9
						c0.4,0.5,0.5,1.3,0.1,1.8l-2.1,4c-0.6,1-1.6,1.5-2.7,1.5H449.5c-1,0-1.9-0.6-2.2-1.6L446.3,213z"/>
					<g id="Group_6834" transform="translate(412.417 20.379)" class="st90">
						<g id="Group_6833">
							<g>
								<defs>
									<rect id="SVGID_00000029015249977206785400000014697487800956664480_" x="8.1" y="8.9" width="19" height="19"/>
								</defs>
								<clipPath id="SVGID_00000024703112438981033910000004316795816956940977_">
									<use xlink:href="#SVGID_00000029015249977206785400000014697487800956664480_"  style="overflow:visible;"/>
								</clipPath>
								<g id="Group_6832" style="clip-path:url(#SVGID_00000024703112438981033910000004316795816956940977_);">
									<path id="Path_13094" class="st22" d="M10.2,10.8c0.7-0.2,1.4,0.3,1.6,1c0.2,0.7-0.3,1.4-1,1.6c-0.7,0.2-1.4-0.3-1.6-1
										c0,0,0,0,0,0C9.1,11.6,9.5,10.9,10.2,10.8C10.2,10.8,10.2,10.8,10.2,10.8"/>
									<path id="Path_13095" class="st22" d="M27,18c-0.2-5.2-4.6-9.3-9.8-9.1C16.1,9,15,9.2,14,9.6c-0.4,0.2-0.6,0.6-0.4,1.1
										c0,0,0,0,0,0l0.6,1.3c1-0.5,2.1-0.8,3.2-0.8c1.4-0.1,2.8,0.3,4,1c0.5,0.3,1,0.7,1.4,1.1c0.4,0.4,0.8,0.9,1.1,1.4
										c0.2,0.4,0.1,0.9-0.3,1.2l-0.9,0.6c-0.1,0.1-0.3,0.2-0.5,0.2c-0.3,0-0.6-0.2-0.8-0.4c-0.4-0.6-0.9-1.2-1.5-1.6
										c-0.8-0.4-1.6-0.6-2.5-0.6c-0.6,0-1.2,0.1-1.7,0.3c-0.1,0-0.2,0.1-0.3,0.1l0,0l-0.1,0c-0.8,0.4-1.4,1.2-1.8,2
										c-0.2,0.6-0.3,1.1-0.3,1.7c0,0.6,0.1,1.2,0.3,1.7c0.2,0.5,0.5,1,0.9,1.4c0.4,0.4,0.8,0.7,1.3,0.9c0.5,0.2,1.1,0.3,1.7,0.3
										c0.9,0,1.7-0.1,2.4-0.5c0.3-0.2,0.6-0.4,0.8-0.7c0.3-0.3,0.5-0.6,0.7-0.9c0.3-0.4,0.8-0.6,1.2-0.3c0,0,0,0,0,0l0,0l0.9,0.6
										c0.4,0.3,0.5,0.8,0.3,1.2c-0.6,1-1.5,1.9-2.5,2.5c-1.2,0.7-2.5,1-3.9,1c-1,0-2-0.2-2.9-0.6c-0.9-0.4-1.6-0.9-2.3-1.6
										c-0.6-0.7-1.1-1.5-1.5-2.3c-0.4-0.9-0.5-1.9-0.5-2.9c0-0.8,0.1-1.7,0.4-2.5l-1.1-0.5c-0.5-0.2-1,0-1.2,0.5c0,0,0,0,0,0
										c0,0,0,0.1,0,0.1c-1.3,5.1,1.7,10.2,6.7,11.6c5.1,1.3,10.2-1.7,11.6-6.7C27,19.9,27.1,19,27,18L27,18z"/>
								</g>
							</g>
						</g>
					</g>
				</g>
			</g>
		</g>
	</g>
</g>
</svg>
